<?xml version="1.0" standalone="no"?>
<!DOCTYPE svg PUBLIC "-//W3C//DTD SVG 1.1//EN" "http://www.w3.org/Graphics/SVG/1.1/DTD/svg11.dtd" >
<svg>
<metadata>
Created by FontForge 20090914 at Fri Oct 18 21:39:30 2024
 By www-data
Copyright (C)2015 Commercial Type.
</metadata>
<defs>
<font id="YandexSansText-Bold" horiz-adv-x="556" >
  <font-face 
    font-family="Yandex Sans Text Bold"
    font-weight="700"
    font-stretch="normal"
    units-per-em="1000"
    panose-1="0 0 0 0 0 0 0 0 0 0"
    ascent="800"
    descent="-200"
    x-height="518.999"
    cap-height="716"
    bbox="-312 -237.005 1396 1015"
    underline-thickness="75"
    underline-position="-114"
    unicode-range="U+000D-U+FEFF"
  />
<missing-glyph horiz-adv-x="196" 
 />
    <glyph glyph-name=".notdef" horiz-adv-x="196" 
 />
    <glyph glyph-name="NULL" horiz-adv-x="0" 
 />
    <glyph glyph-name="NULL" horiz-adv-x="0" 
 />
    <glyph glyph-name="nonmarkingreturn" unicode="&#xd;" horiz-adv-x="196" 
 />
    <glyph glyph-name="space" unicode=" " horiz-adv-x="196" 
 />
    <glyph glyph-name="exclam" unicode="!" horiz-adv-x="302" 
d="M231 716l-20 -481h-121l-19 481h160zM151 -7c-14 0 -27.167 2.66699 -39.5 8s-23.166 12.5 -32.499 21.5s-16.666 19.333 -21.999 31s-8 24.167 -8 37.5s2.66699 25.833 8 37.5s12.666 22 21.999 31s20.166 16 32.499 21s25.5 7.5 39.5 7.5s27.167 -2.5 39.5 -7.5
s23 -12 32 -21s16.167 -19.333 21.5 -31s8 -24.167 8 -37.5s-2.66699 -25.833 -8 -37.5s-12.5 -22 -21.5 -31s-19.667 -16.167 -32 -21.5s-25.5 -8 -39.5 -8z" />
    <glyph glyph-name="quotedbl" unicode="&#x22;" horiz-adv-x="430" 
d="M44 716h151l-19 -277h-113zM235 716h151l-19 -277h-113z" />
    <glyph glyph-name="numbersign" unicode="#" horiz-adv-x="655" 
d="M387 429h-111l-11 -122h111zM364 177h-111l-16 -177h-124l16 177h-92v130h104l11 122h-89v130h101l14 157h124l-14 -157h111l14 157h124l-14 -157h95v-130h-107l-11 -122h92v-130h-104l-16 -177h-124z" />
    <glyph glyph-name="dollar" unicode="$" 
d="M192 -160v155.995c-36 5.33301 -66.333 13.166 -91 23.499s-45.667 21.166 -63 32.499l21 130c10 -7.33301 22.833 -14.666 38.5 -21.999s32.667 -14 51 -20s37.833 -10.833 58.5 -14.5s41.667 -5.5 63 -5.5c28.667 0 52.167 5.16699 70.5 15.5s27.5 30.166 27.5 59.499
c0 16.667 -3.16699 30.5 -9.5 41.5s-15 20.167 -26 27.5s-24 13.5 -39 18.5s-31.5 9.5 -49.5 13.5c-24.667 6 -49.5 13.167 -74.5 21.5s-47.667 20.5 -68 36.5s-37 36.5 -50 61.5s-19.5 56.833 -19.5 95.5c0 56.667 15.333 102 46 136s72 57 124 69v140h146v-133
c32.667 -3.33301 59.667 -9.16602 81 -17.499s38.333 -16.166 51 -23.499l-21 -129c-22.667 13.333 -47.5 23.833 -74.5 31.5s-57.5 11.5 -91.5 11.5c-35.333 0 -62.166 -6 -80.499 -18s-27.5 -30.333 -27.5 -55c0 -14 3.5 -25.667 10.5 -35s16.5 -17.166 28.5 -23.499
s25.667 -11.666 41 -15.999s31.666 -8.5 48.999 -12.5c27.333 -6 53.666 -14 78.999 -24s47.833 -23.5 67.5 -40.5s35.334 -38.167 47.001 -63.5s17.5 -56.333 17.5 -93c0 -37.333 -5 -69.166 -15 -95.499s-23.5 -48.166 -40.5 -65.499s-37 -30.666 -60 -39.999
s-47.167 -16 -72.5 -20v-154h-145z" />
    <glyph glyph-name="percent" unicode="%" horiz-adv-x="670" 
d="M310 542c0 -55.333 -12.333 -98.833 -37 -130.5s-59.334 -47.5 -104.001 -47.5c-45.333 0 -80.333 15.167 -105 45.5s-37 73.166 -37 128.499c0 58 12.333 102.167 37 132.5s59.667 45.5 105 45.5c44.667 0 79.334 -14.667 104.001 -44s37 -72.666 37 -129.999zM52 0
l450 716h118l-451 -716h-117zM132 540c0 -34 3.16797 -57.667 9.50098 -71s15.5 -20 27.5 -20c11.333 0 20.166 6.66699 26.499 20s9.5 37 9.5 71s-3 57.667 -9 71s-15 20 -27 20c-12.667 0 -22 -6.66699 -28 -20s-9 -37 -9 -71zM643.001 173
c0 -56 -12.167 -99.668 -36.5 -131.001s-59.166 -47 -104.499 -47c-44.667 0 -79.5 15 -104.5 45s-37.5 73 -37.5 129c0 56.667 12.5 100.5 37.5 131.5s59.833 46.5 104.5 46.5c45.333 0 80.166 -14.667 104.499 -44s36.5 -72.666 36.5 -129.999zM465.001 170.999
c0 -34 3.5 -57.667 10.5 -71s16.167 -20 27.5 -20c12 0 21 6.66699 27 20s9 37 9 71s-3 57.667 -9 71s-15.333 20 -28 20c-12 0 -21.167 -6.66699 -27.5 -20s-9.5 -37 -9.5 -71z" />
    <glyph glyph-name="ampersand" unicode="&#x26;" horiz-adv-x="747" 
d="M678 0c-28 0 -54.8311 4.50391 -80.498 13.5039s-51.834 21.833 -78.501 38.5c-26 -19.333 -55.833 -34.666 -89.5 -45.999s-71.5 -17 -113.5 -17c-43.333 0 -82.166 4.83301 -116.499 14.5s-63.333 23.5 -87 41.5s-41.834 39.667 -54.501 65s-19 54 -19 86
c0 46 12 83.5 36 112.5s55.667 51.833 95 68.5c-23.333 30 -40 58.667 -50 86s-15 55.333 -15 84c0 24.667 4.5 48 13.5 70s22.5 41.167 40.5 57.5s40.667 29.166 68 38.499s59.333 14 96 14s69.334 -4.66699 98.001 -14s52.5 -22.333 71.5 -39s33.5 -36 43.5 -58
s15 -45.667 15 -71c0 -23.333 -3.83301 -44.333 -11.5 -63s-18.334 -35.834 -32.001 -51.501s-29.834 -29.834 -48.501 -42.501s-39 -24.334 -61 -35.001l95 -91l21 -20c11.333 23.333 20 48.166 26 74.499s10.667 52.166 14 77.499l125 -29
c-3.33301 -35.333 -10.5 -71.166 -21.5 -107.499s-26.5 -70.833 -46.5 -103.5c14 -10 27.5 -17.333 40.5 -22s27.5 -7 43.5 -7c14.667 0 30.667 2 48 6l-16 -124c-10.667 -4.66699 -27 -7 -49 -7zM323.002 111.004c35.333 0 66.667 7.33203 94 21.999l-32 29l-33 32
l-108 105c-16 -10 -29.167 -22.167 -39.5 -36.5s-15.5 -33.166 -15.5 -56.499c0 -19.333 4 -35 12 -47s18.5 -21.667 31.5 -29s27.333 -12.333 43 -15s31.5 -4 47.5 -4zM259.003 546.003c0 -24 6 -45.333 18 -64s26.667 -36.667 44 -54c26.667 16.667 46 34.5 58 53.5
s18 40.833 18 65.5c0 22.667 -6 40.5 -18 53.5s-29.333 19.5 -52 19.5c-24 0 -41.333 -7 -52 -21s-16 -31.667 -16 -53z" />
    <glyph glyph-name="quotesingle" unicode="'" horiz-adv-x="239" 
d="M44 716h151l-19 -277h-113z" />
    <glyph glyph-name="parenleft" unicode="(" horiz-adv-x="288" 
d="M149 -139c-40 54 -71.001 119 -93.001 195s-33 159.667 -33 251c0 45.333 2.5 89.666 7.5 132.999s12.5 84.333 22.5 123s23 74.334 39 107.001s35 61.334 57 86.001h152c-41.333 -54 -72.166 -119 -92.499 -195s-30.5 -159.667 -30.5 -251
c0 -180.667 41 -330.334 123 -449.001h-152z" />
    <glyph glyph-name="parenright" unicode=")" horiz-adv-x="288" 
d="M139.009 -139c39.998 54 70.9961 119 92.9951 195c21.998 76 32.9971 159.667 32.9971 251c0 45.333 -2.5 89.666 -7.49902 132.999c-5 43.333 -12.5 84.333 -22.499 123s-22.998 74.334 -38.9971 107.001s-34.998 61.334 -56.9971 86.001h-151.99
c41.3311 -54 72.1621 -119 92.4941 -195s30.498 -159.667 30.498 -251c0 -180.667 -40.9971 -330.334 -122.992 -449.001h151.99z" />
    <glyph glyph-name="asterisk" unicode="*" horiz-adv-x="472" 
d="M237 436l-60 -121l-110 83l91 92l-124 17l42 135l113 -60l-23 134h141l-24 -134l114 60l41 -135l-124 -17l92 -92l-109 -83z" />
    <glyph glyph-name="plus" unicode="+" 
d="M338 282v-210h-119v210h-194v110h194v210h119v-210h194v-110h-194z" />
    <glyph glyph-name="comma" unicode="," horiz-adv-x="257" 
d="M29 -114c13.333 13.333 25.8311 31.334 37.498 54.001s21.167 45.667 28.5 69c-24 7.33301 -41.167 18.833 -51.5 34.5s-15.5 32.5 -15.5 50.5c0 26.667 9.33301 49 28 67s42.334 27 71.001 27c30.667 0 55.334 -9.16699 74.001 -27.5s28 -45.833 28 -82.5
c0 -20 -3 -39.5 -9 -58.5s-13.5 -36.833 -22.5 -53.5s-19 -31.834 -30 -45.501s-21.5 -25.167 -31.5 -34.5h-107z" />
    <glyph glyph-name="hyphen" unicode="-" horiz-adv-x="349" 
d="M49 371h252v-125h-252v125z" />
    <glyph glyph-name="period" unicode="." horiz-adv-x="257" 
d="M128 -7c-14 0 -27.167 2.66699 -39.5 8s-23 12.5 -32 21.5s-16 19.333 -21 31s-7.5 24.167 -7.5 37.5s2.5 25.833 7.5 37.5s12 22 21 31s19.667 16 32 21s25.5 7.5 39.5 7.5s27.167 -2.5 39.5 -7.5s23 -12 32 -21s16.167 -19.333 21.5 -31s8 -24.167 8 -37.5
s-2.66699 -25.833 -8 -37.5s-12.5 -22 -21.5 -31s-19.667 -16.167 -32 -21.5s-25.5 -8 -39.5 -8z" />
    <glyph glyph-name="slash" unicode="/" horiz-adv-x="434" 
d="M0 -120l307 876h127l-308 -876h-126z" />
    <glyph glyph-name="zero" unicode="0" 
d="M280 -10c-37.333 0 -71.5 6.83105 -102.5 20.498s-57.833 35.334 -80.5 65.001s-40.167 67.834 -52.5 114.501s-18.5 103 -18.5 169c0 65.333 6.16699 121.166 18.5 167.499s29.833 84.333 52.5 114s49.5 51.334 80.5 65.001s65.167 20.5 102.5 20.5
c36.667 0 70.5 -6.83301 101.5 -20.5s57.5 -35.167 79.5 -64.5s39.167 -67 51.5 -113s18.5 -101.667 18.5 -167s-6.16699 -121.5 -18.5 -168.5s-29.5 -85.5 -51.5 -115.5s-48.5 -52 -79.5 -66s-64.833 -21 -101.5 -21zM278 112.998c16 0 29.8311 3.83301 41.498 11.5
s21.5 21 29.5 40s13.833 44.167 17.5 75.5s5.5 70.666 5.5 117.999c0 46.667 -1.83301 85.667 -5.5 117s-9.16699 56.5 -16.5 75.5s-16.833 32.5 -28.5 40.5s-25.5 12 -41.5 12s-30 -4 -42 -12s-22 -21.5 -30 -40.5s-13.833 -44.167 -17.5 -75.5s-5.5 -70.333 -5.5 -117
c0 -47.333 1.83301 -86.666 5.5 -117.999s9.33398 -56.5 17.001 -75.5s17.334 -32.333 29.001 -40s25.5 -11.5 41.5 -11.5z" />
    <glyph glyph-name="one" unicode="1" 
d="M261 0v556l-193 -150v147l209 163h144v-716h-160z" />
    <glyph glyph-name="two" unicode="2" 
d="M32 0l-0.00292969 142.999c62.667 44.667 114.834 84.167 156.501 118.5s74.834 65.333 99.501 93s42.167 53 52.5 76s15.5 45.167 15.5 66.5c0 34 -10.333 60.5 -31 79.5s-52.667 28.5 -96 28.5c-35.333 0 -66.666 -4.83301 -93.999 -14.5
s-49.666 -21.167 -66.999 -34.5l-20 121c20 12 45.667 23.167 77 33.5s71.666 15.5 120.999 15.5c86 0 152.5 -19.667 199.5 -59s70.5 -95 70.5 -167c0 -32 -6.5 -62.167 -19.5 -90.5s-32.667 -57.166 -59 -86.499s-60 -60 -101 -92s-89.5 -67.333 -145.5 -106h319v-125
h-478z" />
    <glyph glyph-name="three" unicode="3" 
d="M228 -10c-46 0 -86.3311 4.66895 -120.998 14.002s-61.667 19.333 -81 30l31 121c17.333 -8.66699 39.666 -18.167 66.999 -28.5s59.333 -15.5 96 -15.5c90.667 0 136 33.333 136 100c0 64.667 -45.333 97 -136 97h-87v124h92c32 0 57.833 7.5 77.5 22.5
s29.5 37.167 29.5 66.5c0 26.667 -9.66699 47.334 -29 62.001s-47.666 22 -84.999 22c-38 0 -70 -4.66699 -96 -14s-46.333 -18.333 -61 -27l-21 118c17.333 10 41.5 19.833 72.5 29.5s70.167 14.5 117.5 14.5c40.667 0 77 -4.66699 109 -14s59 -22.5 81 -39.5
s38.667 -37.333 50 -61s17 -49.834 17 -78.501c0 -21.333 -3.83301 -40.833 -11.5 -58.5s-18 -33.167 -31 -46.5s-27.667 -24.333 -44 -33s-33.5 -15 -51.5 -19c22 -3.33301 43 -9.5 63 -18.5s37.833 -20.833 53.5 -35.5s28 -31.834 37 -51.501s13.5 -41.834 13.5 -66.501
c0 -32.667 -6.66699 -62.167 -20 -88.5s-32.333 -48.833 -57 -67.5s-54.834 -33 -90.501 -43s-75.834 -15 -120.501 -15z" />
    <glyph glyph-name="four" unicode="4" 
d="M310 512l-150 -242h150v242zM465 151v-151h-155v151h-284v115l280 450h159v-446h73v-119h-73z" />
    <glyph glyph-name="five" unicode="5" 
d="M222 -10c-48.667 0 -88.1689 4.33496 -118.502 13.002s-55.833 19 -76.5 31l31 121c8 -4.66699 17.667 -9.66699 29 -15s23.833 -10.166 37.5 -14.499s28.334 -7.83301 44.001 -10.5s31.5 -4 47.5 -4c44.667 0 79.167 11.333 103.5 34s36.5 52 36.5 88
c0 15.333 -1.83301 29.666 -5.5 42.999s-9.66699 25 -18 35s-19.333 18 -33 24s-30.5 9 -50.5 9c-22 0 -40.667 -3.5 -56 -10.5s-26.666 -15.5 -33.999 -25.5h-115v408h440v-125h-303v-160c12 9.33301 27.333 17.166 46 23.499s41.667 9.5 69 9.5
c70.667 0 125 -20.167 163 -60.5s57 -94.833 57 -163.5c0 -36.667 -7 -70.334 -21 -101.001s-34 -57 -60 -79s-57 -39.167 -93 -51.5s-76 -18.5 -120 -18.5z" />
    <glyph glyph-name="six" unicode="6" 
d="M283 -10c-36 0 -69.502 4.83594 -100.502 14.5029s-58.167 25.834 -81.5 48.501s-41.666 52.667 -54.999 90s-20 83.666 -20 138.999c0 53.333 7.83301 103.166 23.5 149.499s35.834 88.166 60.501 125.499s52.167 69.5 82.5 96.5s59.833 47.833 88.5 62.5h202v-9
c-30 -15.333 -59.333 -32.333 -88 -51s-55.167 -39.667 -79.5 -63s-45.833 -49 -64.5 -77s-33 -59.333 -43 -94c8 8.66699 16 16.5 24 23.5s17 13 27 18s21.5 8.83301 34.5 11.5s28.167 4 45.5 4c25.333 0 49.833 -4.33301 73.5 -13s44.667 -22.334 63 -41.001
s33 -43 44 -73s16.5 -66.333 16.5 -109c0 -43.333 -6.83301 -80.833 -20.5 -112.5s-32 -58 -55 -79s-49.833 -36.5 -80.5 -46.5s-63 -15 -97 -15zM283.998 109.003c28.667 0 51.833 10.1689 69.5 30.502s26.5 54.166 26.5 101.499c0 44 -7.83301 75.167 -23.5 93.5
s-37.5 27.5 -65.5 27.5c-21.333 0 -40.333 -3.5 -57 -10.5s-32.667 -19.167 -48 -36.5c-0.666992 -4.66699 -1 -9.33398 -1 -14.001v-15c0 -38 2.5 -68.5 7.5 -91.5s11.833 -40.833 20.5 -53.5s19 -21.167 31 -25.5s25.333 -6.5 40 -6.5z" />
    <glyph glyph-name="seven" unicode="7" 
d="M93 0l251 589h-311v127h492v-80l-264 -636h-168z" />
    <glyph glyph-name="eight" unicode="8" 
d="M281 -10c-38 0 -72.501 4.50098 -103.501 13.501s-57.833 22 -80.5 39s-40.167 37.667 -52.5 62s-18.5 52.166 -18.5 83.499c0 45.333 12.5 83.5 37.5 114.5s59.167 53.833 102.5 68.5c-36 13.333 -64.833 34 -86.5 62s-32.5 63 -32.5 105c0 30 5.83301 56.667 17.5 80
s28 43 49 59s45.667 28.167 74 36.5s59.5 12.5 93.5 12.5c32.667 0 63.334 -4 92.001 -12s53.334 -19.833 74.001 -35.5s37 -35 49 -58s18 -49.833 18 -80.5c0 -42.667 -10.833 -78.167 -32.5 -106.5s-50.834 -49.166 -87.501 -62.499c42 -14 75.5 -36.333 100.5 -67
s37.5 -68.334 37.5 -113.001c0 -31.333 -6.16699 -59.5 -18.5 -84.5s-29.666 -46.167 -51.999 -63.5s-48.833 -30.5 -79.5 -39.5s-64.334 -13.5 -101.001 -13.5zM280.999 429.001c23.333 0 42 7.5 56 22.5s21 36.5 21 64.5c0 28.667 -7 50.667 -21 66s-32.667 23 -56 23
c-24 0 -43.167 -7.66699 -57.5 -23s-21.5 -37.333 -21.5 -66c0 -28 7.16699 -49.5 21.5 -64.5s33.5 -22.5 57.5 -22.5zM280.999 111.001c26.667 0 48.167 8.66699 64.5 26s24.5 42.666 24.5 75.999s-8.16699 58.666 -24.5 75.999s-37.833 26 -64.5 26
c-28.667 0 -51.334 -8.66699 -68.001 -26s-25 -42.666 -25 -75.999s8.33301 -58.666 25 -75.999s39.334 -26 68.001 -26z" />
    <glyph glyph-name="nine" unicode="9" 
d="M274 727c32.667 0 64.502 -4.83203 95.502 -14.499s58.5 -25.834 82.5 -48.501s43.167 -52.834 57.5 -90.501s21.5 -84.167 21.5 -139.5c0 -56 -7.5 -107.167 -22.5 -153.5s-34 -87.5 -57 -123.5s-48.333 -67.167 -76 -93.5s-54.5 -47.5 -80.5 -63.5h-203v9
c24.667 16 50.5 34 77.5 54s52.5 42 76.5 66s45.167 49.833 63.5 77.5s31.5 57.167 39.5 88.5c-8 -8.66699 -16 -16.667 -24 -24s-17 -13.5 -27 -18.5s-21.5 -8.83301 -34.5 -11.5s-28.167 -4 -45.5 -4c-25.333 0 -49.833 4.33301 -73.5 13s-44.667 22.334 -63 41.001
s-33 43 -44 73s-16.5 66.333 -16.5 109c0 43.333 7 80.833 21 112.5s32.667 58 56 79s50.166 36.667 80.499 47s62.166 15.5 95.499 15.5zM273.002 607.001c-28.667 0 -51.833 -10.1689 -69.5 -30.502s-26.5 -54.166 -26.5 -101.499c0 -43.333 7.83301 -74.166 23.5 -92.499
s37.5 -27.5 65.5 -27.5c21.333 0 40.333 3.33301 57 10s32.667 18.667 48 36c0.666992 4.66699 1 9.5 1 14.5v15.5c0 37.333 -2.5 67.5 -7.5 90.5s-11.833 40.833 -20.5 53.5s-19 21.167 -31 25.5s-25.333 6.5 -40 6.5z" />
    <glyph glyph-name="colon" unicode=":" horiz-adv-x="288" 
d="M144 376c-14 0 -27.167 2.66699 -39.5 8s-23 12.5 -32 21.5s-16 19.333 -21 31s-7.5 24.167 -7.5 37.5s2.5 25.833 7.5 37.5s12 22 21 31s19.667 16 32 21s25.5 7.5 39.5 7.5s27.167 -2.5 39.5 -7.5s23 -12 32 -21s16.167 -19.333 21.5 -31s8 -24.167 8 -37.5
s-2.66699 -25.833 -8 -37.5s-12.5 -22 -21.5 -31s-19.667 -16.167 -32 -21.5s-25.5 -8 -39.5 -8zM144 -7c-14 0 -27.167 2.66699 -39.5 8s-23 12.5 -32 21.5s-16 19.333 -21 31s-7.5 24.167 -7.5 37.5s2.5 25.833 7.5 37.5s12 22 21 31s19.667 16 32 21s25.5 7.5 39.5 7.5
s27.167 -2.5 39.5 -7.5s23 -12 32 -21s16.167 -19.333 21.5 -31s8 -24.167 8 -37.5s-2.66699 -25.833 -8 -37.5s-12.5 -22 -21.5 -31s-19.667 -16.167 -32 -21.5s-25.5 -8 -39.5 -8z" />
    <glyph glyph-name="semicolon" unicode=";" horiz-adv-x="288" 
d="M45 -114c13.333 13.333 25.8311 31.334 37.498 54.001s21.167 45.667 28.5 69c-24 7.33301 -41.167 18.833 -51.5 34.5s-15.5 32.5 -15.5 50.5c0 26.667 9.33301 49 28 67s42.334 27 71.001 27c30.667 0 55.334 -9.16699 74.001 -27.5s28 -45.833 28 -82.5
c0 -20 -3 -39.5 -9 -58.5s-13.5 -36.833 -22.5 -53.5s-19 -31.834 -30 -45.501s-21.5 -25.167 -31.5 -34.5h-107zM143.998 376.001c-14 0 -27.167 2.66699 -39.5 8s-23 12.5 -32 21.5s-16 19.333 -21 31s-7.5 24.167 -7.5 37.5s2.5 25.833 7.5 37.5s12 22 21 31
s19.667 16 32 21s25.5 7.5 39.5 7.5s27.167 -2.5 39.5 -7.5s23 -12 32 -21s16.167 -19.333 21.5 -31s8 -24.167 8 -37.5s-2.66699 -25.833 -8 -37.5s-12.5 -22 -21.5 -31s-19.667 -16.167 -32 -21.5s-25.5 -8 -39.5 -8z" />
    <glyph glyph-name="less" unicode="&#x3c;" 
d="M59 272v130l439 200v-120l-319 -145l319 -145v-120z" />
    <glyph glyph-name="equal" unicode="=" 
d="M25 397v110h507v-110h-507zM25 167v110h507v-110h-507z" />
    <glyph glyph-name="greater" unicode="&#x3e;" 
d="M58 192l320 145l-320 145v120l439 -200v-130l-439 -200v120z" />
    <glyph glyph-name="question" unicode="?" horiz-adv-x="470" 
d="M446 534c0 -22 -2.66602 -41.333 -7.99902 -58s-12.333 -31.167 -21 -43.5s-18.5 -23.333 -29.5 -33s-21.833 -18.5 -32.5 -26.5c-14 -10 -27 -18.833 -39 -26.5s-22.667 -15.5 -32 -23.5s-16.666 -16.5 -21.999 -25.5s-8 -19.5 -8 -31.5v-31h-143v30
c0 28 3.5 51.833 10.5 71.5s15.5 36.167 25.5 49.5s20.833 24.5 32.5 33.5l32.5 24.5c19.333 14 35.833 27.167 49.5 39.5s20.5 28.5 20.5 48.5c0 21.333 -7.33301 38.5 -22 51.5s-40 19.5 -76 19.5c-24.667 0 -47.5 -2.66699 -68.5 -8s-38.167 -11.666 -51.5 -18.999
l-27 120c16.667 7.33301 38.667 14.166 66 20.499s58.666 9.5 93.999 9.5c83.333 0 145.666 -17 186.999 -51s62 -81 62 -141zM184.001 -7c-14 0 -27 2.66699 -39 8s-22.5 12.5 -31.5 21.5s-16.167 19.333 -21.5 31s-8 24.167 -8 37.5s2.66699 25.833 8 37.5
s12.5 22 21.5 31s19.5 16 31.5 21s25 7.5 39 7.5s27.333 -2.5 40 -7.5s23.5 -12 32.5 -21s16.167 -19.333 21.5 -31s8 -24.167 8 -37.5s-2.66699 -25.833 -8 -37.5s-12.5 -22 -21.5 -31s-19.833 -16.167 -32.5 -21.5s-26 -8 -40 -8z" />
    <glyph glyph-name="at" unicode="@" horiz-adv-x="1005" 
d="M511 -198c-66 0 -127.838 9.33008 -185.505 27.9971s-107.667 46.5 -150 83.5s-75.666 83.333 -99.999 139s-36.5 120.167 -36.5 193.5c0 70.667 12.5 135.334 37.5 194.001s59.833 109.167 104.5 151.5s97.834 75.333 159.501 99s128.834 35.5 201.501 35.5
c64 0 124 -9.16699 180 -27.5s104.833 -44.5 146.5 -78.5s74.667 -75.5 99 -124.5s36.5 -104.167 36.5 -165.5c0 -42 -4.5 -81.167 -13.5 -117.5s-22.333 -68.166 -40 -95.499s-40 -48.833 -67 -64.5s-58.5 -23.5 -94.5 -23.5c-30.667 0 -56.834 3.33301 -78.501 10
s-39.667 15.5 -54 26.5s-25.5 23.833 -33.5 38.5s-13.667 30 -17 46c-17.333 -40 -41.166 -70.167 -71.499 -90.5s-64.166 -30.5 -101.499 -30.5c-21.333 0 -42.333 3.83301 -63 11.5s-39.167 19.834 -55.5 36.501s-29.5 38.167 -39.5 64.5s-15 58.5 -15 96.5
c0 34.667 5.33301 68 16 100s25.834 60.333 45.501 85s43 44.5 70 59.5s56.833 22.5 89.5 22.5s61 -8.5 85 -25.5s41.667 -43.833 53 -80.5l28 76h122l-31 -243c-9.33301 -73.333 9.66699 -110 57 -110c18.667 0 34.334 5.16699 47.001 15.5s23 24.5 31 42.5
s13.667 38.833 17 62.5s5 48.834 5 75.501c0 52 -9 97.833 -27 137.5s-42.833 73 -74.5 100s-69 47.333 -112 61s-89.5 20.5 -139.5 20.5c-54.667 0 -105.5 -8.83301 -152.5 -26.5s-87.833 -43 -122.5 -76s-62 -73 -82 -120s-30 -99.833 -30 -158.5
c0 -60.667 8.66699 -113.834 26 -159.501s41.833 -83.667 73.5 -114s70 -53.166 115 -68.499s95.167 -23 150.5 -23c22.667 0 44.667 1.5 66 4.5s41.166 6.83301 59.499 11.5s34.5 9.66699 48.5 15s25.667 10.333 35 15l18 -88c-8 -4 -20 -8.83301 -36 -14.5
s-34.5 -10.834 -55.5 -15.501s-43.833 -8.66699 -68.5 -12s-50 -5 -76 -5zM399.995 232.997c0 -20 2.33398 -36.668 7.00098 -50.001s11 -24 19 -32s17 -13.667 27 -17s20 -5 30 -5c18.667 0 35.334 4.5 50.001 13.5s27 21 37 36s17.667 32.5 23 52.5s8 41 8 63
c0 20.667 -2.33301 37.834 -7 51.501s-10.834 24.667 -18.501 33s-16.334 14.333 -26.001 18s-19.5 5.5 -29.5 5.5c-20.667 0 -38.5 -5 -53.5 -15s-27.5 -23 -37.5 -39s-17.333 -34 -22 -54s-7 -40.333 -7 -61z" />
    <glyph glyph-name="A" unicode="A" horiz-adv-x="686" 
d="M332 558l-90 -270h179zM462 164h-261l-55 -164h-136l241 716h184l240 -716h-159z" />
    <glyph glyph-name="B" unicode="B" horiz-adv-x="653" 
d="M222 586v-152h93c32 0 58.333 6.33301 79 19s31 32.667 31 60c0 29.333 -9 48.833 -27 58.5s-43.333 14.5 -76 14.5h-100zM222 304v-174.001h108c38 0 68.667 6.5 92 19.5s35 36.5 35 70.5c0 30.667 -11.167 52.334 -33.5 65.001s-56.5 19 -102.5 19h-99zM66 715.999
l226.999 -0.00195312c94.667 0 166.667 -13.167 216 -39.5s74 -71.166 74 -134.499c0 -25.333 -3.83301 -47.5 -11.5 -66.5s-18.667 -35.333 -33 -49s-31.5 -24.834 -51.5 -33.501s-42.333 -15.334 -67 -20.001c65.333 -6.66699 115 -22.667 149 -48s51 -64.666 51 -117.999
c0 -37.333 -8.16699 -69.166 -24.5 -95.499s-38.666 -47.666 -66.999 -63.999s-62 -28.333 -101 -36s-81.167 -11.5 -126.5 -11.5h-235v716z" />
    <glyph glyph-name="C" unicode="C" horiz-adv-x="649" 
d="M416 -10c-58.667 0 -111.502 8.49902 -158.502 25.499s-87 41.333 -120 73s-58.5 70.167 -76.5 115.5s-27 96.666 -27 153.999c0 56.667 9.16699 107.834 27.5 153.501s44 84.334 77 116.001s72.333 56 118 73s95.834 25.5 150.501 25.5c50 0 91.667 -4.33301 125 -13
s58.333 -17.667 75 -27l-22 -127c-20 10 -43.833 18.667 -71.5 26s-59.5 11 -95.5 11c-70 0 -124 -20.167 -162 -60.5s-57 -99.5 -57 -177.5c0 -158.667 74.333 -238 223 -238c30 0 57.333 3.5 82 10.5s47.334 16.833 68.001 29.5l40 -121
c-17.333 -12 -42.333 -23.167 -75 -33.5s-73 -15.5 -121 -15.5z" />
    <glyph glyph-name="D" unicode="D" horiz-adv-x="731" 
d="M226 586l0.00195312 -456h85c32.667 0 62.667 4.66699 90 14s50.666 23.666 69.999 42.999s34.5 43.833 45.5 73.5s16.5 65.167 16.5 106.5c0 42.667 -5.33301 78.167 -16 106.5s-25.5 50.833 -44.5 67.5s-41.333 28.334 -67 35.001s-53.834 10 -84.501 10h-95z
M66.002 716h244.998c54.667 0 105.5 -5.66699 152.5 -17s87.833 -30.333 122.5 -57s61.834 -62 81.501 -106s29.5 -98.333 29.5 -163c0 -61.333 -9.83301 -115.333 -29.5 -162s-47.167 -85.667 -82.5 -117s-77.166 -54.833 -125.499 -70.5s-100.833 -23.5 -157.5 -23.5h-236
v716z" />
    <glyph glyph-name="E" unicode="E" horiz-adv-x="588" 
d="M66 716h468v-130h-308v-151h256v-130h-256v-175h313v-130h-473v716z" />
    <glyph glyph-name="F" unicode="F" horiz-adv-x="560" 
d="M226 283v-283h-160v716h462v-130h-302v-172h263v-131h-263z" />
    <glyph glyph-name="G" unicode="G" horiz-adv-x="743" 
d="M711 276c0 -42 -6.66797 -80.5 -20.001 -115.5s-33 -65.167 -59 -90.5s-58.333 -45 -97 -59s-83.334 -21 -134.001 -21c-56.667 0 -107.667 8.5 -153 25.5s-83.666 41.333 -114.999 73s-55.5 70.167 -72.5 115.5s-25.5 96.666 -25.5 153.999
c0 56.667 8.16699 107.834 24.5 153.501s40.5 84.334 72.5 116.001s71.5 56 118.5 73s100.833 25.5 161.5 25.5c58.667 0 107.334 -5.66699 146.001 -17s69.334 -24 92.001 -38l-20 -134c-26.667 16 -56.834 29.833 -90.501 41.5s-72.5 17.5 -116.5 17.5
c-80 0 -137.167 -20.833 -171.5 -62.5s-51.5 -100.167 -51.5 -175.5c0 -76 16.667 -134.667 50 -176s84 -62 152 -62c50.667 0 88.5 12.667 113.5 38s37.5 60.666 37.5 105.999h-181v130h339v-118v0z" />
    <glyph glyph-name="H" unicode="H" horiz-adv-x="742" 
d="M516 292h-290v-292h-160v716h160v-294h290v294h160v-716h-160v292z" />
    <glyph glyph-name="I" unicode="I" horiz-adv-x="292" 
d="M226 716v-716h-160v716h160z" />
    <glyph glyph-name="J" unicode="J" horiz-adv-x="409" 
d="M351 716l0.000976562 -519c0 -32 -4 -60.667 -12 -86s-20.667 -47 -38 -65s-39.333 -31.833 -66 -41.5s-59 -14.5 -97 -14.5c-22.667 0 -44.834 2 -66.501 6s-40.167 9.66699 -55.5 17l27 125c26 -12 51.667 -18 77 -18c28 0 47.5 8 58.5 24s16.5 39.333 16.5 70v502h156
z" />
    <glyph glyph-name="K" unicode="K" horiz-adv-x="661" 
d="M267 290h-41v-290h-160v716h160v-295h52l201 295h163l-241 -352l252 -364h-184z" />
    <glyph glyph-name="L" unicode="L" horiz-adv-x="535" 
d="M66 716h160v-586h278v-130h-438v716z" />
    <glyph glyph-name="M" unicode="M" horiz-adv-x="878" 
d="M206 483v-483h-140v716h206l166 -436l186 436h188v-716h-160v478l-156 -368h-139z" />
    <glyph glyph-name="N" unicode="N" horiz-adv-x="737" 
d="M206 515v-515h-140v716h202l264 -509v509h139v-716h-198z" />
    <glyph glyph-name="O" unicode="O" horiz-adv-x="777" 
d="M388 -10c-49.333 0 -95.5 7.83301 -138.5 23.5s-80.5 38.834 -112.5 69.501s-57.167 68.667 -75.5 114s-27.5 98 -27.5 158s9.16699 113 27.5 159s43.5 84.667 75.5 116s69.5 55.166 112.5 71.499s89.167 24.5 138.5 24.5s95.5 -7.83301 138.5 -23.5
s80.5 -38.834 112.5 -69.501s57.333 -68.667 76 -114s28 -98 28 -158s-9.33301 -113 -28 -159s-44 -84.667 -76 -116s-69.5 -55.166 -112.5 -71.499s-89.167 -24.5 -138.5 -24.5zM388 120c27.333 0 52.5 4.16699 75.5 12.5s43 22 60 41s30.333 43.667 40 74
s14.5 67.166 14.5 110.499s-4.83301 80.166 -14.5 110.499s-23 55 -40 74s-37 32.667 -60 41s-48.167 12.5 -75.5 12.5s-52.5 -4.16699 -75.5 -12.5s-42.833 -22 -59.5 -41s-29.834 -43.667 -39.501 -74s-14.5 -67.166 -14.5 -110.499s4.83301 -80.166 14.5 -110.499
s22.834 -55 39.501 -74s36.5 -32.667 59.5 -41s48.167 -12.5 75.5 -12.5z" />
    <glyph glyph-name="P" unicode="P" horiz-adv-x="611" 
d="M226 586v-215h61c45.333 0 80 8 104 24s36 44.333 36 85c0 70.667 -46.667 106 -140 106h-61zM226 241v-241h-160v716h221c48 0 90.5 -4.33301 127.5 -13s68.333 -22.167 94 -40.5s45.167 -42 58.5 -71s20 -63.833 20 -104.5c0 -42.667 -7 -79.5 -21 -110.5
s-34 -56.5 -60 -76.5s-57.5 -34.833 -94.5 -44.5s-78.5 -14.5 -124.5 -14.5h-61z" />
    <glyph glyph-name="Q" unicode="Q" horiz-adv-x="776" 
d="M690 -154l-221.501 73.0029c-69 23.333 -131.833 47.666 -188.5 72.999c-39.333 18 -74.333 38.167 -105 60.5s-56.5 48.166 -77.5 77.499s-36.833 62.333 -47.5 99s-16 78.667 -16 126c0 60 9 113 27 159s43 84.667 75 116s69.5 55.166 112.5 71.499
s89.5 24.5 139.5 24.5c48.667 0 94.5 -7.83301 137.5 -23.5s80.5 -38.667 112.5 -69s57.333 -68.333 76 -114s28 -98.5 28 -158.5c0 -40 -4 -77.667 -12 -113s-21.167 -67.5 -39.5 -96.5s-42.166 -54.5 -71.499 -76.5s-65.333 -40 -108 -54
c41.333 -9.33301 82 -16.833 122 -22.5s76 -10.5 108 -14.5zM387.999 120.003c27.333 0 52.5 4.16699 75.5 12.5s43 22 60 41s30.333 43.667 40 74s14.5 67.166 14.5 110.499s-4.83301 80.166 -14.5 110.499s-23 55 -40 74s-37 32.667 -60 41s-48.167 12.5 -75.5 12.5
s-52.5 -4.16699 -75.5 -12.5s-42.833 -22 -59.5 -41s-29.834 -43.667 -39.501 -74s-14.5 -67.166 -14.5 -110.499s4.83301 -80.166 14.5 -110.499s22.834 -55 39.501 -74s36.5 -32.667 59.5 -41s48.167 -12.5 75.5 -12.5z" />
    <glyph glyph-name="R" unicode="R" horiz-adv-x="658" 
d="M226 586v-191h89c44 0 77 7 99 21s33 39 33 75c0 35.333 -11 60 -33 74s-55.667 21 -101 21h-87zM297 272l-71 -0.000976562v-272h-160v716h247c98.667 0 172.167 -17.667 220.5 -53s72.5 -92.666 72.5 -171.999c0 -56 -12.167 -99.833 -36.5 -131.5
s-57.833 -54.5 -100.5 -68.5l170 -291h-184z" />
    <glyph glyph-name="S" unicode="S" horiz-adv-x="597" 
d="M270 -10c-28.667 0 -54.5 1.82812 -77.5 5.49512s-43.667 8.5 -62 14.5s-34.833 12.667 -49.5 20s-27.667 14.666 -39 21.999l21 130c10 -7.33301 22.333 -14.666 37 -21.999s31 -14 49 -20s37 -10.833 57 -14.5s40 -5.5 60 -5.5c20.667 0 39.667 1.16699 57 3.5
s32.333 6.33301 45 12s22.5 13.334 29.5 23.001s10.5 21.834 10.5 36.501c0 16.667 -3.83301 30.334 -11.5 41.001s-18.167 19.667 -31.5 27s-29 13.5 -47 18.5s-37.667 9.83301 -59 14.5c-26 6 -52.167 13.333 -78.5 22s-50.166 20.834 -71.499 36.501s-38.833 36 -52.5 61
s-20.5 56.833 -20.5 95.5c0 35.333 7.16699 66.5 21.5 93.5s34.166 49.5 59.499 67.5s55.833 31.5 91.5 40.5s75.167 13.5 118.5 13.5c50.667 0 91.667 -5 123 -15s54.666 -19.667 69.999 -29l-21 -129c-23.333 13.333 -49 23.833 -77 31.5s-59.333 11.5 -94 11.5
c-45.333 0 -79.833 -6 -103.5 -18s-35.5 -30.333 -35.5 -55c0 -14 3.83301 -25.667 11.5 -35s17.834 -17.166 30.501 -23.499s27.5 -11.666 44.5 -15.999s34.5 -8.5 52.5 -12.5c28 -6.66699 56.167 -14.334 84.5 -23.001s53.833 -21 76.5 -37s41 -36.833 55 -62.5
s21 -58.5 21 -98.5c0 -44.667 -8.33301 -81.5 -25 -110.5s-38.834 -52 -66.501 -69s-59.167 -28.833 -94.5 -35.5s-71.666 -10 -108.999 -10z" />
    <glyph glyph-name="T" unicode="T" horiz-adv-x="605" 
d="M382 586v-586h-159v586h-202v130h564v-130h-203z" />
    <glyph glyph-name="U" unicode="U" horiz-adv-x="686" 
d="M54 716l159.999 -0.000976562v-449c0 -50 13 -86.5 39 -109.5s60.667 -34.5 104 -34.5c44 0 77.667 11.5 101 34.5s35 59.5 35 109.5v449h139v-460c0 -85.333 -24.833 -151 -74.5 -197s-118.5 -69 -206.5 -69c-42.667 0 -82.167 5.5 -118.5 16.5
s-67.666 27.5 -93.999 49.5s-47 49.333 -62 82s-22.5 70.334 -22.5 113.001v465z" />
    <glyph glyph-name="V" unicode="V" horiz-adv-x="665" 
d="M6 716h165l168 -543l177 543h143l-233 -716h-187z" />
    <glyph glyph-name="W" unicode="W" horiz-adv-x="960" 
d="M19 716h160l94 -531l133 531h163l132 -524l102 524h138l-139 -716h-194l-127 515l-127 -515h-196z" />
    <glyph glyph-name="X" unicode="X" horiz-adv-x="662" 
d="M314 253l-150 -253h-155l225 365l-221 351h178l154 -247l138 247h155l-214 -356l229 -360h-180z" />
    <glyph glyph-name="Y" unicode="Y" horiz-adv-x="625" 
d="M233 0v300l-229 416h175l143 -276l150 276h149l-228 -417v-299h-160z" />
    <glyph glyph-name="Z" unicode="Z" horiz-adv-x="603" 
d="M34 0v118l346 468h-335v130h523v-119l-347 -467h348v-130h-535z" />
    <glyph glyph-name="bracketleft" unicode="[" horiz-adv-x="288" 
d="M26 756h251v-115h-102v-665h102v-115h-251v895z" />
    <glyph glyph-name="backslash" unicode="\" horiz-adv-x="434" 
d="M0 756h126l308 -876h-127z" />
    <glyph glyph-name="bracketright" unicode="]" horiz-adv-x="288" 
d="M262.002 756h-250.985v-115h101.994v-665h-101.994v-115h250.985v895z" />
    <glyph glyph-name="asciicircum" unicode="^" horiz-adv-x="437" 
d="M219 609l-95 -151h-119l141 258h145l142 -258h-120z" />
    <glyph glyph-name="underscore" unicode="_" horiz-adv-x="416" 
d="M-10 -20h437v-114h-437v114z" />
    <glyph glyph-name="grave" unicode="`" horiz-adv-x="437" 
d="M210 588l-126 158h157l78 -158h-109z" />
    <glyph glyph-name="a" unicode="a" horiz-adv-x="549" 
d="M247 96c25.333 0 45.666 6.16797 60.999 18.501s27 25.5 35 39.5v76h-50c-37.333 0 -64.666 -6.5 -81.999 -19.5s-26 -30.167 -26 -51.5c0 -20.667 5.66699 -36.334 17 -47.001s26.333 -16 45 -16zM358 0.000976562c-1.33301 7.33301 -2.83496 16.8311 -4.50195 28.498
s-3.16699 23.167 -4.5 34.5c-13.333 -19.333 -32.166 -36.333 -56.499 -51s-55.833 -22 -94.5 -22c-21.333 0 -42 3 -62 9s-37.667 15.167 -53 27.5s-27.666 27.833 -36.999 46.5s-14 40.667 -14 66c0 54.667 20.833 97.667 62.5 129s106.834 47 195.501 47h53v13
c0 32 -8.33301 53.333 -25 64s-40 16 -70 16s-58.167 -4.16699 -84.5 -12.5s-50.833 -18.166 -73.5 -29.499l-30 119c24 11.333 54.5 21.5 91.5 30.5s76.833 13.5 119.5 13.5c34.667 0 66 -3.5 94 -10.5s52 -18.167 72 -33.5s35.333 -35.166 46 -59.499s16 -53.5 16 -87.5
v-254c0 -6 0.166992 -12.833 0.5 -20.5l1 -23.5c0.333008 -8 0.666016 -15.5 0.999023 -22.5s0.833008 -12.833 1.5 -17.5h-145z" />
    <glyph glyph-name="b" unicode="b" horiz-adv-x="633" 
d="M376 -10c-40 0 -73.998 8.83398 -101.998 26.501s-50.667 41.5 -68 71.5l-4 -88h-146v716h155l-1 -274c17.333 27.333 39.666 48.666 66.999 63.999s60 23 98 23c31.333 0 60.833 -5.5 88.5 -16.5s52 -27.667 73 -50s37.5 -50.333 49.5 -84s18 -73.167 18 -118.5
c0 -46 -6 -85.833 -18 -119.5s-28.5 -61.667 -49.5 -84s-45.333 -39 -73 -50s-56.834 -16.5 -87.501 -16.5zM328.002 111.001c34 0 61.833 12.333 83.5 37s32.5 62 32.5 112s-10.667 87.167 -32 111.5s-49 36.5 -83 36.5s-62.333 -12.167 -85 -36.5s-34 -61.5 -34 -111.5
c0 -50.667 11.167 -88.167 33.5 -112.5s50.5 -36.5 84.5 -36.5z" />
    <glyph glyph-name="c" unicode="c" horiz-adv-x="515" 
d="M322 -10c-44.667 0 -84.999 6.16797 -120.999 18.501s-66.833 30 -92.5 53s-45.334 51.167 -59.001 84.5s-20.5 71.333 -20.5 114c0 42 6.83301 79.667 20.5 113s33 61.5 58 84.5s54.667 40.667 89 53s72.5 18.5 114.5 18.5c40 0 73.833 -4.33301 101.5 -13
s49.167 -18.334 64.5 -29.001l-29 -113c-17.333 11.333 -36 19.833 -56 25.5s-45.333 8.5 -76 8.5c-38.667 0 -69.5 -12.167 -92.5 -36.5s-34.5 -61.5 -34.5 -111.5s12 -87.333 36 -112s58.667 -37 104 -37c28.667 0 52.334 3.33301 71.001 10s36 14.667 52 24l28 -115
c-15.333 -10.667 -35.833 -20 -61.5 -28s-57.834 -12 -96.501 -12z" />
    <glyph glyph-name="d" unicode="d" horiz-adv-x="633" 
d="M307 111c32.667 0 60.167 12.167 82.5 36.5s33.5 61.833 33.5 112.5c0 50 -10.833 87.167 -32.5 111.5s-49.167 36.5 -82.5 36.5c-34 0 -62.333 -12.5 -85 -37.5s-34 -61.833 -34 -110.5c0 -50 11.167 -87.333 33.5 -112s50.5 -37 84.5 -37zM426 88
c-16.667 -30 -38.6699 -53.832 -66.0029 -71.499s-60.666 -26.5 -99.999 -26.5c-29.333 0 -57.833 5.5 -85.5 16.5s-52.167 27.667 -73.5 50s-38.666 50.333 -51.999 84s-20 73.5 -20 119.5c0 45.333 6.66699 84.833 20 118.5s30.833 61.667 52.5 84s46.334 39 74.001 50
s56.167 16.5 85.5 16.5c38 0 70 -6.83301 96 -20.5s47.667 -32.834 65 -57.501v265h155v-716h-145z" />
    <glyph glyph-name="e" unicode="e" horiz-adv-x="579" 
d="M301 418c-59.333 0 -95.667 -33.001 -109 -99.001h199c0.666992 32.667 -6.83301 57.334 -22.5 74.001s-38.167 25 -67.5 25zM524.999 35.999c-13.333 -8.66699 -29.333 -16.332 -48 -22.999c-16 -6 -36 -11.333 -60 -16s-52.667 -7 -86 -7
c-102.667 0 -178.667 23.667 -228 71s-74 113.666 -74 198.999c0 42 6.5 79.667 19.5 113s31.167 61.5 54.5 84.5s51.666 40.667 84.999 53s70 18.5 110 18.5c40.667 0 77.667 -6.5 111 -19.5s61 -32.5 83 -58.5s37.333 -58.5 46 -97.5s9 -84.833 1 -137.5h-349
c5.33301 -35.333 19.333 -61.833 42 -79.5s58 -26.5 106 -26.5c24.667 0 46.834 1.83301 66.501 5.5s36.167 8.16699 49.5 13.5c16 6 29.667 12.667 41 20z" />
    <glyph glyph-name="f" unicode="f" horiz-adv-x="423" 
d="M252 398l-0.000976562 -397.999h-155v398h-60v121h60v4c0 32 5.33301 60.5 16 85.5s25.834 46.167 45.501 63.5s43 30.666 70 39.999s56.833 14 89.5 14c24.667 0 44.167 -1.5 58.5 -4.5s26.833 -6.16699 37.5 -9.5l-22 -113c-6.66699 2 -15.334 4 -26.001 6
s-23.667 3 -39 3c-23.333 0 -41.666 -6.66699 -54.999 -20s-20 -35 -20 -65v-4h140v-121h-140z" />
    <glyph glyph-name="g" unicode="g" horiz-adv-x="622" 
d="M304 142c32 0 58.334 10.832 79.001 32.499s31 54.834 31 99.501c0 45.333 -10.333 79 -31 101s-47.334 33 -80.001 33c-32 0 -59 -11.167 -81 -33.5s-33 -55.833 -33 -100.5c0 -44 11 -77 33 -99s49.333 -33 82 -33zM268.001 -179.001
c-46 0 -87.3311 3.82812 -123.998 11.4951s-66.334 17.834 -89.001 30.501l31 124c16 -10.667 39.833 -20.834 71.5 -30.501s68.5 -14.5 110.5 -14.5c48.667 0 85 9.33301 109 28s36 50.667 36 96v44c-16 -26 -37 -46.667 -63 -62s-57.333 -23.333 -94 -24
c-30 0 -58.667 5 -86 15s-51.5 25.5 -72.5 46.5s-37.667 47.167 -50 78.5s-18.5 68 -18.5 110c0 42.667 6.33301 79.834 19 111.501s29.5 58.167 50.5 79.5s45.333 37.333 73 48s56.5 16 86.5 16c38 0 70.167 -7.5 96.5 -22.5s47.5 -36.167 63.5 -63.5
c0.666992 12.667 2 26.334 4 41.001s4 26.334 6 35.001h145c-1.33301 -9.33301 -2.5 -22.666 -3.5 -39.999s-1.5 -31.666 -1.5 -42.999v-362c0 -39.333 -5.83301 -74.5 -17.5 -105.5s-29.667 -57.5 -54 -79.5s-55.333 -38.833 -93 -50.5s-82.834 -17.5 -135.501 -17.5z" />
    <glyph glyph-name="h" unicode="h" horiz-adv-x="600" 
d="M321 408c-24.667 0 -46.335 -4.49902 -65.002 -13.499s-33.667 -20.5 -45 -34.5v-360h-155v716h155v-182l-1 -89h1c15.333 23.333 35.833 43.166 61.5 59.499s58.834 24.5 99.501 24.5c24.667 0 47.834 -3.5 69.501 -10.5s40.5 -17.333 56.5 -31s28.5 -31 37.5 -52
s13.5 -45.5 13.5 -73.5v-362h-155v346c0 22.667 -6.5 38.667 -19.5 48s-30.833 14 -53.5 14z" />
    <glyph glyph-name="i" unicode="i" horiz-adv-x="269" 
d="M134 568c-13.333 0 -25.499 2.33398 -36.499 7.00098s-20.833 11.167 -29.5 19.5s-15.334 18 -20.001 29s-7 22.5 -7 34.5c0 25.333 9 46.5 27 63.5s40 25.5 66 25.5c12.667 0 24.667 -2.33301 36 -7s21.333 -11 30 -19s15.5 -17.333 20.5 -28s7.5 -22.334 7.5 -35.001
c0 -12 -2.5 -23.5 -7.5 -34.5s-11.833 -20.667 -20.5 -29s-18.667 -14.833 -30 -19.5s-23.333 -7 -36 -7zM212.001 519.001v-519h-155v519h155z" />
    <glyph glyph-name="j" unicode="j" horiz-adv-x="273" 
d="M139 568c-12.667 0 -24.667 2.33398 -36 7.00098s-21.333 11.167 -30 19.5s-15.5 18 -20.5 29s-7.5 22.5 -7.5 34.5c0 25.333 9.33301 46.5 28 63.5s40.667 25.5 66 25.5c12.667 0 24.834 -2.33301 36.501 -7s21.834 -11 30.501 -19s15.5 -17.333 20.5 -28
s7.5 -22.334 7.5 -35.001c0 -12 -2.5 -23.5 -7.5 -34.5s-11.833 -20.667 -20.5 -29s-18.834 -14.833 -30.501 -19.5s-23.834 -7 -36.501 -7zM-30 -65.999c34 0 58 10.668 72 32.001s21 49 21 83v470h155v-490c0 -34.667 -5.5 -65.334 -16.5 -92.001
s-26.333 -49.167 -46 -67.5s-43.5 -32.333 -71.5 -42s-59 -14.5 -93 -14.5z" />
    <glyph glyph-name="k" unicode="k" horiz-adv-x="566" 
d="M254 196h-43v-196h-155v716h155v-400h44l144 203h152l-174 -246l189 -273h-176z" />
    <glyph glyph-name="l" unicode="l" horiz-adv-x="268" 
d="M211 716v-716h-155v716h155z" />
    <glyph glyph-name="m" unicode="m" horiz-adv-x="899" 
d="M211 0l-154.997 0.00195312v519h146l6 -73h2c14 23.333 33.667 43 59 59s57 24 95 24c35.333 0 66.666 -7.83301 93.999 -23.5s47.333 -39.5 60 -71.5c15.333 28.667 36.833 51.667 64.5 69s60.834 26 99.501 26c23.333 0 45.166 -3.5 65.499 -10.5s38 -17.333 53 -31
s26.667 -30.834 35 -51.501s12.5 -45 12.5 -73v-363h-155v342c0 23.333 -6.33301 40.166 -19 50.499s-28.667 15.5 -48 15.5c-22 0 -40.833 -5 -56.5 -15s-28.834 -22.667 -39.501 -38v-355h-156v346c0 23.333 -6 39.5 -18 48.5s-27.667 13.5 -47 13.5
c-23.333 0 -42.833 -4.5 -58.5 -13.5s-28.834 -20.167 -39.501 -33.5v-361z" />
    <glyph glyph-name="n" unicode="n" horiz-adv-x="600" 
d="M321 408c-24.667 0 -46.334 -4.5 -65.001 -13.5s-33.667 -20.5 -45 -34.5v-360h-155v519h146l6 -73h2c14.667 23.333 35.167 43 61.5 59s59.833 24 100.5 24c24.667 0 47.834 -3.5 69.501 -10.5s40.5 -17.333 56.5 -31s28.5 -31 37.5 -52s13.5 -45.5 13.5 -73.5v-362
h-155v346c0 22.667 -6.5 38.667 -19.5 48s-30.833 14 -53.5 14z" />
    <glyph glyph-name="o" unicode="o" horiz-adv-x="594" 
d="M296 -10c-38 0 -73.167 5.83301 -105.5 17.5s-60.5 29 -84.5 52s-42.833 51.167 -56.5 84.5s-20.5 72 -20.5 116c0 43.333 6.83301 81.833 20.5 115.5s32.5 61.834 56.5 84.501s52.167 39.834 84.5 51.501s67.5 17.5 105.5 17.5s73.333 -5.83301 106 -17.5
s61.167 -28.834 85.5 -51.501s43.333 -50.834 57 -84.501s20.5 -72.167 20.5 -115.5c0 -44 -6.83301 -82.667 -20.5 -116s-32.667 -61.5 -57 -84.5s-52.833 -40.333 -85.5 -52s-68 -17.5 -106 -17.5zM296 109c32 0 58.167 12.167 78.5 36.5s30.5 62.5 30.5 114.5
c0 50 -10.167 87.333 -30.5 112s-46.5 37 -78.5 37c-30.667 0 -56.167 -12.333 -76.5 -37s-30.5 -62 -30.5 -112c0 -52 10.167 -90.167 30.5 -114.5s45.833 -36.5 76.5 -36.5z" />
    <glyph glyph-name="p" unicode="p" horiz-adv-x="633" 
d="M328 111c34 0 61.833 12.333 83.5 37s32.5 62 32.5 112s-10.667 87.167 -32 111.5s-49 36.5 -83 36.5s-62.333 -12.167 -85 -36.5s-34 -61.5 -34 -111.5c0 -50.667 11.167 -88.167 33.5 -112.5s50.5 -36.5 84.5 -36.5zM376 -10c-38.667 0 -71.5 8 -98.5 24
s-49.167 38 -66.5 66v-257h-155v696h146l6 -80c17.333 28 39.833 50 67.5 66s60.834 24 99.501 24c31.333 0 60.833 -5.5 88.5 -16.5s52 -27.667 73 -50s37.5 -50.333 49.5 -84s18 -73.167 18 -118.5c0 -46 -6 -85.833 -18 -119.5s-28.5 -61.667 -49.5 -84
s-45.333 -39 -73 -50s-56.834 -16.5 -87.501 -16.5z" />
    <glyph glyph-name="q" unicode="q" horiz-adv-x="633" 
d="M422 -177l-0.00390625 257.996c-17.333 -28 -39.333 -50.167 -66 -66.5s-58.667 -24.5 -96 -24.5c-29.333 0 -57.833 5.5 -85.5 16.5s-52.167 27.667 -73.5 50s-38.666 50.333 -51.999 84s-20 73.5 -20 119.5c0 45.333 6.66699 84.833 20 118.5s30.833 61.667 52.5 84
s46.334 39 74.001 50s56.167 16.5 85.5 16.5c40 0 73.5 -7.5 100.5 -22.5s48.833 -36.167 65.5 -63.5c0.666992 12.667 1.83398 26.334 3.50098 41.001s3.83398 26.334 6.50098 35.001h145c-1.33301 -9.33301 -2.5 -22.666 -3.5 -39.999s-1.5 -31.666 -1.5 -42.999v-613
h-155zM306.996 110.996c32.667 0 60.167 12.167 82.5 36.5s33.5 61.833 33.5 112.5c0 50 -10.833 87.167 -32.5 111.5s-49.167 36.5 -82.5 36.5c-34 0 -62.333 -12.5 -85 -37.5s-34 -61.833 -34 -110.5c0 -50 11.167 -87.333 33.5 -112s50.5 -37 84.5 -37z" />
    <glyph glyph-name="r" unicode="r" horiz-adv-x="411" 
d="M388 373c-16 2.66699 -31.667 4 -47 4c-20 0 -42.167 -3.66699 -66.5 -11s-45.5 -20.333 -63.5 -39v-327h-155v519h146l6 -103h2c19.333 36 44.333 63.5 75 82.5s65 29.167 103 30.5v-156z" />
    <glyph glyph-name="s" unicode="s" horiz-adv-x="474" 
d="M236 -7c-52 0 -94.6709 5 -128.004 15s-57.333 20.667 -72 32l27 112c16 -12 38.667 -22.667 68 -32s63 -14 101 -14c49.333 0 74 15.667 74 47c0 10.667 -3 19 -9 25s-14.167 10.5 -24.5 13.5s-22.166 5.16699 -35.499 6.5s-27.333 3 -42 5
c-19.333 2.66699 -38.333 7.16699 -57 13.5s-35.5 15.333 -50.5 27s-27.167 26.834 -36.5 45.501s-14 42 -14 70c0 52.667 18 93.667 54 123s88 44 156 44c42 0 78.167 -3.66699 108.5 -11s51.833 -14.666 64.5 -21.999l-31 -105c-12.667 7.33301 -30.667 13.5 -54 18.5
s-50 7.5 -80 7.5c-32 0 -53.833 -3.33301 -65.5 -10s-17.5 -16.667 -17.5 -30c0 -10 3.16699 -17.5 9.5 -22.5s14.833 -9 25.5 -12s22.834 -5.16699 36.501 -6.5s28.167 -3 43.5 -5c18 -2.66699 36.333 -6.83398 55 -12.501s35.834 -14.334 51.501 -26.001
s28.334 -27.167 38.001 -46.5s14.5 -44 14.5 -74c0 -32.667 -6 -60.167 -18 -82.5s-27.833 -40.5 -47.5 -54.5s-42.167 -24 -67.5 -30s-51 -9 -77 -9z" />
    <glyph glyph-name="t" unicode="t" horiz-adv-x="406" 
d="M382 16c-14.667 -7.33301 -33.166 -13.5 -55.499 -18.5s-46.5 -7.5 -72.5 -7.5c-62.667 0 -107.667 14.667 -135 44s-41 70 -41 122v242h-62v121h62v109h155v-109h146v-121h-146v-226c0 -20 4.16699 -35.167 12.5 -45.5s22.166 -15.5 41.499 -15.5c14 0 27 2 39 6
s22 8.33301 30 13l26 -114v0z" />
    <glyph glyph-name="u" unicode="u" horiz-adv-x="594" 
d="M383 73c-13.333 -23.333 -32.833 -43 -58.5 -59s-59.5 -24 -101.5 -24c-50 0 -91.167 14.5 -123.5 43.5s-48.5 72.833 -48.5 131.5v354h157v-346c0 -24 7 -40.333 21 -49s30.333 -13 49 -13c24 0 44.667 4.5 62 13.5s31.333 20.5 42 34.5v360h155v-519h-145l-6 73h-3v0z
" />
    <glyph glyph-name="v" unicode="v" horiz-adv-x="539" 
d="M3 519h159l116 -358l118 358h140l-177 -519h-181z" />
    <glyph glyph-name="w" unicode="w" horiz-adv-x="831" 
d="M16 519h154l77 -355l101 355h148l99 -356l78 356h141l-120 -519h-190l-90 334l-88 -334h-188z" />
    <glyph glyph-name="x" unicode="x" horiz-adv-x="548" 
d="M259 169l-110 -169h-143l178 267l-164 252h170l104 -158l93 158h143l-161 -256l173 -263h-171z" />
    <glyph glyph-name="y" unicode="y" horiz-adv-x="559" 
d="M155 -187c-19.333 0 -39.8359 1.83301 -61.5029 5.5s-38.167 8.16699 -49.5 13.5l18 119c12 -4.66699 24.333 -8.33398 37 -11.001s27.334 -4 44.001 -4c16 0 30.167 3.33301 42.5 10s22.166 15.667 29.499 27l-205 546h163l119 -354l114 354h142l-178 -513
c-11.333 -31.333 -23.166 -59 -35.499 -83s-26.666 -44.167 -42.999 -60.5s-35.666 -28.666 -57.999 -36.999s-48.5 -12.5 -78.5 -12.5z" />
    <glyph glyph-name="z" unicode="z" horiz-adv-x="497" 
d="M32 0v107l244 296h-236v116h427v-97l-247 -306h247v-116h-435z" />
    <glyph glyph-name="braceleft" unicode="{" horiz-adv-x="288" 
d="M275 -145c-43.333 -3.33301 -79.833 -1.82617 -109.5 4.50684s-53.5 16 -71.5 29s-31 28.833 -39 47.5s-12 38.667 -12 60c0 16.667 2 31.667 6 45s8.5 26.333 13.5 39s9.66699 25.667 14 39s6.5 28.333 6.5 45c0 9.33301 -1 18.666 -3 27.999s-6 18 -12 26
s-14.333 15 -25 21s-24.667 10 -42 12v115c17.333 2 31.333 6 42 12s19 13 25 21s10 16.667 12 26s3 18.666 3 27.999c0 16.667 -2.16699 31.667 -6.5 45s-9 26.5 -14 39.5s-9.5 26.5 -13.5 40.5s-6 30 -6 48c0 20 4 39 12 57s21 33.333 39 46s41.833 22.167 71.5 28.5
s66.167 7.83301 109.5 4.5v-110c-30 2.66699 -51.667 -2.33301 -65 -15s-20 -30 -20 -52c0 -13.333 1.66699 -25.833 5 -37.5s7.16602 -23.334 11.499 -35.001s8.16602 -23.834 11.499 -36.501s5 -26.334 5 -41.001c0 -10 -1.33301 -20.833 -4 -32.5
s-8.16699 -23.167 -16.5 -34.5s-20 -22.166 -35 -32.499s-34.5 -19.5 -58.5 -27.5c24 -7.33301 43.5 -16.166 58.5 -26.499s26.667 -21 35 -32s13.833 -22.333 16.5 -34s4 -22.834 4 -33.501c0 -14.667 -1.66699 -28.167 -5 -40.5s-7.16602 -24.333 -11.499 -36
s-8.16602 -23.334 -11.499 -35.001s-5 -24.167 -5 -37.5c0 -22.667 6.66699 -40.334 20 -53.001s35 -17.334 65 -14.001v-111v0z" />
    <glyph glyph-name="bar" unicode="|" horiz-adv-x="267" 
d="M189 756v-876h-111v876h111z" />
    <glyph glyph-name="braceright" unicode="}" horiz-adv-x="288" 
d="M13.0166 -145c43.3311 -3.33301 79.8291 -1.82617 109.494 4.50684s53.4971 16 71.4961 29s30.998 28.833 38.9971 47.5c8 18.667 12 38.667 12 60c0 16.667 -2 31.667 -6 45s-8.5 26.333 -13.499 39c-5 12.667 -9.66602 25.667 -13.999 39s-6.5 28.333 -6.5 45
c0 9.33301 1 18.666 3 27.999s6 18 11.999 26c6 8 14.333 15 24.999 21s24.665 10 41.9971 12v115c-17.332 2 -31.3311 6 -41.9971 12s-18.999 13 -24.999 21c-5.99902 8 -9.99902 16.667 -11.999 26s-3 18.666 -3 27.999c0 16.667 2.16699 31.667 6.5 45
s8.99902 26.5 13.999 39.5c4.99902 13 9.49902 26.5 13.499 40.5s6 30 6 48c0 20 -4 39 -12 57c-7.99902 18 -20.998 33.333 -38.9971 46s-41.8311 22.167 -71.4961 28.5s-66.1631 7.83301 -109.494 4.5v-110c29.998 2.66699 51.6631 -2.33301 64.9961 -15
s19.999 -30 19.999 -52c0 -13.333 -1.66699 -25.833 -5 -37.5s-7.16602 -23.334 -11.499 -35.001s-8.16602 -23.834 -11.499 -36.501s-5 -26.334 -5 -41.001c0 -10 1.33301 -20.833 4 -32.5c2.66602 -11.667 8.16602 -23.167 16.499 -34.5s19.999 -22.166 34.998 -32.499
s34.498 -19.5 58.4971 -27.5c-23.999 -7.33301 -43.498 -16.166 -58.4971 -26.499s-26.665 -21 -34.998 -32s-13.833 -22.333 -16.499 -34c-2.66699 -11.667 -4 -22.834 -4 -33.501c0 -14.667 1.66699 -28.167 5 -40.5s7.16602 -24.333 11.499 -36
s8.16602 -23.334 11.499 -35.001s5 -24.167 5 -37.5c0 -22.667 -6.66602 -40.334 -19.999 -53.001s-34.998 -17.334 -64.9961 -14.001v-111v0z" />
    <glyph glyph-name="asciitilde" unicode="~" horiz-adv-x="646" 
d="M45 234c-2 26 -0.333984 51.167 4.99902 75.5s14.5 46.166 27.5 65.499s30.5 34.833 52.5 46.5s48.667 17.5 80 17.5c30 0 55.667 -4.66699 77 -14s40.333 -19.833 57 -31.5s32.334 -22.167 47.001 -31.5s30.667 -14 48 -14c20 0 35.167 7.83301 45.5 23.5
s15.833 41.167 16.5 76.5h100c2 -26 0.333008 -51.167 -5 -75.5s-14.666 -46.166 -27.999 -65.499s-30.833 -34.833 -52.5 -46.5s-48.167 -17.5 -79.5 -17.5c-30 0 -55.5 4.66699 -76.5 14s-40 19.833 -57 31.5l-47.5 31.5c-14.667 9.33301 -30.334 14 -47.001 14
c-20 0 -35.333 -7.83301 -46 -23.5s-16 -41.167 -16 -76.5h-101v0z" />
    <glyph glyph-name="uni00A0" unicode="&#xa0;" horiz-adv-x="196" 
 />
    <glyph glyph-name="exclamdown" unicode="&#xa1;" horiz-adv-x="302" 
d="M71.0137 -196.956l19.999 480.971h120.993l18.998 -480.971h-159.99zM151.009 526c13.999 0 27.165 -2.66699 39.498 -8s23.166 -12.499 32.499 -21.499c9.33301 -8.99902 16.666 -19.332 21.999 -30.998s7.99902 -24.165 7.99902 -37.4971
c0 -13.333 -2.66602 -25.832 -7.99902 -37.498s-12.666 -21.999 -21.999 -30.998s-20.166 -15.999 -32.499 -20.999c-12.333 -4.99902 -25.499 -7.49902 -39.498 -7.49902s-27.165 2.5 -39.498 7.49902c-12.333 5 -22.999 12 -31.998 20.999s-16.165 19.332 -21.498 30.998
s-7.99902 24.165 -7.99902 37.498c0 13.332 2.66602 25.8311 7.99902 37.4971s12.499 21.999 21.498 30.998c8.99902 9 19.665 16.166 31.998 21.499s25.499 8 39.498 8z" />
    <glyph glyph-name="cent" unicode="&#xa2;" 
d="M226 -151l-0.000976562 152c-8.66699 2 -17 4.33301 -25 7c-36 12.667 -66.833 30.5 -92.5 53.5s-45.334 51.167 -59.001 84.5s-20.5 71.333 -20.5 114c0 42 6.83301 79.667 20.5 113s33 61.5 58 84.5s54.5 40.5 88.5 52.5c12.667 4.66699 26 8.33398 40 11.001v135h141
v-132c12.667 -2 24.334 -4.66699 35.001 -8c28 -8.66699 49.667 -18.334 65 -29.001l-29 -113c-17.333 11.333 -36 19.833 -56 25.5s-45.333 8.5 -76 8.5c-38.667 0 -69.5 -12.167 -92.5 -36.5s-34.5 -61.5 -34.5 -111.5s12 -87.333 36 -112s58.667 -37 104 -37
c28.667 0 52.334 3.33301 71.001 10s36 14.667 52 24l28 -115c-15.333 -10.667 -36 -20 -62 -28c-14.667 -4.66699 -31.667 -8 -51 -10v-143h-141z" />
    <glyph glyph-name="sterling" unicode="&#xa3;" 
d="M516 0l-468.998 0.000976562v81c30 24 52.167 48.667 66.5 74s21.5 52 21.5 80c0 7.33301 -0.166992 14.333 -0.5 21s-0.833008 13 -1.5 19h-91v116h61c-6.66699 19.333 -12.667 38.666 -18 57.999s-8 40.666 -8 63.999c0 65.333 21 117.333 63 156s103 58 183 58
c40 0 73.667 -3.33301 101 -10s46.666 -12 57.999 -16l-27 -114c-11.333 4 -27.833 8.16699 -49.5 12.5s-42.834 6.5 -63.501 6.5s-37.667 -2.5 -51 -7.5s-24 -11.833 -32 -20.5s-13.667 -19.334 -17 -32.001s-5 -26.334 -5 -41.001
c0.666992 -21.333 3.5 -40.666 8.5 -57.999l16.5 -56h161v-116h-142v-12c0 -23.333 -4.33301 -47.166 -13 -71.499s-23.667 -48.166 -45 -71.499h293v-120z" />
    <glyph glyph-name="currency" unicode="&#xa4;" horiz-adv-x="562" 
d="M381 159c-29.333 -15.333 -63.332 -22.999 -101.999 -22.999c-38 0 -71.667 7.33301 -101 22l-66 -68l-78 80l60 62c-20.667 32 -31 69.333 -31 112s10.333 80 31 112l-63 65l77 81l69 -71c32.667 14.667 66.667 22 102 22c19.333 0 37.666 -2 54.999 -6
s33.333 -9.66699 48 -17l71 72l78 -81l-65 -66c20 -31.333 30 -68.333 30 -111s-10 -79.334 -30 -110.001l62 -64l-80 -80zM280.001 439.001c-23.333 0 -43.5 -8.33301 -60.5 -25s-25.5 -40 -25.5 -70c0 -29.333 8.5 -52.5 25.5 -69.5s37.167 -25.5 60.5 -25.5
s43.666 8.5 60.999 25.5s26 40.167 26 69.5c0 30 -8.66699 53.333 -26 70s-37.666 25 -60.999 25z" />
    <glyph glyph-name="yen" unicode="&#xa5;" 
d="M358 119v-119h-156v119h-152v100h152v50h-152v100h126l-168 347h167l113 -260l120 260h141l-166 -347h127v-100h-152v-50h152v-100h-152z" />
    <glyph glyph-name="brokenbar" unicode="&#xa6;" horiz-adv-x="267" 
d="M189 756v-400h-111v400h111zM189 280v-400h-111v400h111z" />
    <glyph glyph-name="section" unicode="&#xa7;" horiz-adv-x="568" 
d="M292 196c36 0 62.833 7.16797 80.5 21.501s26.5 32.5 26.5 54.5c0 23.333 -9.83301 41.166 -29.5 53.499s-48.5 18.5 -86.5 18.5c-39.333 0 -68.166 -6.16699 -86.499 -18.5s-27.5 -29.833 -27.5 -52.5c0 -14 3.66699 -26 11 -36s16.666 -18 27.999 -24
s24.333 -10.333 39 -13s29.667 -4 45 -4zM258 -205.999c-49.333 0 -91.3311 4.33008 -125.998 12.9971s-63.667 18.667 -87 30l26 117c21.333 -10.667 47.833 -20.5 79.5 -29.5s67.5 -13.5 107.5 -13.5c14 0 27.167 1 39.5 3s23.333 5.66699 33 11s17.334 12.5 23.001 21.5
s8.5 20.167 8.5 33.5c0 27.333 -12.5 47.166 -37.5 59.499s-59.5 23.5 -103.5 33.5c-22 4.66699 -44.333 11 -67 19s-43.167 18.833 -61.5 32.5s-33.5 31.167 -45.5 52.5s-18 48 -18 80c0 36 11.5 66.167 34.5 90.5s53.5 40.833 91.5 49.5c-34 16.667 -58 36.667 -72 60
s-21 49 -21 77c0 32 6.33301 60 19 84s30.334 44 53.001 60s49.667 28 81 36s66 12 104 12c47.333 0 85.666 -4.33301 114.999 -13s50.666 -17.667 63.999 -27l-26 -114c-15.333 10 -36 18.667 -62 26s-56 11 -90 11c-36 0 -63.833 -5.33301 -83.5 -16
s-29.5 -26.667 -29.5 -48c0 -13.333 3.16699 -24.333 9.5 -33s15.5 -16.167 27.5 -22.5s26.333 -11.666 43 -15.999s35.334 -8.83301 56.001 -13.5c21.333 -4.66699 43.5 -10.667 66.5 -18s44.167 -18 63.5 -32s35.166 -32.167 47.499 -54.5s18.5 -50.833 18.5 -85.5
c0 -40.667 -11.5 -72 -34.5 -94s-52.5 -36.667 -88.5 -44c32 -13.333 55 -32.666 69 -57.999s21 -51.666 21 -78.999c0 -39.333 -7.33301 -71.833 -22 -97.5s-33.834 -46.167 -57.501 -61.5s-50.334 -26.166 -80.001 -32.499s-59.167 -9.5 -88.5 -9.5z" />
    <glyph glyph-name="dieresis" unicode="&#xa8;" horiz-adv-x="437" 
d="M332 575c-25.333 0 -46.5 8.33301 -63.5 25s-25.5 36.334 -25.5 59.001c0 24 8.5 44.167 25.5 60.5s38.167 24.5 63.5 24.5c11.333 0 22.333 -2.16699 33 -6.5s20 -10.333 28 -18s14.5 -16.667 19.5 -27s7.5 -21.5 7.5 -33.5c0 -11.333 -2.5 -22 -7.5 -32
s-11.5 -18.833 -19.5 -26.5s-17.333 -13.834 -28 -18.501s-21.667 -7 -33 -7zM104 575c-12 0 -23.166 2.33301 -33.499 7s-19.333 10.834 -27 18.501s-13.834 16.5 -18.501 26.5s-7 20.667 -7 32c0 24 8.5 44.167 25.5 60.5s37.167 24.5 60.5 24.5
c24.667 0 45.834 -8.16699 63.501 -24.5s26.5 -36.5 26.5 -60.5c0 -22.667 -8.83301 -42.334 -26.5 -59.001s-38.834 -25 -63.501 -25z" />
    <glyph glyph-name="copyright" unicode="&#xa9;" horiz-adv-x="875" 
d="M437 -106c-57.333 0 -110.833 10.5 -160.5 31.5s-92.834 50.167 -129.501 87.5s-65.5 81.833 -86.5 133.5s-31.5 108.167 -31.5 169.5s10.5 117.666 31.5 168.999s49.833 95.666 86.5 132.999s79.834 66.333 129.501 87s103.167 31 160.5 31c58 0 112 -10.333 162 -31
s93.167 -49.667 129.5 -87s65 -81.666 86 -132.999s31.5 -107.666 31.5 -168.999s-10.5 -117.833 -31.5 -169.5s-49.667 -96.167 -86 -133.5s-79.5 -66.5 -129.5 -87.5s-104 -31.5 -162 -31.5zM437 -24c48 0 91.667 8.33301 131 25s72.833 40 100.5 70s49 65.833 64 107.5
s22.5 87.5 22.5 137.5s-7.5 95.667 -22.5 137s-36.333 77 -64 107s-61.167 53.333 -100.5 70s-83 25 -131 25s-91.5 -8.33301 -130.5 -25s-72.333 -40 -100 -70s-49 -65.667 -64 -107s-22.5 -87 -22.5 -137s7.5 -95.833 22.5 -137.5s36.333 -77.5 64 -107.5
s61 -53.333 100 -70s82.5 -25 130.5 -25zM461 100c-34 0 -65.001 4.83105 -93.001 14.498s-51.667 23.834 -71 42.501s-34.333 41.334 -45 68.001s-16 56.667 -16 90c0 67.333 20 119.833 60 157.5s95 56.5 165 56.5c30 0 55.333 -2.83301 76 -8.5s36.667 -12.167 48 -19.5
l-27 -101c-22.667 16.667 -53.667 25 -93 25c-69.333 0 -104 -36.667 -104 -110c0 -74 33.667 -111 101 -111c41.333 0 74.333 8.66699 99 26l29 -98c-11.333 -8 -27.666 -15.333 -48.999 -22s-48 -10 -80 -10z" />
    <glyph glyph-name="ordfeminine" unicode="&#xaa;" horiz-adv-x="483" 
d="M220 412c18 0 32.166 3.83203 42.499 11.499s18.333 16.5 24 26.5s9.33398 19.833 11.001 29.5s2.5 16.834 2.5 21.501v18h-41c-31.333 0 -54.166 -5.16699 -68.499 -15.5s-21.5 -24.5 -21.5 -42.5c0 -17.333 4.66699 -29.833 14 -37.5s21.666 -11.5 36.999 -11.5z
M311.999 322.999c-1.33301 8 -2.66699 17.999 -4 29.999l-4 35c-4.66699 -9.33301 -10.5 -18.333 -17.5 -27s-15.667 -16.5 -26 -23.5s-22.5 -12.667 -36.5 -17s-30.333 -6.5 -49 -6.5s-36.834 2.5 -54.501 7.5s-33.167 12.667 -46.5 23s-24.166 23.666 -32.499 39.999
s-12.5 35.5 -12.5 57.5c0 49.333 18.5 87 55.5 113s85.833 39 146.5 39h69v15c0 26 -6.66699 43.333 -20 52s-34 13 -62 13c-30 0 -57.333 -3.66699 -82 -11s-46 -15.333 -64 -24l-19 106c22 10 49.333 18.667 82 26s66.667 11 102 11c64 0 113.833 -12.667 149.5 -38
s53.5 -66.666 53.5 -123.999v-225c0 -9.33301 0.5 -21.666 1.5 -36.999s2.16699 -27 3.5 -35h-133z" />
    <glyph glyph-name="guillemotleft" unicode="&#xab;" horiz-adv-x="535" 
d="M152 59l-133 210l133 210h146l-133 -210l133 -210h-146zM375 59l-132 210l132 210h146l-133 -210l133 -210h-146z" />
    <glyph glyph-name="logicalnot" unicode="&#xac;" horiz-adv-x="595" 
d="M432 82v200h-388v110h507v-310h-119z" />
    <glyph glyph-name="registered" unicode="&#xae;" horiz-adv-x="875" 
d="M437 -106c-57.333 0 -110.833 10.5 -160.5 31.5s-92.834 50.167 -129.501 87.5s-65.5 81.833 -86.5 133.5s-31.5 108.167 -31.5 169.5s10.5 117.666 31.5 168.999s49.833 95.666 86.5 132.999s79.834 66.333 129.501 87s103.167 31 160.5 31c58 0 112 -10.333 162 -31
s93.167 -49.667 129.5 -87s65 -81.666 86 -132.999s31.5 -107.666 31.5 -168.999s-10.5 -117.833 -31.5 -169.5s-49.667 -96.167 -86 -133.5s-79.5 -66.5 -129.5 -87.5s-104 -31.5 -162 -31.5zM437 -24c48 0 91.667 8.33301 131 25s72.833 40 100.5 70s49 65.833 64 107.5
s22.5 87.5 22.5 137.5s-7.5 95.667 -22.5 137s-36.333 77 -64 107s-61.167 53.333 -100.5 70s-83 25 -131 25s-91.5 -8.33301 -130.5 -25s-72.333 -40 -100 -70s-49 -65.667 -64 -107s-22.5 -87 -22.5 -137s7.5 -95.833 22.5 -137.5s36.333 -77.5 64 -107.5
s61 -53.333 100 -70s82.5 -25 130.5 -25zM390 435l0.000976562 -92h46c21.333 0 36.666 3.33301 45.999 10s14 18 14 34c0 18 -5.33301 30.5 -16 37.5s-27 10.5 -49 10.5h-41zM421.001 260l-31.001 0.00195312v-153h-117v418h158c62 0 107.833 -11 137.5 -33
s44.5 -57 44.5 -105c0 -30.667 -6.16699 -54.834 -18.5 -72.501s-30.166 -30.834 -53.499 -39.501l93 -168h-128z" />
    <glyph glyph-name="macron" unicode="&#xaf;" horiz-adv-x="437" 
d="M60 697h317v-105h-317v105z" />
    <glyph glyph-name="degree" unicode="&#xb0;" horiz-adv-x="489" 
d="M244 352c-27.333 0 -52.333 4.83301 -75 14.5s-42.5 23 -59.5 40s-30.167 37.167 -39.5 60.5s-14 49 -14 77s4.66699 53.667 14 77s22.5 43.5 39.5 60.5s36.833 30.333 59.5 40s47.667 14.5 75 14.5s52.5 -4.83301 75.5 -14.5s43 -23 60 -40s30.167 -37.167 39.5 -60.5
s14 -49 14 -77s-4.66699 -53.667 -14 -77s-22.5 -43.5 -39.5 -60.5s-37 -30.333 -60 -40s-48.167 -14.5 -75.5 -14.5zM244 444c28.667 0 51.334 9 68.001 27s25 42.333 25 73s-8.33301 55 -25 73s-39.334 27 -68.001 27c-28 0 -50.333 -9 -67 -27s-25 -42.333 -25 -73
s8.33301 -55 25 -73s39 -27 67 -27z" />
    <glyph glyph-name="plusminus" unicode="&#xb1;" 
d="M338 302v-151h-119v151h-194v110h194v190h119v-190h194v-110h-194zM25 0v110h507v-110h-507z" />
    <glyph glyph-name="two.sup" unicode="&#xb2;" horiz-adv-x="369" 
d="M23 325l-0.00195312 108c35.333 24 65.333 45.833 90 65.5s44.667 37.667 60 54s26.333 31 33 44s10 24.5 10 34.5c0 19.333 -5.66699 34.333 -17 45s-28.666 16 -51.999 16c-25.333 0 -46.5 -3.16699 -63.5 -9.5s-30.833 -12.5 -41.5 -18.5l-13 91
c11.333 6 28.833 12 52.5 18s51.5 9 83.5 9c56.667 0 100 -12 130 -36s45 -59 45 -105c0 -19.333 -3.83301 -37.5 -11.5 -54.5s-19.667 -34.333 -36 -52s-37.166 -36 -62.499 -55s-55.333 -39.5 -90 -61.5h202v-93h-319z" />
    <glyph glyph-name="three.sup" unicode="&#xb3;" horiz-adv-x="367" 
d="M153 319c-33.333 0 -61 2.49805 -83 7.49805s-38.667 10.5 -50 16.5l13 90c11.333 -5.33301 25.333 -10.666 42 -15.999s35.667 -8 57 -8c30 0 51.833 4.66699 65.5 14s20.5 22.666 20.5 39.999s-6.5 30 -19.5 38s-29.833 12 -50.5 12h-52v86h53
c38.667 0 58 16.333 58 49c0 16 -5.5 27.333 -16.5 34s-27.167 10 -48.5 10c-19.333 0 -38.333 -2.83301 -57 -8.5s-33.667 -11.167 -45 -16.5l-15 89c12 5.33301 29.333 11 52 17s51 9 85 9c54 0 95.333 -11 124 -33s43 -51.333 43 -88c0 -27.333 -9 -49.666 -27 -66.999
s-39.333 -28.666 -64 -33.999c30 -3.33301 54.667 -13.5 74 -30.5s29 -40.5 29 -70.5c0 -43.333 -16.167 -77.5 -48.5 -102.5s-78.833 -37.5 -139.5 -37.5z" />
    <glyph glyph-name="acute" unicode="&#xb4;" horiz-adv-x="437" 
d="M203 746h157l-126 -158h-110z" />
    <glyph glyph-name="paragraph" unicode="&#xb6;" horiz-adv-x="659" 
d="M593 -187h-117v903h117v-903zM281 -187v455.998c-36 0.666992 -68.833 5.66699 -98.5 15s-55.167 23.333 -76.5 42s-37.833 41.834 -49.5 69.501s-17.5 59.834 -17.5 96.501c0 74 20.833 129.833 62.5 167.5s100.5 56.5 176.5 56.5h120v-903h-117z" />
    <glyph glyph-name="periodcentered" unicode="&#xb7;" horiz-adv-x="280" 
d="M140 168c-14 0 -27.167 2.66699 -39.5 8s-23 12.5 -32 21.5s-16 19.333 -21 31s-7.5 24.167 -7.5 37.5s2.5 25.833 7.5 37.5s12 22 21 31s19.667 16 32 21s25.5 7.5 39.5 7.5s27.167 -2.5 39.5 -7.5s23 -12 32 -21s16.167 -19.333 21.5 -31s8 -24.167 8 -37.5
s-2.66699 -25.833 -8 -37.5s-12.5 -22 -21.5 -31s-19.667 -16.167 -32 -21.5s-25.5 -8 -39.5 -8z" />
    <glyph glyph-name="cedilla" unicode="&#xb8;" horiz-adv-x="437" 
d="M304 20l-57 -207h-151l91 207h117z" />
    <glyph glyph-name="one.sup" unicode="&#xb9;" horiz-adv-x="301" 
d="M128 325v320l-105 -98v124l113 106h112v-452h-120z" />
    <glyph glyph-name="ordmasculine" unicode="&#xba;" horiz-adv-x="516" 
d="M258 314c-33.333 0 -64.166 5.16699 -92.499 15.5s-53 25.333 -74 45s-37.5 44.167 -49.5 73.5s-18 63 -18 101s6 71.5 18 100.5s28.5 53.333 49.5 73s45.667 34.5 74 44.5s59.166 15 92.499 15s64.333 -5 93 -15s53.5 -24.833 74.5 -44.5s37.5 -44 49.5 -73
s18 -62.5 18 -100.5s-6 -71.667 -18 -101s-28.5 -53.833 -49.5 -73.5s-45.833 -34.667 -74.5 -45s-59.667 -15.5 -93 -15.5zM258 423c26 0 47.333 10.5 64 31.5s25 52.5 25 94.5s-8.33301 73.333 -25 94s-38 31 -64 31c-25.333 0 -46.333 -10.333 -63 -31s-25 -52 -25 -94
s8.33301 -73.5 25 -94.5s37.667 -31.5 63 -31.5z" />
    <glyph glyph-name="guillemotright" unicode="&#xbb;" horiz-adv-x="531" 
d="M152 269l-133 210h146l133 -210l-133 -210h-146zM374 269l-131 210h145l133 -210l-133 -210h-145z" />
    <glyph glyph-name="onequarter" unicode="&#xbc;" horiz-adv-x="895" 
d="M132 0l563 716h116l-563 -716h-116zM723 313l-98 -138h98v138zM836 88v-87h-113v87h-195v88l198 276h110v-277h59v-87h-59zM128 265v320l-105 -98v124l113 106h112v-452h-120z" />
    <glyph glyph-name="onehalf" unicode="&#xbd;" horiz-adv-x="999" 
d="M124 0l563 716h116l-563 -716h-116zM619 1l-0.00195312 108c35.333 24 65.333 45.833 90 65.5s44.667 37.667 60 54s26.333 31 33 44s10 24.5 10 34.5c0 19.333 -5.66699 34.333 -17 45s-28.666 16 -51.999 16c-25.333 0 -46.5 -3.16699 -63.5 -9.5
s-30.833 -12.5 -41.5 -18.5l-13 91c11.333 6 28.833 12 52.5 18s51.5 9 83.5 9c56.667 0 100 -12 130 -36s45 -59 45 -105c0 -19.333 -3.83301 -37.5 -11.5 -54.5s-19.667 -34.333 -36 -52s-37.166 -36 -62.499 -55s-55.333 -39.5 -90 -61.5h202v-93h-319zM127.998 265v320
l-105 -98v124l113 106h112v-452h-120z" />
    <glyph glyph-name="threequarters" unicode="&#xbe;" horiz-adv-x="928" 
d="M173 0l563 716h116l-563 -716h-116zM756 313l-98 -138h98v138zM869 88v-87h-113v87h-195v88l198 276h110v-277h59v-87h-59zM153 259c-33.333 0 -61 2.49805 -83 7.49805s-38.667 10.5 -50 16.5l13 90c11.333 -5.33301 25.333 -10.666 42 -15.999s35.667 -8 57 -8
c30 0 51.833 4.66699 65.5 14s20.5 22.666 20.5 39.999s-6.5 30 -19.5 38s-29.833 12 -50.5 12h-52v86h53c38.667 0 58 16.333 58 49c0 16 -5.5 27.333 -16.5 34s-27.167 10 -48.5 10c-19.333 0 -38.333 -2.83301 -57 -8.5s-33.667 -11.167 -45 -16.5l-15 89
c12 5.33301 29.333 11 52 17s51 9 85 9c54 0 95.333 -11 124 -33s43 -51.333 43 -88c0 -27.333 -9 -49.666 -27 -66.999s-39.333 -28.666 -64 -33.999c30 -3.33301 54.667 -13.5 74 -30.5s29 -40.5 29 -70.5c0 -43.333 -16.167 -77.5 -48.5 -102.5
s-78.833 -37.5 -139.5 -37.5z" />
    <glyph glyph-name="questiondown" unicode="&#xbf;" horiz-adv-x="470" 
d="M34.0273 -10.9678c0 21.999 2.66309 41.333 7.99609 57.999c5.33301 16.665 12.333 31.1641 20.999 43.4971s18.499 23.332 29.498 32.998s21.832 18.499 32.498 26.498c13.999 9.99902 26.998 18.832 38.9971 26.499c11.999 7.66602 22.665 15.499 31.998 23.498
s16.666 16.499 21.999 25.499c5.33301 8.99902 8 19.498 8 31.4971v30.998h142.991v-29.998c0 -27.999 -3.5 -51.8311 -10.499 -71.4961c-7 -19.665 -15.5 -36.1641 -25.499 -49.4971s-20.832 -24.499 -32.498 -33.498l-32.498 -24.498
c-19.332 -13.999 -35.8311 -27.165 -49.4971 -39.498c-13.665 -12.333 -20.498 -28.499 -20.498 -48.498c0 -21.332 7.33301 -38.498 21.998 -51.4971c14.666 -12.999 39.998 -19.498 75.9961 -19.498c24.665 0 47.4971 2.66602 68.4961 7.99902
s38.165 11.666 51.498 18.999l26.998 -119.992c-16.665 -7.33301 -38.6641 -14.166 -65.9961 -20.499c-27.3311 -6.33301 -58.6621 -9.5 -93.9932 -9.5c-83.3281 0 -145.657 16.999 -186.988 50.9971s-61.9961 80.9951 -61.9961 140.991zM296.009 530.002
c13.999 0 26.998 -2.66699 38.9971 -8s22.498 -12.499 31.4971 -21.499c8.99902 -8.99902 16.165 -19.332 21.498 -30.998s7.99902 -24.165 7.99902 -37.4971c0 -13.333 -2.66602 -25.832 -7.99902 -37.498s-12.499 -21.999 -21.498 -30.998
s-19.498 -15.999 -31.4971 -20.999c-11.999 -4.99902 -24.998 -7.49902 -38.9971 -7.49902s-27.332 2.5 -39.998 7.49902c-12.666 5 -23.499 12 -32.498 20.999s-16.165 19.332 -21.498 30.998s-7.99902 24.165 -7.99902 37.498c0 13.332 2.66602 25.8311 7.99902 37.4971
s12.499 21.999 21.498 30.998c8.99902 9 19.832 16.166 32.498 21.499s25.999 8 39.998 8z" />
    <glyph glyph-name="Agrave" unicode="&#xc0;" horiz-adv-x="686" 
d="M332 558l-90 -270h179zM462 164h-261l-55 -164h-136l241 716h184l240 -716h-159zM293 778l-137 136h188l75 -136h-126z" />
    <glyph glyph-name="Aacute" unicode="&#xc1;" horiz-adv-x="686" 
d="M332 558l-90 -270h179zM462 164h-261l-55 -164h-136l241 716h184l240 -716h-159zM342 914h188l-137 -136h-125z" />
    <glyph glyph-name="Acircumflex" unicode="&#xc2;" horiz-adv-x="686" 
d="M332 558l-90 -270h179zM462 164h-261l-55 -164h-136l241 716h184l240 -716h-159zM342 849l-70 -71h-118l109 148h157l108 -148h-118z" />
    <glyph glyph-name="Atilde" unicode="&#xc3;" horiz-adv-x="686" 
d="M332 558l-90 -270h179zM462 164h-261l-55 -164h-136l241 716h184l240 -716h-159zM150 766c-2.66699 23.333 -1.83301 45.001 2.5 65.001s11.5 37.333 21.5 52s23 26.167 39 34.5s34 12.5 54 12.5c16.667 0 31.334 -2.16699 44.001 -6.5s24.334 -9 35.001 -14l29.5 -14
c9 -4.33301 18.5 -6.5 28.5 -6.5c13.333 0 23.333 3.66699 30 11s10.667 19.666 12 36.999h86c2.66699 -23.333 2 -45 -2 -65s-11.167 -37.333 -21.5 -52s-23.333 -26.167 -39 -34.5s-33.5 -12.5 -53.5 -12.5c-16.667 0 -31.334 2.16699 -44.001 6.5s-24.334 9 -35.001 14
l-30 14c-9.33301 4.33301 -19 6.5 -29 6.5c-12.667 0 -22.5 -3.5 -29.5 -10.5s-10.833 -19.5 -11.5 -37.5h-87v0z" />
    <glyph glyph-name="Adieresis" unicode="&#xc4;" horiz-adv-x="686" 
d="M332 558l-90 -270h179zM462 164h-261l-55 -164h-136l241 716h184l240 -716h-159zM459 772c-12 0 -23.333 2.33301 -34 7s-20 10.834 -28 18.501s-14.333 16.5 -19 26.5s-7 20.667 -7 32c0 24 8.66699 44.167 26 60.5s38 24.5 62 24.5c12 0 23.333 -2.16699 34 -6.5
s20 -10.333 28 -18s14.5 -16.667 19.5 -27s7.5 -21.5 7.5 -33.5c0 -11.333 -2.5 -22 -7.5 -32s-11.5 -18.833 -19.5 -26.5s-17.333 -13.834 -28 -18.501s-22 -7 -34 -7zM223 772c-12 0 -23.333 2.33301 -34 7s-20 10.834 -28 18.501s-14.333 16.5 -19 26.5s-7 20.667 -7 32
c0 24 8.66699 44.167 26 60.5s38 24.5 62 24.5c12 0 23.333 -2.16699 34 -6.5s20 -10.333 28 -18s14.5 -16.667 19.5 -27s7.5 -21.5 7.5 -33.5c0 -11.333 -2.5 -22 -7.5 -32s-11.5 -18.833 -19.5 -26.5s-17.333 -13.834 -28 -18.501s-22 -7 -34 -7z" />
    <glyph glyph-name="Aring" unicode="&#xc5;" horiz-adv-x="686" 
d="M332 558l-90 -270h179zM462 164h-261l-55 -164h-136l241 716h184l240 -716h-159zM340 759c-18 0 -34.833 3.16699 -50.5 9.5s-29.5 15 -41.5 26s-21.333 24.333 -28 40s-10 33.167 -10 52.5c0 18.667 3.33301 36 10 52s16 29.5 28 40.5s25.833 19.667 41.5 26
s32.5 9.5 50.5 9.5c18.667 0 36.167 -3.16699 52.5 -9.5s30.666 -15 42.999 -26s22 -24.5 29 -40.5s10.5 -33.333 10.5 -52c0 -19.333 -3.5 -36.833 -10.5 -52.5s-16.667 -29 -29 -40s-26.666 -19.667 -42.999 -26s-33.833 -9.5 -52.5 -9.5zM340 837
c14.667 0 26.667 4.66699 36 14s14 21.333 14 36c0 14 -4.66699 25.833 -14 35.5s-21.333 14.5 -36 14.5c-13.333 0 -24.333 -4.83301 -33 -14.5s-13 -21.5 -13 -35.5c0 -14.667 4.33301 -26.667 13 -36s19.667 -14 33 -14z" />
    <glyph glyph-name="AE" unicode="&#xc6;" horiz-adv-x="979" 
d="M459 591l-149 -284h149v284zM459 184h-214l-97 -184h-145l377 716h547v-130h-308v-151h256v-130h-256v-175h313v-130h-473v184z" />
    <glyph glyph-name="Ccedilla" unicode="&#xc7;" horiz-adv-x="649" 
d="M257 15c-46.667 17.333 -86.501 41.832 -119.501 73.499s-58.5 70.167 -76.5 115.5s-27 96.666 -27 153.999c0 56.667 9.16699 107.834 27.5 153.501s44 84.334 77 116.001s72.333 56 118 73s95.834 25.5 150.501 25.5c50 0 91.667 -4.33301 125 -13
s58.333 -17.667 75 -27l-22 -127c-20 10 -43.833 18.667 -71.5 26s-59.5 11 -95.5 11c-70 0 -124 -20.167 -162 -60.5s-57 -99.5 -57 -177.5c0 -158.667 74.333 -238 223 -238c30 0 57.333 3.5 82 10.5s47.334 16.833 68.001 29.5l40 -121
c-17.333 -12 -42.333 -23.333 -75 -34c-28.667 -8.66699 -63.334 -13.667 -104.001 -15l-51 -187h-151l86 196c-20.667 4 -40.667 9.33301 -60 16z" />
    <glyph glyph-name="Egrave" unicode="&#xc8;" horiz-adv-x="588" 
d="M66 716h468v-130h-308v-151h256v-130h-256v-175h313v-130h-473v716zM264 778l-137 136h188l75 -136h-126z" />
    <glyph glyph-name="Eacute" unicode="&#xc9;" horiz-adv-x="588" 
d="M66 716h468v-130h-308v-151h256v-130h-256v-175h313v-130h-473v716zM310 914h188l-137 -136h-125z" />
    <glyph glyph-name="Ecircumflex" unicode="&#xca;" horiz-adv-x="588" 
d="M66 716h468v-130h-308v-151h256v-130h-256v-175h313v-130h-473v716zM299 849l-70 -71h-118l109 148h157l108 -148h-118z" />
    <glyph glyph-name="Edieresis" unicode="&#xcb;" horiz-adv-x="588" 
d="M66 716h468v-130h-308v-151h256v-130h-256v-175h313v-130h-473v716zM416 772c-12 0 -23.333 2.33301 -34 7s-20 10.834 -28 18.501s-14.333 16.5 -19 26.5s-7 20.667 -7 32c0 24 8.66699 44.167 26 60.5s38 24.5 62 24.5c12 0 23.333 -2.16699 34 -6.5s20 -10.333 28 -18
s14.5 -16.667 19.5 -27s7.5 -21.5 7.5 -33.5c0 -11.333 -2.5 -22 -7.5 -32s-11.5 -18.833 -19.5 -26.5s-17.333 -13.834 -28 -18.501s-22 -7 -34 -7zM180 772c-12 0 -23.333 2.33301 -34 7s-20 10.834 -28 18.501s-14.333 16.5 -19 26.5s-7 20.667 -7 32
c0 24 8.66699 44.167 26 60.5s38 24.5 62 24.5c12 0 23.333 -2.16699 34 -6.5s20 -10.333 28 -18s14.5 -16.667 19.5 -27s7.5 -21.5 7.5 -33.5c0 -11.333 -2.5 -22 -7.5 -32s-11.5 -18.833 -19.5 -26.5s-17.333 -13.834 -28 -18.501s-22 -7 -34 -7z" />
    <glyph glyph-name="Igrave" unicode="&#xcc;" horiz-adv-x="292" 
d="M226 716v-716h-160v716h160zM87 778l-137 136h188l75 -136h-126z" />
    <glyph glyph-name="Iacute" unicode="&#xcd;" horiz-adv-x="292" 
d="M226 716v-716h-160v716h160zM146 914h188l-137 -136h-125z" />
    <glyph glyph-name="Icircumflex" unicode="&#xce;" horiz-adv-x="292" 
d="M226 716v-716h-160v716h160zM146 849l-70 -71h-118l109 148h157l108 -148h-118z" />
    <glyph glyph-name="Idieresis" unicode="&#xcf;" horiz-adv-x="292" 
d="M252 772c-25.333 0 -46.5 8.33301 -63.5 25s-25.5 36.334 -25.5 59.001c0 24 8.5 44.167 25.5 60.5s38.167 24.5 63.5 24.5c11.333 0 22.333 -2.16699 33 -6.5s20 -10.333 28 -18s14.333 -16.667 19 -27s7 -21.5 7 -33.5c0 -11.333 -2.33301 -22 -7 -32
s-11 -18.833 -19 -26.5s-17.333 -13.834 -28 -18.501s-21.667 -7 -33 -7zM39 772c-12 0 -23.166 2.33301 -33.499 7s-19.333 10.834 -27 18.501s-13.834 16.5 -18.501 26.5s-7 20.667 -7 32c0 24 8.5 44.167 25.5 60.5s37.167 24.5 60.5 24.5
c24.667 0 45.834 -8.16699 63.501 -24.5s26.5 -36.5 26.5 -60.5c0 -22.667 -8.83301 -42.334 -26.5 -59.001s-38.834 -25 -63.501 -25zM226.001 716v-716h-160v716h160z" />
    <glyph glyph-name="Eth" unicode="&#xd0;" horiz-adv-x="772" 
d="M267 304l0.000976562 -174h86c32.667 0 62.5 4.83301 89.5 14.5s50.167 24.5 69.5 44.5s34.5 45.5 45.5 76.5s16.5 67.833 16.5 110.5c0 41.333 -5.33301 75.5 -16 102.5s-25.334 48.5 -44.001 64.5s-41 27.167 -67 33.5s-54.333 9.5 -85 9.5h-95v-157h153v-125h-153z
M107.001 304h-92.0039v125h92v287h246c54.667 0 105.334 -5.5 152.001 -16.5s87.334 -29.5 122.001 -55.5s61.834 -60.333 81.501 -103s29.5 -95.667 29.5 -159s-9.83301 -118.833 -29.5 -166.5s-47.167 -87.5 -82.5 -119.5s-77.166 -56 -125.499 -72
s-100.833 -24 -157.5 -24h-236v304z" />
    <glyph glyph-name="Ntilde" unicode="&#xd1;" horiz-adv-x="737" 
d="M206 515v-515h-140v716h202l264 -509v509h139v-716h-198zM206 766c-2.66699 23.333 -1.83301 45.001 2.5 65.001s11.5 37.333 21.5 52s23 26.167 39 34.5s34 12.5 54 12.5c16.667 0 31.334 -2.16699 44.001 -6.5s24.334 -9 35.001 -14l29.5 -14
c9 -4.33301 18.5 -6.5 28.5 -6.5c13.333 0 23.333 3.66699 30 11s10.667 19.666 12 36.999h86c2.66699 -23.333 2 -45 -2 -65s-11.167 -37.333 -21.5 -52s-23.333 -26.167 -39 -34.5s-33.5 -12.5 -53.5 -12.5c-16.667 0 -31.334 2.16699 -44.001 6.5s-24.334 9 -35.001 14
l-30 14c-9.33301 4.33301 -19 6.5 -29 6.5c-12.667 0 -22.5 -3.5 -29.5 -10.5s-10.833 -19.5 -11.5 -37.5h-87v0z" />
    <glyph glyph-name="Ograve" unicode="&#xd2;" horiz-adv-x="777" 
d="M388 -10c-49.333 0 -95.5 7.83301 -138.5 23.5s-80.5 38.834 -112.5 69.501s-57.167 68.667 -75.5 114s-27.5 98 -27.5 158s9.16699 113 27.5 159s43.5 84.667 75.5 116s69.5 55.166 112.5 71.499s89.167 24.5 138.5 24.5s95.5 -7.83301 138.5 -23.5
s80.5 -38.834 112.5 -69.501s57.333 -68.667 76 -114s28 -98 28 -158s-9.33301 -113 -28 -159s-44 -84.667 -76 -116s-69.5 -55.166 -112.5 -71.499s-89.167 -24.5 -138.5 -24.5zM388 120c27.333 0 52.5 4.16699 75.5 12.5s43 22 60 41s30.333 43.667 40 74
s14.5 67.166 14.5 110.499s-4.83301 80.166 -14.5 110.499s-23 55 -40 74s-37 32.667 -60 41s-48.167 12.5 -75.5 12.5s-52.5 -4.16699 -75.5 -12.5s-42.833 -22 -59.5 -41s-29.834 -43.667 -39.501 -74s-14.5 -67.166 -14.5 -110.499s4.83301 -80.166 14.5 -110.499
s22.834 -55 39.501 -74s36.5 -32.667 59.5 -41s48.167 -12.5 75.5 -12.5zM330 778l-137 136h188l75 -136h-126z" />
    <glyph glyph-name="Oacute" unicode="&#xd3;" horiz-adv-x="777" 
d="M388 -10c-49.333 0 -95.5 7.83301 -138.5 23.5s-80.5 38.834 -112.5 69.501s-57.167 68.667 -75.5 114s-27.5 98 -27.5 158s9.16699 113 27.5 159s43.5 84.667 75.5 116s69.5 55.166 112.5 71.499s89.167 24.5 138.5 24.5s95.5 -7.83301 138.5 -23.5
s80.5 -38.834 112.5 -69.501s57.333 -68.667 76 -114s28 -98 28 -158s-9.33301 -113 -28 -159s-44 -84.667 -76 -116s-69.5 -55.166 -112.5 -71.499s-89.167 -24.5 -138.5 -24.5zM388 120c27.333 0 52.5 4.16699 75.5 12.5s43 22 60 41s30.333 43.667 40 74
s14.5 67.166 14.5 110.499s-4.83301 80.166 -14.5 110.499s-23 55 -40 74s-37 32.667 -60 41s-48.167 12.5 -75.5 12.5s-52.5 -4.16699 -75.5 -12.5s-42.833 -22 -59.5 -41s-29.834 -43.667 -39.501 -74s-14.5 -67.166 -14.5 -110.499s4.83301 -80.166 14.5 -110.499
s22.834 -55 39.501 -74s36.5 -32.667 59.5 -41s48.167 -12.5 75.5 -12.5zM389 914h188l-137 -136h-125z" />
    <glyph glyph-name="Ocircumflex" unicode="&#xd4;" horiz-adv-x="777" 
d="M388 -10c-49.333 0 -95.5 7.83301 -138.5 23.5s-80.5 38.834 -112.5 69.501s-57.167 68.667 -75.5 114s-27.5 98 -27.5 158s9.16699 113 27.5 159s43.5 84.667 75.5 116s69.5 55.166 112.5 71.499s89.167 24.5 138.5 24.5s95.5 -7.83301 138.5 -23.5
s80.5 -38.834 112.5 -69.501s57.333 -68.667 76 -114s28 -98 28 -158s-9.33301 -113 -28 -159s-44 -84.667 -76 -116s-69.5 -55.166 -112.5 -71.499s-89.167 -24.5 -138.5 -24.5zM388 120c27.333 0 52.5 4.16699 75.5 12.5s43 22 60 41s30.333 43.667 40 74
s14.5 67.166 14.5 110.499s-4.83301 80.166 -14.5 110.499s-23 55 -40 74s-37 32.667 -60 41s-48.167 12.5 -75.5 12.5s-52.5 -4.16699 -75.5 -12.5s-42.833 -22 -59.5 -41s-29.834 -43.667 -39.501 -74s-14.5 -67.166 -14.5 -110.499s4.83301 -80.166 14.5 -110.499
s22.834 -55 39.501 -74s36.5 -32.667 59.5 -41s48.167 -12.5 75.5 -12.5zM389 849l-70 -71h-118l109 148h157l108 -148h-118z" />
    <glyph glyph-name="Otilde" unicode="&#xd5;" horiz-adv-x="777" 
d="M388 -10c-49.333 0 -95.5 7.83301 -138.5 23.5s-80.5 38.834 -112.5 69.501s-57.167 68.667 -75.5 114s-27.5 98 -27.5 158s9.16699 113 27.5 159s43.5 84.667 75.5 116s69.5 55.166 112.5 71.499s89.167 24.5 138.5 24.5s95.5 -7.83301 138.5 -23.5
s80.5 -38.834 112.5 -69.501s57.333 -68.667 76 -114s28 -98 28 -158s-9.33301 -113 -28 -159s-44 -84.667 -76 -116s-69.5 -55.166 -112.5 -71.499s-89.167 -24.5 -138.5 -24.5zM388 120c27.333 0 52.5 4.16699 75.5 12.5s43 22 60 41s30.333 43.667 40 74
s14.5 67.166 14.5 110.499s-4.83301 80.166 -14.5 110.499s-23 55 -40 74s-37 32.667 -60 41s-48.167 12.5 -75.5 12.5s-52.5 -4.16699 -75.5 -12.5s-42.833 -22 -59.5 -41s-29.834 -43.667 -39.501 -74s-14.5 -67.166 -14.5 -110.499s4.83301 -80.166 14.5 -110.499
s22.834 -55 39.501 -74s36.5 -32.667 59.5 -41s48.167 -12.5 75.5 -12.5zM197 766c-2.66699 23.333 -1.83301 45.001 2.5 65.001s11.5 37.333 21.5 52s23 26.167 39 34.5s34 12.5 54 12.5c16.667 0 31.334 -2.16699 44.001 -6.5s24.334 -9 35.001 -14l29.5 -14
c9 -4.33301 18.5 -6.5 28.5 -6.5c13.333 0 23.333 3.66699 30 11s10.667 19.666 12 36.999h86c2.66699 -23.333 2 -45 -2 -65s-11.167 -37.333 -21.5 -52s-23.333 -26.167 -39 -34.5s-33.5 -12.5 -53.5 -12.5c-16.667 0 -31.334 2.16699 -44.001 6.5s-24.334 9 -35.001 14
l-30 14c-9.33301 4.33301 -19 6.5 -29 6.5c-12.667 0 -22.5 -3.5 -29.5 -10.5s-10.833 -19.5 -11.5 -37.5h-87v0z" />
    <glyph glyph-name="Odieresis" unicode="&#xd6;" horiz-adv-x="777" 
d="M388 -10c-49.333 0 -95.5 7.83301 -138.5 23.5s-80.5 38.834 -112.5 69.501s-57.167 68.667 -75.5 114s-27.5 98 -27.5 158s9.16699 113 27.5 159s43.5 84.667 75.5 116s69.5 55.166 112.5 71.499s89.167 24.5 138.5 24.5s95.5 -7.83301 138.5 -23.5
s80.5 -38.834 112.5 -69.501s57.333 -68.667 76 -114s28 -98 28 -158s-9.33301 -113 -28 -159s-44 -84.667 -76 -116s-69.5 -55.166 -112.5 -71.499s-89.167 -24.5 -138.5 -24.5zM388 120c27.333 0 52.5 4.16699 75.5 12.5s43 22 60 41s30.333 43.667 40 74
s14.5 67.166 14.5 110.499s-4.83301 80.166 -14.5 110.499s-23 55 -40 74s-37 32.667 -60 41s-48.167 12.5 -75.5 12.5s-52.5 -4.16699 -75.5 -12.5s-42.833 -22 -59.5 -41s-29.834 -43.667 -39.501 -74s-14.5 -67.166 -14.5 -110.499s4.83301 -80.166 14.5 -110.499
s22.834 -55 39.501 -74s36.5 -32.667 59.5 -41s48.167 -12.5 75.5 -12.5zM506 772c-12 0 -23.333 2.33301 -34 7s-20 10.834 -28 18.501s-14.333 16.5 -19 26.5s-7 20.667 -7 32c0 24 8.66699 44.167 26 60.5s38 24.5 62 24.5c12 0 23.333 -2.16699 34 -6.5
s20 -10.333 28 -18s14.5 -16.667 19.5 -27s7.5 -21.5 7.5 -33.5c0 -11.333 -2.5 -22 -7.5 -32s-11.5 -18.833 -19.5 -26.5s-17.333 -13.834 -28 -18.501s-22 -7 -34 -7zM270 772c-12 0 -23.333 2.33301 -34 7s-20 10.834 -28 18.501s-14.333 16.5 -19 26.5s-7 20.667 -7 32
c0 24 8.66699 44.167 26 60.5s38 24.5 62 24.5c12 0 23.333 -2.16699 34 -6.5s20 -10.333 28 -18s14.5 -16.667 19.5 -27s7.5 -21.5 7.5 -33.5c0 -11.333 -2.5 -22 -7.5 -32s-11.5 -18.833 -19.5 -26.5s-17.333 -13.834 -28 -18.501s-22 -7 -34 -7z" />
    <glyph glyph-name="multiply" unicode="&#xd7;" 
d="M278 254l-168 -173l-79 81l168 173l-171 177l78 82l172 -177l172 177l78 -82l-171 -177l168 -173l-79 -81z" />
    <glyph glyph-name="Oslash" unicode="&#xd8;" horiz-adv-x="777" 
d="M388 -10c-49.333 0 -95.667 7.66602 -139 22.999c-11.333 4 -22 8.66699 -32 14l-63 -97h-116l99 153c-32 30.667 -57.167 68.667 -75.5 114s-27.5 98 -27.5 158s9.16699 113 27.5 159s43.5 84.667 75.5 116s69.5 55.166 112.5 71.499s89.167 24.5 138.5 24.5
s95.333 -8 138 -24c4 -1.33301 7.66699 -2.66602 11 -3.99902l57 88h116l-89 -137l18 -16c32 -30.667 57.333 -68.667 76 -114s28 -98 28 -158s-9.33301 -113 -28 -159s-44 -84.667 -76 -116s-69.5 -55.166 -112.5 -71.499s-89.167 -24.5 -138.5 -24.5zM387.999 119.999
c27.333 0 52.501 4.16797 75.501 12.501s43 22 60 41s30.333 43.667 40 74s14.5 67.166 14.5 110.499s-5 80 -15 110c-6.66699 20.667 -14.667 38.667 -24 54l-248 -381c6.66699 -3.33301 13.667 -6.33301 21 -9c23.333 -8 48.666 -12 75.999 -12zM388 596
c-27.333 0 -52.498 -4.16797 -75.498 -12.501s-42.833 -22 -59.5 -41s-29.834 -43.667 -39.501 -74s-14.5 -67.166 -14.5 -110.499s4.66699 -80.333 14 -111c3.33301 -10.667 7 -20.667 11 -30l238 367c-22.667 8 -47.334 12 -74.001 12z" />
    <glyph glyph-name="Ugrave" unicode="&#xd9;" horiz-adv-x="686" 
d="M54 716l159.999 -0.000976562v-449c0 -50 13 -86.5 39 -109.5s60.667 -34.5 104 -34.5c44 0 77.667 11.5 101 34.5s35 59.5 35 109.5v449h139v-460c0 -85.333 -24.833 -151 -74.5 -197s-118.5 -69 -206.5 -69c-42.667 0 -82.167 5.5 -118.5 16.5
s-67.666 27.5 -93.999 49.5s-47 49.333 -62 82s-22.5 70.334 -22.5 113.001v465zM298.999 777.999l-137 136h188l75 -136h-126z" />
    <glyph glyph-name="Uacute" unicode="&#xda;" horiz-adv-x="686" 
d="M54 716l159.999 -0.000976562v-449c0 -50 13 -86.5 39 -109.5s60.667 -34.5 104 -34.5c44 0 77.667 11.5 101 34.5s35 59.5 35 109.5v449h139v-460c0 -85.333 -24.833 -151 -74.5 -197s-118.5 -69 -206.5 -69c-42.667 0 -82.167 5.5 -118.5 16.5
s-67.666 27.5 -93.999 49.5s-47 49.333 -62 82s-22.5 70.334 -22.5 113.001v465zM357.999 913.999h188l-137 -136h-125z" />
    <glyph glyph-name="Ucircumflex" unicode="&#xdb;" horiz-adv-x="686" 
d="M54 716l159.999 -0.000976562v-449c0 -50 13 -86.5 39 -109.5s60.667 -34.5 104 -34.5c44 0 77.667 11.5 101 34.5s35 59.5 35 109.5v449h139v-460c0 -85.333 -24.833 -151 -74.5 -197s-118.5 -69 -206.5 -69c-42.667 0 -82.167 5.5 -118.5 16.5
s-67.666 27.5 -93.999 49.5s-47 49.333 -62 82s-22.5 70.334 -22.5 113.001v465zM357.999 848.999l-70 -71h-118l109 148h157l108 -148h-118z" />
    <glyph glyph-name="Udieresis" unicode="&#xdc;" horiz-adv-x="686" 
d="M54 716l159.999 -0.000976562v-449c0 -50 13 -86.5 39 -109.5s60.667 -34.5 104 -34.5c44 0 77.667 11.5 101 34.5s35 59.5 35 109.5v449h139v-460c0 -85.333 -24.833 -151 -74.5 -197s-118.5 -69 -206.5 -69c-42.667 0 -82.167 5.5 -118.5 16.5
s-67.666 27.5 -93.999 49.5s-47 49.333 -62 82s-22.5 70.334 -22.5 113.001v465zM474.999 771.999c-12 0 -23.333 2.33301 -34 7s-20 10.834 -28 18.501s-14.333 16.5 -19 26.5s-7 20.667 -7 32c0 24 8.66699 44.167 26 60.5s38 24.5 62 24.5c12 0 23.333 -2.16699 34 -6.5
s20 -10.333 28 -18s14.5 -16.667 19.5 -27s7.5 -21.5 7.5 -33.5c0 -11.333 -2.5 -22 -7.5 -32s-11.5 -18.833 -19.5 -26.5s-17.333 -13.834 -28 -18.501s-22 -7 -34 -7zM238.999 771.999c-12 0 -23.333 2.33301 -34 7s-20 10.834 -28 18.501s-14.333 16.5 -19 26.5
s-7 20.667 -7 32c0 24 8.66699 44.167 26 60.5s38 24.5 62 24.5c12 0 23.333 -2.16699 34 -6.5s20 -10.333 28 -18s14.5 -16.667 19.5 -27s7.5 -21.5 7.5 -33.5c0 -11.333 -2.5 -22 -7.5 -32s-11.5 -18.833 -19.5 -26.5s-17.333 -13.834 -28 -18.501s-22 -7 -34 -7z" />
    <glyph glyph-name="Yacute" unicode="&#xdd;" horiz-adv-x="625" 
d="M233 0v300l-229 416h175l143 -276l150 276h149l-228 -417v-299h-160zM322 914h188l-137 -136h-125z" />
    <glyph glyph-name="Thorn" unicode="&#xde;" horiz-adv-x="632" 
d="M226 457v-196h81c22.667 0 42.667 1.5 60 4.5s32 8.16699 44 15.5s21 17.5 27 30.5s9 29.167 9 48.5c0 34.667 -11.667 59.5 -35 74.5s-58.333 22.5 -105 22.5h-81zM226 130v-130.001h-160v716h160v-129h81c96 0 170 -17 222 -51s78 -90.333 78 -169
c0 -41.333 -7 -76.833 -21 -106.5s-34 -54.167 -60 -73.5s-57.5 -33.666 -94.5 -42.999s-78.5 -14 -124.5 -14h-81z" />
    <glyph glyph-name="germandbls" unicode="&#xdf;" horiz-adv-x="616" 
d="M401 -10c-32 0 -58.501 1.83301 -79.501 5.5s-36.833 7.83398 -47.5 12.501l17 112c10.667 -5.33301 23.834 -9.33301 39.501 -12s28.834 -4 39.501 -4c24 0 42 3.83301 54 11.5s18 17.834 18 30.501c0 8 -2.33301 15.167 -7 21.5s-10.667 12.333 -18 18
s-15.666 11 -24.999 16s-19 10.5 -29 16.5s-19.833 12.5 -29.5 19.5s-18.167 15.5 -25.5 25.5s-13.333 21.667 -18 35s-7 28.666 -7 45.999c0 24 5.33301 44.5 16 61.5s22.5 32.5 35.5 46.5s25 27.833 36 41.5s16.5 29.5 16.5 47.5c0 24.667 -7 41.834 -21 51.501
s-32.333 14.5 -55 14.5c-31.333 0 -54.5 -10.333 -69.5 -31s-22.5 -51 -22.5 -91v-485h-163v485c0 74 21.667 132.667 65 176s106 65 188 65c72 0 128.667 -14.667 170 -44s61.666 -71.333 60.999 -126c0 -27.333 -6 -50.5 -18 -69.5s-25.167 -35.5 -39.5 -49.5l-39 -38
c-11.667 -11.333 -17.5 -23 -17.5 -35c0 -5.33301 2.16699 -10.333 6.5 -15s10 -9.33398 17 -14.001s15 -9.33398 24 -14.001s18.5 -10 28.5 -16c11.333 -6.66699 22.833 -14.5 34.5 -23.5s22 -19.5 31 -31.5s16.333 -26 22 -42s8.5 -34.333 8.5 -55
c0 -29.333 -5.66699 -54.333 -17 -75s-26.333 -37.5 -45 -50.5s-39.834 -22.5 -63.501 -28.5s-47.5 -9 -71.5 -9z" />
    <glyph glyph-name="agrave" unicode="&#xe0;" horiz-adv-x="549" 
d="M247 96c25.333 0 45.666 6.16797 60.999 18.501s27 25.5 35 39.5v76h-50c-37.333 0 -64.666 -6.5 -81.999 -19.5s-26 -30.167 -26 -51.5c0 -20.667 5.66699 -36.334 17 -47.001s26.333 -16 45 -16zM358 0.000976562c-1.33301 7.33301 -2.83496 16.8311 -4.50195 28.498
s-3.16699 23.167 -4.5 34.5c-13.333 -19.333 -32.166 -36.333 -56.499 -51s-55.833 -22 -94.5 -22c-21.333 0 -42 3 -62 9s-37.667 15.167 -53 27.5s-27.666 27.833 -36.999 46.5s-14 40.667 -14 66c0 54.667 20.833 97.667 62.5 129s106.834 47 195.501 47h53v13
c0 32 -8.33301 53.333 -25 64s-40 16 -70 16s-58.167 -4.16699 -84.5 -12.5s-50.833 -18.166 -73.5 -29.499l-30 119c24 11.333 54.5 21.5 91.5 30.5s76.833 13.5 119.5 13.5c34.667 0 66 -3.5 94 -10.5s52 -18.167 72 -33.5s35.333 -35.166 46 -59.499s16 -53.5 16 -87.5
v-254c0 -6 0.166992 -12.833 0.5 -20.5l1 -23.5c0.333008 -8 0.666016 -15.5 0.999023 -22.5s0.833008 -12.833 1.5 -17.5h-145zM217.998 587.999l-126 158h157l78 -158h-109z" />
    <glyph glyph-name="aacute" unicode="&#xe1;" horiz-adv-x="549" 
d="M247 96c25.333 0 45.666 6.16797 60.999 18.501s27 25.5 35 39.5v76h-50c-37.333 0 -64.666 -6.5 -81.999 -19.5s-26 -30.167 -26 -51.5c0 -20.667 5.66699 -36.334 17 -47.001s26.333 -16 45 -16zM358 0.000976562c-1.33301 7.33301 -2.83496 16.8311 -4.50195 28.498
s-3.16699 23.167 -4.5 34.5c-13.333 -19.333 -32.166 -36.333 -56.499 -51s-55.833 -22 -94.5 -22c-21.333 0 -42 3 -62 9s-37.667 15.167 -53 27.5s-27.666 27.833 -36.999 46.5s-14 40.667 -14 66c0 54.667 20.833 97.667 62.5 129s106.834 47 195.501 47h53v13
c0 32 -8.33301 53.333 -25 64s-40 16 -70 16s-58.167 -4.16699 -84.5 -12.5s-50.833 -18.166 -73.5 -29.499l-30 119c24 11.333 54.5 21.5 91.5 30.5s76.833 13.5 119.5 13.5c34.667 0 66 -3.5 94 -10.5s52 -18.167 72 -33.5s35.333 -35.166 46 -59.499s16 -53.5 16 -87.5
v-254c0 -6 0.166992 -12.833 0.5 -20.5l1 -23.5c0.333008 -8 0.666016 -15.5 0.999023 -22.5s0.833008 -12.833 1.5 -17.5h-145zM282.998 745.999h157l-126 -158h-110z" />
    <glyph glyph-name="acircumflex" unicode="&#xe2;" horiz-adv-x="549" 
d="M247 96c25.333 0 45.666 6.16797 60.999 18.501s27 25.5 35 39.5v76h-50c-37.333 0 -64.666 -6.5 -81.999 -19.5s-26 -30.167 -26 -51.5c0 -20.667 5.66699 -36.334 17 -47.001s26.333 -16 45 -16zM358 0.000976562c-1.33301 7.33301 -2.83496 16.8311 -4.50195 28.498
s-3.16699 23.167 -4.5 34.5c-13.333 -19.333 -32.166 -36.333 -56.499 -51s-55.833 -22 -94.5 -22c-21.333 0 -42 3 -62 9s-37.667 15.167 -53 27.5s-27.666 27.833 -36.999 46.5s-14 40.667 -14 66c0 54.667 20.833 97.667 62.5 129s106.834 47 195.501 47h53v13
c0 32 -8.33301 53.333 -25 64s-40 16 -70 16s-58.167 -4.16699 -84.5 -12.5s-50.833 -18.166 -73.5 -29.499l-30 119c24 11.333 54.5 21.5 91.5 30.5s76.833 13.5 119.5 13.5c34.667 0 66 -3.5 94 -10.5s52 -18.167 72 -33.5s35.333 -35.166 46 -59.499s16 -53.5 16 -87.5
v-254c0 -6 0.166992 -12.833 0.5 -20.5l1 -23.5c0.333008 -8 0.666016 -15.5 0.999023 -22.5s0.833008 -12.833 1.5 -17.5h-145zM271.998 654.999l-60 -67h-118l99 148h157l99 -148h-119z" />
    <glyph glyph-name="atilde" unicode="&#xe3;" horiz-adv-x="549" 
d="M247 96c25.333 0 45.666 6.16797 60.999 18.501s27 25.5 35 39.5v76h-50c-37.333 0 -64.666 -6.5 -81.999 -19.5s-26 -30.167 -26 -51.5c0 -20.667 5.66699 -36.334 17 -47.001s26.333 -16 45 -16zM358 0.000976562c-1.33301 7.33301 -2.83496 16.8311 -4.50195 28.498
s-3.16699 23.167 -4.5 34.5c-13.333 -19.333 -32.166 -36.333 -56.499 -51s-55.833 -22 -94.5 -22c-21.333 0 -42 3 -62 9s-37.667 15.167 -53 27.5s-27.666 27.833 -36.999 46.5s-14 40.667 -14 66c0 54.667 20.833 97.667 62.5 129s106.834 47 195.501 47h53v13
c0 32 -8.33301 53.333 -25 64s-40 16 -70 16s-58.167 -4.16699 -84.5 -12.5s-50.833 -18.166 -73.5 -29.499l-30 119c24 11.333 54.5 21.5 91.5 30.5s76.833 13.5 119.5 13.5c34.667 0 66 -3.5 94 -10.5s52 -18.167 72 -33.5s35.333 -35.166 46 -59.499s16 -53.5 16 -87.5
v-254c0 -6 0.166992 -12.833 0.5 -20.5l1 -23.5c0.333008 -8 0.666016 -15.5 0.999023 -22.5s0.833008 -12.833 1.5 -17.5h-145zM93.998 581.999c-1.33301 18.667 0.331055 37 4.99805 55s12 34 22 48s22.667 25.167 38 33.5s33.333 12.5 54 12.5
c15.333 0 28.666 -2.16699 39.999 -6.5s21.833 -9.16602 31.5 -14.499s18.834 -10.166 27.501 -14.499s18.334 -6.5 29.001 -6.5c10 0 18.167 3.33301 24.5 10s9.83301 19.667 10.5 39h75c0.666992 -18.667 -1.16602 -37 -5.49902 -55s-11.5 -34 -21.5 -48
s-22.833 -25.167 -38.5 -33.5s-33.834 -12.5 -54.501 -12.5c-15.333 0 -28.5 2.16699 -39.5 6.5s-21.333 9.16602 -31 14.499s-19 10.166 -28 14.499s-18.833 6.5 -29.5 6.5c-9.33301 0 -17.166 -3.16699 -23.499 -9.5s-9.83301 -19.5 -10.5 -39.5h-75v0z" />
    <glyph glyph-name="adieresis" unicode="&#xe4;" horiz-adv-x="549" 
d="M247 96c25.333 0 45.666 6.16797 60.999 18.501s27 25.5 35 39.5v76h-50c-37.333 0 -64.666 -6.5 -81.999 -19.5s-26 -30.167 -26 -51.5c0 -20.667 5.66699 -36.334 17 -47.001s26.333 -16 45 -16zM358 0.000976562c-1.33301 7.33301 -2.83496 16.8311 -4.50195 28.498
s-3.16699 23.167 -4.5 34.5c-13.333 -19.333 -32.166 -36.333 -56.499 -51s-55.833 -22 -94.5 -22c-21.333 0 -42 3 -62 9s-37.667 15.167 -53 27.5s-27.666 27.833 -36.999 46.5s-14 40.667 -14 66c0 54.667 20.833 97.667 62.5 129s106.834 47 195.501 47h53v13
c0 32 -8.33301 53.333 -25 64s-40 16 -70 16s-58.167 -4.16699 -84.5 -12.5s-50.833 -18.166 -73.5 -29.499l-30 119c24 11.333 54.5 21.5 91.5 30.5s76.833 13.5 119.5 13.5c34.667 0 66 -3.5 94 -10.5s52 -18.167 72 -33.5s35.333 -35.166 46 -59.499s16 -53.5 16 -87.5
v-254c0 -6 0.166992 -12.833 0.5 -20.5l1 -23.5c0.333008 -8 0.666016 -15.5 0.999023 -22.5s0.833008 -12.833 1.5 -17.5h-145zM385.998 574.999c-25.333 0 -46.5 8.33301 -63.5 25s-25.5 36.334 -25.5 59.001c0 24 8.5 44.167 25.5 60.5s38.167 24.5 63.5 24.5
c11.333 0 22.333 -2.16699 33 -6.5s20 -10.333 28 -18s14.5 -16.667 19.5 -27s7.5 -21.5 7.5 -33.5c0 -11.333 -2.5 -22 -7.5 -32s-11.5 -18.833 -19.5 -26.5s-17.333 -13.834 -28 -18.501s-21.667 -7 -33 -7zM157.998 574.999c-12 0 -23.166 2.33301 -33.499 7
s-19.333 10.834 -27 18.501s-13.834 16.5 -18.501 26.5s-7 20.667 -7 32c0 24 8.5 44.167 25.5 60.5s37.167 24.5 60.5 24.5c24.667 0 45.834 -8.16699 63.501 -24.5s26.5 -36.5 26.5 -60.5c0 -22.667 -8.83301 -42.334 -26.5 -59.001s-38.834 -25 -63.501 -25z" />
    <glyph glyph-name="aring" unicode="&#xe5;" horiz-adv-x="549" 
d="M247 96c25.333 0 45.666 6.16797 60.999 18.501s27 25.5 35 39.5v76h-50c-37.333 0 -64.666 -6.5 -81.999 -19.5s-26 -30.167 -26 -51.5c0 -20.667 5.66699 -36.334 17 -47.001s26.333 -16 45 -16zM358 0.000976562c-1.33301 7.33301 -2.83496 16.8311 -4.50195 28.498
s-3.16699 23.167 -4.5 34.5c-13.333 -19.333 -32.166 -36.333 -56.499 -51s-55.833 -22 -94.5 -22c-21.333 0 -42 3 -62 9s-37.667 15.167 -53 27.5s-27.666 27.833 -36.999 46.5s-14 40.667 -14 66c0 54.667 20.833 97.667 62.5 129s106.834 47 195.501 47h53v13
c0 32 -8.33301 53.333 -25 64s-40 16 -70 16s-58.167 -4.16699 -84.5 -12.5s-50.833 -18.166 -73.5 -29.499l-30 119c24 11.333 54.5 21.5 91.5 30.5s76.833 13.5 119.5 13.5c34.667 0 66 -3.5 94 -10.5s52 -18.167 72 -33.5s35.333 -35.166 46 -59.499s16 -53.5 16 -87.5
v-254c0 -6 0.166992 -12.833 0.5 -20.5l1 -23.5c0.333008 -8 0.666016 -15.5 0.999023 -22.5s0.833008 -12.833 1.5 -17.5h-145zM276.998 571.999c-18 0 -34.833 3.16699 -50.5 9.5s-29.5 15.166 -41.5 26.499s-21.333 24.833 -28 40.5s-10 32.834 -10 51.501
s3.33301 36 10 52s16 29.667 28 41s25.833 20.166 41.5 26.499s32.5 9.5 50.5 9.5c18.667 0 36.167 -3.16699 52.5 -9.5s30.666 -15.166 42.999 -26.499s22 -25 29 -41s10.5 -33.333 10.5 -52s-3.5 -35.834 -10.5 -51.501s-16.667 -29.167 -29 -40.5
s-26.666 -20.166 -42.999 -26.499s-33.833 -9.5 -52.5 -9.5zM276.998 649.999c14.667 0 26.667 4.66699 36 14s14 21.333 14 36s-4.66699 26.667 -14 36s-21.333 14 -36 14c-13.333 0 -24.333 -4.66699 -33 -14s-13 -21.333 -13 -36s4.33301 -26.667 13 -36
s19.667 -14 33 -14z" />
    <glyph glyph-name="ae" unicode="&#xe6;" horiz-adv-x="883" 
d="M611 414c-60 0 -96.667 -33.333 -110 -100h194c-0.666992 66.667 -28.667 100 -84 100zM247 99c14.667 0 27.666 2.33105 38.999 6.99805s21 10.834 29 18.501s14.5 15.834 19.5 24.501s9.16699 17 12.5 25v51h-54c-37.333 0 -64.666 -6.33301 -81.999 -19
s-26 -28.667 -26 -48c0 -21.333 5.66699 -36.5 17 -45.5s26.333 -13.5 45 -13.5zM833.999 36.998c-12.667 -8.66699 -28.334 -16.665 -47.001 -23.998c-16 -6 -36 -11.333 -60 -16s-52.333 -7 -85 -7c-56 0 -102.833 7.66699 -140.5 23s-68.167 37.666 -91.5 66.999
c-7.33301 -10.667 -16.833 -21.334 -28.5 -32.001s-25.667 -20.334 -42 -29.001s-35.5 -15.667 -57.5 -21s-47.333 -8 -76 -8c-23.333 0 -45.5 3 -66.5 9s-39.5 15 -55.5 27s-28.667 27.333 -38 46s-14 41 -14 67c0 55.333 21.167 98.333 63.5 129s103.5 46 183.5 46h68v17
c0 32 -9 53.333 -27 64s-42 16 -72 16s-58.167 -4.16699 -84.5 -12.5s-50.833 -18.166 -73.5 -29.499l-30 119c24 11.333 54.167 21.5 90.5 30.5s73.166 13.5 110.499 13.5c42 0 78.5 -5 109.5 -15s55.5 -26.667 73.5 -50c20.667 20 44.834 35.333 72.501 46
s58.167 16 91.5 16c40 0 76.333 -6.5 109 -19.5s59.834 -32.5 81.501 -58.5s36.667 -58.333 45 -97s8.5 -83.667 0.5 -135h-346c5.33301 -36 19 -63 41 -81s58 -27 108 -27c24.667 0 46.667 2 66 6s35.833 8.5 49.5 13.5s24 9.5 31 13.5s10.5 6.33301 10.5 7z" />
    <glyph glyph-name="ccedilla" unicode="&#xe7;" horiz-adv-x="515" 
d="M201 8c-36 12.667 -66.833 30.501 -92.5 53.501s-45.334 51.167 -59.001 84.5s-20.5 71.333 -20.5 114c0 42 6.83301 79.667 20.5 113s33 61.5 58 84.5s54.667 40.667 89 53s72.5 18.5 114.5 18.5c40 0 73.833 -4.33301 101.5 -13s49.167 -18.334 64.5 -29.001l-29 -113
c-17.333 11.333 -36 19.833 -56 25.5s-45.333 8.5 -76 8.5c-38.667 0 -69.5 -12.167 -92.5 -36.5s-34.5 -61.5 -34.5 -111.5s12 -87.333 36 -112s58.667 -37 104 -37c28.667 0 52.334 3.33301 71.001 10s36 14.667 52 24l28 -115c-15.333 -10.667 -36 -20 -62 -28
c-20.667 -6 -45.667 -9.66699 -75 -11l-49 -178h-151l82 188c-8 2 -16 4.33301 -24 7z" />
    <glyph glyph-name="egrave" unicode="&#xe8;" horiz-adv-x="579" 
d="M301 418c-59.333 0 -95.667 -33.001 -109 -99.001h199c0.666992 32.667 -6.83301 57.334 -22.5 74.001s-38.167 25 -67.5 25zM524.999 35.999c-13.333 -8.66699 -29.333 -16.332 -48 -22.999c-16 -6 -36 -11.333 -60 -16s-52.667 -7 -86 -7
c-102.667 0 -178.667 23.667 -228 71s-74 113.666 -74 198.999c0 42 6.5 79.667 19.5 113s31.167 61.5 54.5 84.5s51.666 40.667 84.999 53s70 18.5 110 18.5c40.667 0 77.667 -6.5 111 -19.5s61 -32.5 83 -58.5s37.333 -58.5 46 -97.5s9 -84.833 1 -137.5h-349
c5.33301 -35.333 19.333 -61.833 42 -79.5s58 -26.5 106 -26.5c24.667 0 46.834 1.83301 66.501 5.5s36.167 8.16699 49.5 13.5c16 6 29.667 12.667 41 20zM235.999 588.001l-126 158h157l78 -158h-109z" />
    <glyph glyph-name="eacute" unicode="&#xe9;" horiz-adv-x="579" 
d="M301 418c-59.333 0 -95.667 -33.001 -109 -99.001h199c0.666992 32.667 -6.83301 57.334 -22.5 74.001s-38.167 25 -67.5 25zM524.999 35.999c-13.333 -8.66699 -29.333 -16.332 -48 -22.999c-16 -6 -36 -11.333 -60 -16s-52.667 -7 -86 -7
c-102.667 0 -178.667 23.667 -228 71s-74 113.666 -74 198.999c0 42 6.5 79.667 19.5 113s31.167 61.5 54.5 84.5s51.666 40.667 84.999 53s70 18.5 110 18.5c40.667 0 77.667 -6.5 111 -19.5s61 -32.5 83 -58.5s37.333 -58.5 46 -97.5s9 -84.833 1 -137.5h-349
c5.33301 -35.333 19.333 -61.833 42 -79.5s58 -26.5 106 -26.5c24.667 0 46.834 1.83301 66.501 5.5s36.167 8.16699 49.5 13.5c16 6 29.667 12.667 41 20zM300.999 746.001h157l-126 -158h-110z" />
    <glyph glyph-name="ecircumflex" unicode="&#xea;" horiz-adv-x="579" 
d="M301 418c-59.333 0 -95.667 -33.001 -109 -99.001h199c0.666992 32.667 -6.83301 57.334 -22.5 74.001s-38.167 25 -67.5 25zM524.999 35.999c-13.333 -8.66699 -29.333 -16.332 -48 -22.999c-16 -6 -36 -11.333 -60 -16s-52.667 -7 -86 -7
c-102.667 0 -178.667 23.667 -228 71s-74 113.666 -74 198.999c0 42 6.5 79.667 19.5 113s31.167 61.5 54.5 84.5s51.666 40.667 84.999 53s70 18.5 110 18.5c40.667 0 77.667 -6.5 111 -19.5s61 -32.5 83 -58.5s37.333 -58.5 46 -97.5s9 -84.833 1 -137.5h-349
c5.33301 -35.333 19.333 -61.833 42 -79.5s58 -26.5 106 -26.5c24.667 0 46.834 1.83301 66.501 5.5s36.167 8.16699 49.5 13.5c16 6 29.667 12.667 41 20zM288.999 655.001l-60 -67h-118l99 148h157l99 -148h-119z" />
    <glyph glyph-name="edieresis" unicode="&#xeb;" horiz-adv-x="579" 
d="M301 418c-59.333 0 -95.667 -33.001 -109 -99.001h199c0.666992 32.667 -6.83301 57.334 -22.5 74.001s-38.167 25 -67.5 25zM524.999 35.999c-13.333 -8.66699 -29.333 -16.332 -48 -22.999c-16 -6 -36 -11.333 -60 -16s-52.667 -7 -86 -7
c-102.667 0 -178.667 23.667 -228 71s-74 113.666 -74 198.999c0 42 6.5 79.667 19.5 113s31.167 61.5 54.5 84.5s51.666 40.667 84.999 53s70 18.5 110 18.5c40.667 0 77.667 -6.5 111 -19.5s61 -32.5 83 -58.5s37.333 -58.5 46 -97.5s9 -84.833 1 -137.5h-349
c5.33301 -35.333 19.333 -61.833 42 -79.5s58 -26.5 106 -26.5c24.667 0 46.834 1.83301 66.501 5.5s36.167 8.16699 49.5 13.5c16 6 29.667 12.667 41 20zM402.999 575.001c-25.333 0 -46.5 8.33301 -63.5 25s-25.5 36.334 -25.5 59.001c0 24 8.5 44.167 25.5 60.5
s38.167 24.5 63.5 24.5c11.333 0 22.333 -2.16699 33 -6.5s20 -10.333 28 -18s14.5 -16.667 19.5 -27s7.5 -21.5 7.5 -33.5c0 -11.333 -2.5 -22 -7.5 -32s-11.5 -18.833 -19.5 -26.5s-17.333 -13.834 -28 -18.501s-21.667 -7 -33 -7zM174.999 575.001
c-12 0 -23.166 2.33301 -33.499 7s-19.333 10.834 -27 18.501s-13.834 16.5 -18.501 26.5s-7 20.667 -7 32c0 24 8.5 44.167 25.5 60.5s37.167 24.5 60.5 24.5c24.667 0 45.834 -8.16699 63.501 -24.5s26.5 -36.5 26.5 -60.5c0 -22.667 -8.83301 -42.334 -26.5 -59.001
s-38.834 -25 -63.501 -25z" />
    <glyph glyph-name="igrave" unicode="&#xec;" horiz-adv-x="269" 
d="M212 519v-519h-155v519h155zM80 588l-126 158h157l78 -158h-109z" />
    <glyph glyph-name="iacute" unicode="&#xed;" horiz-adv-x="269" 
d="M212 519v-519h-155v519h155zM145 746h157l-126 -158h-110z" />
    <glyph glyph-name="icircumflex" unicode="&#xee;" horiz-adv-x="269" 
d="M212 519v-519h-155v519h155zM133 655l-60 -67h-118l99 148h157l99 -148h-119z" />
    <glyph glyph-name="idieresis" unicode="&#xef;" horiz-adv-x="269" 
d="M233 569c-12 0 -23.3311 2.33301 -33.998 7s-19.834 10.834 -27.501 18.501s-13.834 16.5 -18.501 26.5s-7 20.667 -7 32c0 24 8.5 44.167 25.5 60.5s37.5 24.5 61.5 24.5c12 0 23.333 -2.16699 34 -6.5s20 -10.333 28 -18s14.333 -16.667 19 -27s7 -21.5 7 -33.5
c0 -11.333 -2.33301 -22 -7 -32s-11 -18.833 -19 -26.5s-17.333 -13.834 -28 -18.501s-22 -7 -34 -7zM34.002 569c-12 0 -23.3311 2.33301 -33.998 7s-19.834 10.834 -27.501 18.501s-13.834 16.5 -18.501 26.5s-7 20.667 -7 32c0 24 8.5 44.167 25.5 60.5
s37.5 24.5 61.5 24.5s44.667 -8.16699 62 -24.5s26 -36.5 26 -60.5c0 -11.333 -2.33301 -22 -7 -32s-11 -18.833 -19 -26.5s-17.333 -13.834 -28 -18.501s-22 -7 -34 -7zM212.004 519v-519h-155v519h155z" />
    <glyph glyph-name="eth" unicode="&#xf0;" horiz-adv-x="598" 
d="M290 -10c-33.333 0 -65.4951 5.33203 -96.4951 15.999s-58.833 26.667 -83.5 48s-44.334 48.5 -59.001 81.5s-22 71.833 -22 116.5s6.66699 83.5 20 116.5s30.666 60.5 51.999 82.5s45.666 38.333 72.999 49s55 16 83 16s50.167 -4.16699 66.5 -12.5
s30.833 -19.833 43.5 -34.5c-20.667 40.667 -47.334 77 -80.001 109l-166 -51l-24 79l112 35c-19.333 13.333 -39.333 25.333 -60 36s-41.334 20.667 -62.001 30v9h205c8 -3.33301 16.5 -7.66602 25.5 -12.999l29.5 -18l105 33l23 -81l-51 -16c18 -18 35.5 -38.333 52.5 -61
s32 -47.834 45 -75.501s23.5 -57.667 31.5 -90s12 -66.833 12 -103.5c0 -58 -8.33301 -106.167 -25 -144.5s-38.167 -69.166 -64.5 -92.499s-55.833 -39.833 -88.5 -49.5s-65 -14.5 -97 -14.5zM296.005 110.999c16 0 30.501 3.16699 43.501 9.5s24.333 16.5 34 30.5
s17.167 32.5 22.5 55.5s8 51.167 8 84.5c0 26.667 -2 52.667 -6 78c-12 13.333 -24.833 23 -38.5 29s-32.834 9 -57.501 9c-34 0 -61.333 -13.5 -82 -40.5s-31 -64.5 -31 -112.5s10.167 -83.833 30.5 -107.5s45.833 -35.5 76.5 -35.5z" />
    <glyph glyph-name="ntilde" unicode="&#xf1;" horiz-adv-x="600" 
d="M321 408c-24.667 0 -46.334 -4.5 -65.001 -13.5s-33.667 -20.5 -45 -34.5v-360h-155v519h146l6 -73h2c14.667 23.333 35.167 43 61.5 59s59.833 24 100.5 24c24.667 0 47.834 -3.5 69.501 -10.5s40.5 -17.333 56.5 -31s28.5 -31 37.5 -52s13.5 -45.5 13.5 -73.5v-362
h-155v346c0 22.667 -6.5 38.667 -19.5 48s-30.833 14 -53.5 14zM125 582c-1.33301 18.667 0.331055 37 4.99805 55s12 34 22 48s22.667 25.167 38 33.5s33.333 12.5 54 12.5c15.333 0 28.666 -2.16699 39.999 -6.5s21.833 -9.16602 31.5 -14.499
s18.834 -10.166 27.501 -14.499s18.334 -6.5 29.001 -6.5c10 0 18.167 3.33301 24.5 10s9.83301 19.667 10.5 39h75c0.666992 -18.667 -1.16602 -37 -5.49902 -55s-11.5 -34 -21.5 -48s-22.833 -25.167 -38.5 -33.5s-33.834 -12.5 -54.501 -12.5
c-15.333 0 -28.5 2.16699 -39.5 6.5s-21.333 9.16602 -31 14.499s-19 10.166 -28 14.499s-18.833 6.5 -29.5 6.5c-9.33301 0 -17.166 -3.16699 -23.499 -9.5s-9.83301 -19.5 -10.5 -39.5h-75v0z" />
    <glyph glyph-name="ograve" unicode="&#xf2;" horiz-adv-x="594" 
d="M296 -10c-38 0 -73.167 5.83301 -105.5 17.5s-60.5 29 -84.5 52s-42.833 51.167 -56.5 84.5s-20.5 72 -20.5 116c0 43.333 6.83301 81.833 20.5 115.5s32.5 61.834 56.5 84.501s52.167 39.834 84.5 51.501s67.5 17.5 105.5 17.5s73.333 -5.83301 106 -17.5
s61.167 -28.834 85.5 -51.501s43.333 -50.834 57 -84.501s20.5 -72.167 20.5 -115.5c0 -44 -6.83301 -82.667 -20.5 -116s-32.667 -61.5 -57 -84.5s-52.833 -40.333 -85.5 -52s-68 -17.5 -106 -17.5zM296 109c32 0 58.167 12.167 78.5 36.5s30.5 62.5 30.5 114.5
c0 50 -10.167 87.333 -30.5 112s-46.5 37 -78.5 37c-30.667 0 -56.167 -12.333 -76.5 -37s-30.5 -62 -30.5 -112c0 -52 10.167 -90.167 30.5 -114.5s45.833 -36.5 76.5 -36.5zM243 588l-126 158h157l78 -158h-109z" />
    <glyph glyph-name="oacute" unicode="&#xf3;" horiz-adv-x="594" 
d="M296 -10c-38 0 -73.167 5.83301 -105.5 17.5s-60.5 29 -84.5 52s-42.833 51.167 -56.5 84.5s-20.5 72 -20.5 116c0 43.333 6.83301 81.833 20.5 115.5s32.5 61.834 56.5 84.501s52.167 39.834 84.5 51.501s67.5 17.5 105.5 17.5s73.333 -5.83301 106 -17.5
s61.167 -28.834 85.5 -51.501s43.333 -50.834 57 -84.501s20.5 -72.167 20.5 -115.5c0 -44 -6.83301 -82.667 -20.5 -116s-32.667 -61.5 -57 -84.5s-52.833 -40.333 -85.5 -52s-68 -17.5 -106 -17.5zM296 109c32 0 58.167 12.167 78.5 36.5s30.5 62.5 30.5 114.5
c0 50 -10.167 87.333 -30.5 112s-46.5 37 -78.5 37c-30.667 0 -56.167 -12.333 -76.5 -37s-30.5 -62 -30.5 -112c0 -52 10.167 -90.167 30.5 -114.5s45.833 -36.5 76.5 -36.5zM308 746h157l-126 -158h-110z" />
    <glyph glyph-name="ocircumflex" unicode="&#xf4;" horiz-adv-x="594" 
d="M296 -10c-38 0 -73.167 5.83301 -105.5 17.5s-60.5 29 -84.5 52s-42.833 51.167 -56.5 84.5s-20.5 72 -20.5 116c0 43.333 6.83301 81.833 20.5 115.5s32.5 61.834 56.5 84.501s52.167 39.834 84.5 51.501s67.5 17.5 105.5 17.5s73.333 -5.83301 106 -17.5
s61.167 -28.834 85.5 -51.501s43.333 -50.834 57 -84.501s20.5 -72.167 20.5 -115.5c0 -44 -6.83301 -82.667 -20.5 -116s-32.667 -61.5 -57 -84.5s-52.833 -40.333 -85.5 -52s-68 -17.5 -106 -17.5zM296 109c32 0 58.167 12.167 78.5 36.5s30.5 62.5 30.5 114.5
c0 50 -10.167 87.333 -30.5 112s-46.5 37 -78.5 37c-30.667 0 -56.167 -12.333 -76.5 -37s-30.5 -62 -30.5 -112c0 -52 10.167 -90.167 30.5 -114.5s45.833 -36.5 76.5 -36.5zM296 655l-60 -67h-118l99 148h157l99 -148h-119z" />
    <glyph glyph-name="otilde" unicode="&#xf5;" horiz-adv-x="594" 
d="M296 -10c-38 0 -73.167 5.83301 -105.5 17.5s-60.5 29 -84.5 52s-42.833 51.167 -56.5 84.5s-20.5 72 -20.5 116c0 43.333 6.83301 81.833 20.5 115.5s32.5 61.834 56.5 84.501s52.167 39.834 84.5 51.501s67.5 17.5 105.5 17.5s73.333 -5.83301 106 -17.5
s61.167 -28.834 85.5 -51.501s43.333 -50.834 57 -84.501s20.5 -72.167 20.5 -115.5c0 -44 -6.83301 -82.667 -20.5 -116s-32.667 -61.5 -57 -84.5s-52.833 -40.333 -85.5 -52s-68 -17.5 -106 -17.5zM296 109c32 0 58.167 12.167 78.5 36.5s30.5 62.5 30.5 114.5
c0 50 -10.167 87.333 -30.5 112s-46.5 37 -78.5 37c-30.667 0 -56.167 -12.333 -76.5 -37s-30.5 -62 -30.5 -112c0 -52 10.167 -90.167 30.5 -114.5s45.833 -36.5 76.5 -36.5zM118 582c-1.33301 18.667 0.331055 37 4.99805 55s12 34 22 48s22.667 25.167 38 33.5
s33.333 12.5 54 12.5c15.333 0 28.666 -2.16699 39.999 -6.5s21.833 -9.16602 31.5 -14.499s18.834 -10.166 27.501 -14.499s18.334 -6.5 29.001 -6.5c10 0 18.167 3.33301 24.5 10s9.83301 19.667 10.5 39h75c0.666992 -18.667 -1.16602 -37 -5.49902 -55
s-11.5 -34 -21.5 -48s-22.833 -25.167 -38.5 -33.5s-33.834 -12.5 -54.501 -12.5c-15.333 0 -28.5 2.16699 -39.5 6.5s-21.333 9.16602 -31 14.499s-19 10.166 -28 14.499s-18.833 6.5 -29.5 6.5c-9.33301 0 -17.166 -3.16699 -23.499 -9.5s-9.83301 -19.5 -10.5 -39.5h-75
v0z" />
    <glyph glyph-name="odieresis" unicode="&#xf6;" horiz-adv-x="594" 
d="M296 -10c-38 0 -73.167 5.83301 -105.5 17.5s-60.5 29 -84.5 52s-42.833 51.167 -56.5 84.5s-20.5 72 -20.5 116c0 43.333 6.83301 81.833 20.5 115.5s32.5 61.834 56.5 84.501s52.167 39.834 84.5 51.501s67.5 17.5 105.5 17.5s73.333 -5.83301 106 -17.5
s61.167 -28.834 85.5 -51.501s43.333 -50.834 57 -84.501s20.5 -72.167 20.5 -115.5c0 -44 -6.83301 -82.667 -20.5 -116s-32.667 -61.5 -57 -84.5s-52.833 -40.333 -85.5 -52s-68 -17.5 -106 -17.5zM296 109c32 0 58.167 12.167 78.5 36.5s30.5 62.5 30.5 114.5
c0 50 -10.167 87.333 -30.5 112s-46.5 37 -78.5 37c-30.667 0 -56.167 -12.333 -76.5 -37s-30.5 -62 -30.5 -112c0 -52 10.167 -90.167 30.5 -114.5s45.833 -36.5 76.5 -36.5zM410 575c-25.333 0 -46.5 8.33301 -63.5 25s-25.5 36.334 -25.5 59.001
c0 24 8.5 44.167 25.5 60.5s38.167 24.5 63.5 24.5c11.333 0 22.333 -2.16699 33 -6.5s20 -10.333 28 -18s14.5 -16.667 19.5 -27s7.5 -21.5 7.5 -33.5c0 -11.333 -2.5 -22 -7.5 -32s-11.5 -18.833 -19.5 -26.5s-17.333 -13.834 -28 -18.501s-21.667 -7 -33 -7zM182 575
c-12 0 -23.166 2.33301 -33.499 7s-19.333 10.834 -27 18.501s-13.834 16.5 -18.501 26.5s-7 20.667 -7 32c0 24 8.5 44.167 25.5 60.5s37.167 24.5 60.5 24.5c24.667 0 45.834 -8.16699 63.501 -24.5s26.5 -36.5 26.5 -60.5c0 -22.667 -8.83301 -42.334 -26.5 -59.001
s-38.834 -25 -63.501 -25z" />
    <glyph glyph-name="divide" unicode="&#xf7;" 
d="M295 23c-14 0 -27.167 2.66699 -39.5 8s-23 12.5 -32 21.5s-16 19.333 -21 31s-7.5 24.167 -7.5 37.5s2.5 25.833 7.5 37.5s12 22 21 31s19.667 16 32 21s25.5 7.5 39.5 7.5s27.167 -2.5 39.5 -7.5s23 -12 32 -21s16.167 -19.333 21.5 -31s8 -24.167 8 -37.5
s-2.66699 -25.833 -8 -37.5s-12.5 -22 -21.5 -31s-19.667 -16.167 -32 -21.5s-25.5 -8 -39.5 -8zM295 456c-14 0 -27.167 2.66699 -39.5 8s-23 12.5 -32 21.5s-16 19.333 -21 31s-7.5 24.167 -7.5 37.5s2.5 25.833 7.5 37.5s12 22 21 31s19.667 16 32 21s25.5 7.5 39.5 7.5
s27.167 -2.5 39.5 -7.5s23 -12 32 -21s16.167 -19.333 21.5 -31s8 -24.167 8 -37.5s-2.66699 -25.833 -8 -37.5s-12.5 -22 -21.5 -31s-19.667 -16.167 -32 -21.5s-25.5 -8 -39.5 -8zM37 282v110h507v-110h-507z" />
    <glyph glyph-name="oslash" unicode="&#xf8;" horiz-adv-x="594" 
d="M189 260c0 -30.667 4 -56.333 12 -77l132 218c-10 4.66699 -22.333 7 -37 7c-30.667 0 -56.167 -12.167 -76.5 -36.5s-30.5 -61.5 -30.5 -111.5zM296 111.001c32 0 58 12.333 78 37s30 62 30 112c0 14 -0.833008 27 -2.5 39s-4.16699 22.667 -7.5 32l-128 -216
c8.66699 -2.66699 18.667 -4 30 -4zM296 -9.99902c-33.333 0 -65 4.66504 -95 13.998l-50 -84h-109l77 128c-28 22.667 -50 51.667 -66 87s-24 77 -24 125c0 43.333 6.83301 81.833 20.5 115.5s32.5 61.834 56.5 84.501s52.167 39.834 84.5 51.501s67.5 17.5 105.5 17.5
c37.333 0 72 -5.66699 104 -17l53 87h99l-76 -129c28 -22.667 49.833 -51.5 65.5 -86.5s23.5 -76.167 23.5 -123.5c0 -44 -6.83301 -82.667 -20.5 -116s-32.667 -61.5 -57 -84.5s-52.833 -40.333 -85.5 -52s-68 -17.5 -106 -17.5z" />
    <glyph glyph-name="ugrave" unicode="&#xf9;" horiz-adv-x="594" 
d="M383 73c-13.333 -23.333 -32.833 -43 -58.5 -59s-59.5 -24 -101.5 -24c-50 0 -91.167 14.5 -123.5 43.5s-48.5 72.833 -48.5 131.5v354h157v-346c0 -24 7 -40.333 21 -49s30.333 -13 49 -13c24 0 44.667 4.5 62 13.5s31.333 20.5 42 34.5v360h155v-519h-145l-6 73h-3v0z
M240 588l-126 158h157l78 -158h-109z" />
    <glyph glyph-name="uacute" unicode="&#xfa;" horiz-adv-x="594" 
d="M383 73c-13.333 -23.333 -32.833 -43 -58.5 -59s-59.5 -24 -101.5 -24c-50 0 -91.167 14.5 -123.5 43.5s-48.5 72.833 -48.5 131.5v354h157v-346c0 -24 7 -40.333 21 -49s30.333 -13 49 -13c24 0 44.667 4.5 62 13.5s31.333 20.5 42 34.5v360h155v-519h-145l-6 73h-3v0z
M305 746h157l-126 -158h-110z" />
    <glyph glyph-name="ucircumflex" unicode="&#xfb;" horiz-adv-x="594" 
d="M383 73c-13.333 -23.333 -32.833 -43 -58.5 -59s-59.5 -24 -101.5 -24c-50 0 -91.167 14.5 -123.5 43.5s-48.5 72.833 -48.5 131.5v354h157v-346c0 -24 7 -40.333 21 -49s30.333 -13 49 -13c24 0 44.667 4.5 62 13.5s31.333 20.5 42 34.5v360h155v-519h-145l-6 73h-3v0z
M293 655l-60 -67h-118l99 148h157l99 -148h-119z" />
    <glyph glyph-name="udieresis" unicode="&#xfc;" horiz-adv-x="594" 
d="M383 73c-13.333 -23.333 -32.833 -43 -58.5 -59s-59.5 -24 -101.5 -24c-50 0 -91.167 14.5 -123.5 43.5s-48.5 72.833 -48.5 131.5v354h157v-346c0 -24 7 -40.333 21 -49s30.333 -13 49 -13c24 0 44.667 4.5 62 13.5s31.333 20.5 42 34.5v360h155v-519h-145l-6 73h-3v0z
M407 575c-25.333 0 -46.5 8.33301 -63.5 25s-25.5 36.334 -25.5 59.001c0 24 8.5 44.167 25.5 60.5s38.167 24.5 63.5 24.5c11.333 0 22.333 -2.16699 33 -6.5s20 -10.333 28 -18s14.5 -16.667 19.5 -27s7.5 -21.5 7.5 -33.5c0 -11.333 -2.5 -22 -7.5 -32
s-11.5 -18.833 -19.5 -26.5s-17.333 -13.834 -28 -18.501s-21.667 -7 -33 -7zM179 575c-12 0 -23.166 2.33301 -33.499 7s-19.333 10.834 -27 18.501s-13.834 16.5 -18.501 26.5s-7 20.667 -7 32c0 24 8.5 44.167 25.5 60.5s37.167 24.5 60.5 24.5
c24.667 0 45.834 -8.16699 63.501 -24.5s26.5 -36.5 26.5 -60.5c0 -22.667 -8.83301 -42.334 -26.5 -59.001s-38.834 -25 -63.501 -25z" />
    <glyph glyph-name="yacute" unicode="&#xfd;" horiz-adv-x="559" 
d="M155 -187c-19.333 0 -39.8359 1.83301 -61.5029 5.5s-38.167 8.16699 -49.5 13.5l18 119c12 -4.66699 24.333 -8.33398 37 -11.001s27.334 -4 44.001 -4c16 0 30.167 3.33301 42.5 10s22.166 15.667 29.499 27l-205 546h163l119 -354l114 354h142l-178 -513
c-11.333 -31.333 -23.166 -59 -35.499 -83s-26.666 -44.167 -42.999 -60.5s-35.666 -28.666 -57.999 -36.999s-48.5 -12.5 -78.5 -12.5zM298.997 746h157l-126 -158h-110z" />
    <glyph glyph-name="thorn" unicode="&#xfe;" horiz-adv-x="633" 
d="M330 111c34 0 61.833 12.333 83.5 37s32.5 62 32.5 112s-10.667 87.167 -32 111.5s-49 36.5 -83 36.5s-62.5 -12.167 -85.5 -36.5s-34.5 -61.5 -34.5 -111.5c0 -50.667 11.333 -88.167 34 -112.5s51 -36.5 85 -36.5zM378 -10c-39.333 0 -72.665 8.5 -99.998 25.5
s-49.666 39.5 -66.999 67.5v-260h-155v893h155v-275c17.333 28 39.666 49.667 66.999 65s60.333 23 99 23c30.667 0 60 -5.5 88 -16.5s52.333 -27.667 73 -50s37.167 -50.333 49.5 -84s18.5 -73.167 18.5 -118.5c0 -46 -6.16699 -85.833 -18.5 -119.5
s-28.833 -61.667 -49.5 -84s-44.834 -39 -72.501 -50s-56.834 -16.5 -87.501 -16.5z" />
    <glyph glyph-name="ydieresis" unicode="&#xff;" horiz-adv-x="559" 
d="M155 -187c-19.333 0 -39.8359 1.83301 -61.5029 5.5s-38.167 8.16699 -49.5 13.5l18 119c12 -4.66699 24.333 -8.33398 37 -11.001s27.334 -4 44.001 -4c16 0 30.167 3.33301 42.5 10s22.166 15.667 29.499 27l-205 546h163l119 -354l114 354h142l-178 -513
c-11.333 -31.333 -23.166 -59 -35.499 -83s-26.666 -44.167 -42.999 -60.5s-35.666 -28.666 -57.999 -36.999s-48.5 -12.5 -78.5 -12.5zM400.997 575c-25.333 0 -46.5 8.33301 -63.5 25s-25.5 36.334 -25.5 59.001c0 24 8.5 44.167 25.5 60.5s38.167 24.5 63.5 24.5
c11.333 0 22.333 -2.16699 33 -6.5s20 -10.333 28 -18s14.5 -16.667 19.5 -27s7.5 -21.5 7.5 -33.5c0 -11.333 -2.5 -22 -7.5 -32s-11.5 -18.833 -19.5 -26.5s-17.333 -13.834 -28 -18.501s-21.667 -7 -33 -7zM172.997 575c-12 0 -23.166 2.33301 -33.499 7
s-19.333 10.834 -27 18.501s-13.834 16.5 -18.501 26.5s-7 20.667 -7 32c0 24 8.5 44.167 25.5 60.5s37.167 24.5 60.5 24.5c24.667 0 45.834 -8.16699 63.501 -24.5s26.5 -36.5 26.5 -60.5c0 -22.667 -8.83301 -42.334 -26.5 -59.001s-38.834 -25 -63.501 -25z" />
    <glyph glyph-name="Amacron" unicode="&#x100;" horiz-adv-x="686" 
d="M332 558l-90 -270h179zM462 164h-261l-55 -164h-136l241 716h184l240 -716h-159zM179 902h326v-110h-326v110z" />
    <glyph glyph-name="amacron" unicode="&#x101;" horiz-adv-x="549" 
d="M247 96c25.333 0 45.666 6.16797 60.999 18.501s27 25.5 35 39.5v76h-50c-37.333 0 -64.666 -6.5 -81.999 -19.5s-26 -30.167 -26 -51.5c0 -20.667 5.66699 -36.334 17 -47.001s26.333 -16 45 -16zM358 0.000976562c-1.33301 7.33301 -2.83496 16.8311 -4.50195 28.498
s-3.16699 23.167 -4.5 34.5c-13.333 -19.333 -32.166 -36.333 -56.499 -51s-55.833 -22 -94.5 -22c-21.333 0 -42 3 -62 9s-37.667 15.167 -53 27.5s-27.666 27.833 -36.999 46.5s-14 40.667 -14 66c0 54.667 20.833 97.667 62.5 129s106.834 47 195.501 47h53v13
c0 32 -8.33301 53.333 -25 64s-40 16 -70 16s-58.167 -4.16699 -84.5 -12.5s-50.833 -18.166 -73.5 -29.499l-30 119c24 11.333 54.5 21.5 91.5 30.5s76.833 13.5 119.5 13.5c34.667 0 66 -3.5 94 -10.5s52 -18.167 72 -33.5s35.333 -35.166 46 -59.499s16 -53.5 16 -87.5
v-254c0 -6 0.166992 -12.833 0.5 -20.5l1 -23.5c0.333008 -8 0.666016 -15.5 0.999023 -22.5s0.833008 -12.833 1.5 -17.5h-145zM113.998 696.999h317v-105h-317v105z" />
    <glyph glyph-name="Abreve" unicode="&#x102;" horiz-adv-x="686" 
d="M332 558l-90 -270h179zM462 164h-261l-55 -164h-136l241 716h184l240 -716h-159zM342 765c-30 0 -56.168 4.5 -78.501 13.5s-40.666 21 -54.999 36s-25.166 32.333 -32.499 52s-11 40.5 -11 62.5h113c0 -17.333 5.5 -31.333 16.5 -42s26.833 -16 47.5 -16
c21.333 0 37.166 5.33301 47.499 16s15.5 24.667 15.5 42h114c0 -22 -3.66699 -42.833 -11 -62.5s-18.333 -37 -33 -52s-33 -27 -55 -36s-48 -13.5 -78 -13.5z" />
    <glyph glyph-name="abreve" unicode="&#x103;" horiz-adv-x="549" 
d="M247 96c25.333 0 45.666 6.16797 60.999 18.501s27 25.5 35 39.5v76h-50c-37.333 0 -64.666 -6.5 -81.999 -19.5s-26 -30.167 -26 -51.5c0 -20.667 5.66699 -36.334 17 -47.001s26.333 -16 45 -16zM358 0.000976562c-1.33301 7.33301 -2.83496 16.8311 -4.50195 28.498
s-3.16699 23.167 -4.5 34.5c-13.333 -19.333 -32.166 -36.333 -56.499 -51s-55.833 -22 -94.5 -22c-21.333 0 -42 3 -62 9s-37.667 15.167 -53 27.5s-27.666 27.833 -36.999 46.5s-14 40.667 -14 66c0 54.667 20.833 97.667 62.5 129s106.834 47 195.501 47h53v13
c0 32 -8.33301 53.333 -25 64s-40 16 -70 16s-58.167 -4.16699 -84.5 -12.5s-50.833 -18.166 -73.5 -29.499l-30 119c24 11.333 54.5 21.5 91.5 30.5s76.833 13.5 119.5 13.5c34.667 0 66 -3.5 94 -10.5s52 -18.167 72 -33.5s35.333 -35.166 46 -59.499s16 -53.5 16 -87.5
v-254c0 -6 0.166992 -12.833 0.5 -20.5l1 -23.5c0.333008 -8 0.666016 -15.5 0.999023 -22.5s0.833008 -12.833 1.5 -17.5h-145zM272.998 579.999c-27.333 0 -51.1699 4.33301 -71.5029 13s-37.166 20.167 -50.499 34.5s-23.333 31 -30 50s-10 38.5 -10 58.5h106
c0 -16.667 5.16699 -29.834 15.5 -39.501s23.833 -14.5 40.5 -14.5s30 4.83301 40 14.5s15 22.834 15 39.501h107c0 -20 -3.33301 -39.5 -10 -58.5s-16.667 -35.667 -30 -50s-30.166 -25.833 -50.499 -34.5s-44.166 -13 -71.499 -13z" />
    <glyph glyph-name="Aogonek" unicode="&#x104;" horiz-adv-x="686" 
d="M614 -185c-42.667 0 -73.502 8.00293 -92.502 24.0029s-28.5 35.667 -28.5 59c0 15.333 3.16699 28.666 9.5 39.999s14.5 21.333 24.5 30l-65 196h-261l-55 -164h-136l241 716h184l240 -716c-11.333 -7.33301 -22.5 -17.833 -33.5 -31.5s-16.5 -27.834 -16.5 -42.501
c0 -18.667 10.667 -28 32 -28c6 0 11.667 0.666992 17 2s10 2.66602 14 3.99902v-76c-5.33301 -2.66699 -14.166 -5.5 -26.499 -8.5s-28.166 -4.5 -47.499 -4.5zM331.998 559.003l-90 -271h180z" />
    <glyph glyph-name="aogonek" unicode="&#x105;" horiz-adv-x="549" 
d="M444 -185c-44 0 -77.0039 7.99707 -99.0039 23.9971s-33 35.667 -33 59c0 19.333 4.83301 35.333 14.5 48s21.167 23.334 34.5 32.001c-2 12 -4.16699 27.167 -6.5 45.5l-6.5 52.5c-5.33301 -10.667 -12.166 -21.167 -20.499 -31.5s-18.5 -19.5 -30.5 -27.5
s-26.167 -14.5 -42.5 -19.5s-35.166 -7.5 -56.499 -7.5s-42 3 -62 9s-37.667 15.167 -53 27.5s-27.666 27.833 -36.999 46.5s-14 40.667 -14 66c0 54.667 20.833 97.667 62.5 129s106.834 47 195.501 47h53v13c0 32 -8.33301 53.333 -25 64s-40 16 -70 16
s-58.167 -4.16699 -84.5 -12.5s-50.833 -18.166 -73.5 -29.499l-30 119c24 11.333 54.5 21.5 91.5 30.5s76.833 13.5 119.5 13.5c34.667 0 66 -3.5 94 -10.5s52 -18.167 72 -33.5s35.333 -35.166 46 -59.499s16 -53.5 16 -87.5v-254c0 -6 0.166992 -12.833 0.5 -20.5
l1 -23.5c0.333008 -8 0.666016 -15.5 0.999023 -22.5s0.833008 -12.833 1.5 -17.5c-16 -6.66699 -29.833 -17 -41.5 -31s-17.5 -28.333 -17.5 -43c0 -17.333 10 -26 30 -26c6.66699 0 11.834 0.5 15.501 1.5s7.16699 2.16699 10.5 3.5l15 -77
c-6 -2.66699 -15.333 -5.5 -28 -8.5s-27 -4.5 -43 -4.5zM246.996 95.9971c20.667 0 37.332 4.50195 49.999 13.502s22.5 19.5 29.5 31.5s11.5 23.667 13.5 35s3 19.666 3 24.999v29h-50c-37.333 0 -64.666 -6.5 -81.999 -19.5s-26 -30.167 -26 -51.5
c0 -20.667 5.66699 -36.334 17 -47.001s26.333 -16 45 -16z" />
    <glyph glyph-name="Cacute" unicode="&#x106;" horiz-adv-x="649" 
d="M416 -10c-58.667 0 -111.502 8.49902 -158.502 25.499s-87 41.333 -120 73s-58.5 70.167 -76.5 115.5s-27 96.666 -27 153.999c0 56.667 9.16699 107.834 27.5 153.501s44 84.334 77 116.001s72.333 56 118 73s95.834 25.5 150.501 25.5c50 0 91.667 -4.33301 125 -13
s58.333 -17.667 75 -27l-22 -127c-20 10 -43.833 18.667 -71.5 26s-59.5 11 -95.5 11c-70 0 -124 -20.167 -162 -60.5s-57 -99.5 -57 -177.5c0 -158.667 74.333 -238 223 -238c30 0 57.333 3.5 82 10.5s47.334 16.833 68.001 29.5l40 -121
c-17.333 -12 -42.333 -23.167 -75 -33.5s-73 -15.5 -121 -15.5zM383.998 913.999h188l-137 -136h-125z" />
    <glyph glyph-name="cacute" unicode="&#x107;" horiz-adv-x="515" 
d="M322 -10c-44.667 0 -84.999 6.16797 -120.999 18.501s-66.833 30 -92.5 53s-45.334 51.167 -59.001 84.5s-20.5 71.333 -20.5 114c0 42 6.83301 79.667 20.5 113s33 61.5 58 84.5s54.667 40.667 89 53s72.5 18.5 114.5 18.5c40 0 73.833 -4.33301 101.5 -13
s49.167 -18.334 64.5 -29.001l-29 -113c-17.333 11.333 -36 19.833 -56 25.5s-45.333 8.5 -76 8.5c-38.667 0 -69.5 -12.167 -92.5 -36.5s-34.5 -61.5 -34.5 -111.5s12 -87.333 36 -112s58.667 -37 104 -37c28.667 0 52.334 3.33301 71.001 10s36 14.667 52 24l28 -115
c-15.333 -10.667 -35.833 -20 -61.5 -28s-57.834 -12 -96.501 -12zM305.001 746.001h157l-126 -158h-110z" />
    <glyph glyph-name="Ccircumflex" unicode="&#x108;" horiz-adv-x="649" 
d="M416 -10c-58.667 0 -111.502 8.49902 -158.502 25.499s-87 41.333 -120 73s-58.5 70.167 -76.5 115.5s-27 96.666 -27 153.999c0 56.667 9.16699 107.834 27.5 153.501s44 84.334 77 116.001s72.333 56 118 73s95.834 25.5 150.501 25.5c50 0 91.667 -4.33301 125 -13
s58.333 -17.667 75 -27l-22 -127c-20 10 -43.833 18.667 -71.5 26s-59.5 11 -95.5 11c-70 0 -124 -20.167 -162 -60.5s-57 -99.5 -57 -177.5c0 -158.667 74.333 -238 223 -238c30 0 57.333 3.5 82 10.5s47.334 16.833 68.001 29.5l40 -121
c-17.333 -12 -42.333 -23.167 -75 -33.5s-73 -15.5 -121 -15.5zM383.998 848.999l-70 -71h-118l109 148h157l108 -148h-118z" />
    <glyph glyph-name="ccircumflex" unicode="&#x109;" horiz-adv-x="515" 
d="M322 -10c-44.667 0 -84.999 6.16797 -120.999 18.501s-66.833 30 -92.5 53s-45.334 51.167 -59.001 84.5s-20.5 71.333 -20.5 114c0 42 6.83301 79.667 20.5 113s33 61.5 58 84.5s54.667 40.667 89 53s72.5 18.5 114.5 18.5c40 0 73.833 -4.33301 101.5 -13
s49.167 -18.334 64.5 -29.001l-29 -113c-17.333 11.333 -36 19.833 -56 25.5s-45.333 8.5 -76 8.5c-38.667 0 -69.5 -12.167 -92.5 -36.5s-34.5 -61.5 -34.5 -111.5s12 -87.333 36 -112s58.667 -37 104 -37c28.667 0 52.334 3.33301 71.001 10s36 14.667 52 24l28 -115
c-15.333 -10.667 -35.833 -20 -61.5 -28s-57.834 -12 -96.501 -12zM293.001 655.001l-60 -67h-118l99 148h157l99 -148h-119z" />
    <glyph glyph-name="Cdotaccent" unicode="&#x10a;" horiz-adv-x="649" 
d="M416 -10c-58.667 0 -111.502 8.49902 -158.502 25.499s-87 41.333 -120 73s-58.5 70.167 -76.5 115.5s-27 96.666 -27 153.999c0 56.667 9.16699 107.834 27.5 153.501s44 84.334 77 116.001s72.333 56 118 73s95.834 25.5 150.501 25.5c50 0 91.667 -4.33301 125 -13
s58.333 -17.667 75 -27l-22 -127c-20 10 -43.833 18.667 -71.5 26s-59.5 11 -95.5 11c-70 0 -124 -20.167 -162 -60.5s-57 -99.5 -57 -177.5c0 -158.667 74.333 -238 223 -238c30 0 57.333 3.5 82 10.5s47.334 16.833 68.001 29.5l40 -121
c-17.333 -12 -42.333 -23.167 -75 -33.5s-73 -15.5 -121 -15.5zM383.998 771.999c-13.333 0 -25.499 2.33203 -36.499 6.99902s-20.833 11.167 -29.5 19.5s-15.334 18 -20.001 29s-7 22.5 -7 34.5c0 12.667 2.33301 24.5 7 35.5s11.334 20.5 20.001 28.5
s18.5 14.333 29.5 19s23.167 7 36.5 7c25.333 0 47.166 -8.66699 65.499 -26s27.5 -38.666 27.5 -63.999c0 -12 -2.5 -23.5 -7.5 -34.5s-11.833 -20.667 -20.5 -29s-18.5 -14.833 -29.5 -19.5s-22.833 -7 -35.5 -7z" />
    <glyph glyph-name="cdotaccent" unicode="&#x10b;" horiz-adv-x="515" 
d="M322 -10c-44.667 0 -84.999 6.16797 -120.999 18.501s-66.833 30 -92.5 53s-45.334 51.167 -59.001 84.5s-20.5 71.333 -20.5 114c0 42 6.83301 79.667 20.5 113s33 61.5 58 84.5s54.667 40.667 89 53s72.5 18.5 114.5 18.5c40 0 73.833 -4.33301 101.5 -13
s49.167 -18.334 64.5 -29.001l-29 -113c-17.333 11.333 -36 19.833 -56 25.5s-45.333 8.5 -76 8.5c-38.667 0 -69.5 -12.167 -92.5 -36.5s-34.5 -61.5 -34.5 -111.5s12 -87.333 36 -112s58.667 -37 104 -37c28.667 0 52.334 3.33301 71.001 10s36 14.667 52 24l28 -115
c-15.333 -10.667 -35.833 -20 -61.5 -28s-57.834 -12 -96.501 -12zM294.001 569.001c-13.333 0 -25.498 2.33301 -36.498 7s-20.833 11.167 -29.5 19.5s-15.334 18 -20.001 29s-7 22.5 -7 34.5c0 25.333 9 46.5 27 63.5s40 25.5 66 25.5c25.333 0 47.166 -8.5 65.499 -25.5
s27.5 -38.167 27.5 -63.5c0 -12 -2.5 -23.5 -7.5 -34.5s-11.833 -20.667 -20.5 -29s-18.5 -14.833 -29.5 -19.5s-22.833 -7 -35.5 -7z" />
    <glyph glyph-name="Ccaron" unicode="&#x10c;" horiz-adv-x="649" 
d="M416 -10c-58.667 0 -111.502 8.49902 -158.502 25.499s-87 41.333 -120 73s-58.5 70.167 -76.5 115.5s-27 96.666 -27 153.999c0 56.667 9.16699 107.834 27.5 153.501s44 84.334 77 116.001s72.333 56 118 73s95.834 25.5 150.501 25.5c50 0 91.667 -4.33301 125 -13
s58.333 -17.667 75 -27l-22 -127c-20 10 -43.833 18.667 -71.5 26s-59.5 11 -95.5 11c-70 0 -124 -20.167 -162 -60.5s-57 -99.5 -57 -177.5c0 -158.667 74.333 -238 223 -238c30 0 57.333 3.5 82 10.5s47.334 16.833 68.001 29.5l40 -121
c-17.333 -12 -42.333 -23.167 -75 -33.5s-73 -15.5 -121 -15.5zM301.998 777.999l-108 148h118l68 -71l70 71h118l-109 -148h-157z" />
    <glyph glyph-name="ccaron" unicode="&#x10d;" horiz-adv-x="515" 
d="M322 -10c-44.667 0 -84.999 6.16797 -120.999 18.501s-66.833 30 -92.5 53s-45.334 51.167 -59.001 84.5s-20.5 71.333 -20.5 114c0 42 6.83301 79.667 20.5 113s33 61.5 58 84.5s54.667 40.667 89 53s72.5 18.5 114.5 18.5c40 0 73.833 -4.33301 101.5 -13
s49.167 -18.334 64.5 -29.001l-29 -113c-17.333 11.333 -36 19.833 -56 25.5s-45.333 8.5 -76 8.5c-38.667 0 -69.5 -12.167 -92.5 -36.5s-34.5 -61.5 -34.5 -111.5s12 -87.333 36 -112s58.667 -37 104 -37c28.667 0 52.334 3.33301 71.001 10s36 14.667 52 24l28 -115
c-15.333 -10.667 -35.833 -20 -61.5 -28s-57.834 -12 -96.501 -12zM115.001 736.001h118l60 -67l58 67h119l-99 -148h-157z" />
    <glyph glyph-name="Dcaron" unicode="&#x10e;" horiz-adv-x="731" 
d="M226 586l0.00195312 -456h85c32.667 0 62.667 4.66699 90 14s50.666 23.666 69.999 42.999s34.5 43.833 45.5 73.5s16.5 65.167 16.5 106.5c0 42.667 -5.33301 78.167 -16 106.5s-25.5 50.833 -44.5 67.5s-41.333 28.334 -67 35.001s-53.834 10 -84.501 10h-95z
M66.002 716h244.998c54.667 0 105.5 -5.66699 152.5 -17s87.833 -30.333 122.5 -57s61.834 -62 81.501 -106s29.5 -98.333 29.5 -163c0 -61.333 -9.83301 -115.333 -29.5 -162s-47.167 -85.667 -82.5 -117s-77.166 -54.833 -125.499 -70.5s-100.833 -23.5 -157.5 -23.5h-236
v716zM266 778l-108 148h118l68 -71l70 71h118l-109 -148h-157z" />
    <glyph glyph-name="dcaron" unicode="&#x10f;" horiz-adv-x="633" 
d="M307 111c32.667 0 60.167 12.167 82.5 36.5s33.5 61.833 33.5 112.5c0 50 -10.833 87.167 -32.5 111.5s-49.167 36.5 -82.5 36.5c-34 0 -62.333 -12.5 -85 -37.5s-34 -61.833 -34 -110.5c0 -50 11.167 -87.333 33.5 -112s50.5 -37 84.5 -37zM426 88
c-16.667 -30 -38.6699 -53.832 -66.0029 -71.499s-60.666 -26.5 -99.999 -26.5c-29.333 0 -57.833 5.5 -85.5 16.5s-52.167 27.667 -73.5 50s-38.666 50.333 -51.999 84s-20 73.5 -20 119.5c0 45.333 6.66699 84.833 20 118.5s30.833 61.667 52.5 84s46.334 39 74.001 50
s56.167 16.5 85.5 16.5c38 0 70 -6.83301 96 -20.5s47.667 -32.834 65 -57.501v265h155v-716h-145zM612.997 555.001l19 161h137l-58 -161h-98z" />
    <glyph glyph-name="Dcroat" unicode="&#x110;" horiz-adv-x="772" 
d="M267 304l0.000976562 -174h86c32.667 0 62.5 4.83301 89.5 14.5s50.167 24.5 69.5 44.5s34.5 45.5 45.5 76.5s16.5 67.833 16.5 110.5c0 41.333 -5.33301 75.5 -16 102.5s-25.334 48.5 -44.001 64.5s-41 27.167 -67 33.5s-54.333 9.5 -85 9.5h-95v-157h153v-125h-153z
M107.001 304h-92.0039v125h92v287h246c54.667 0 105.334 -5.5 152.001 -16.5s87.334 -29.5 122.001 -55.5s61.834 -60.333 81.501 -103s29.5 -95.667 29.5 -159s-9.83301 -118.833 -29.5 -166.5s-47.167 -87.5 -82.5 -119.5s-77.166 -56 -125.499 -72
s-100.833 -24 -157.5 -24h-236v304z" />
    <glyph glyph-name="dcroat" unicode="&#x111;" horiz-adv-x="633" 
d="M426 88c-16.667 -30 -38.6699 -53.832 -66.0029 -71.499s-60.666 -26.5 -99.999 -26.5c-29.333 0 -57.833 5.5 -85.5 16.5s-52.167 27.667 -73.5 50s-38.666 50.333 -51.999 84s-20 73.5 -20 119.5c0 45.333 6.66699 84.833 20 118.5s30.833 61.667 52.5 84
s46.334 39 74.001 50s56.167 16.5 85.5 16.5c38 0 70 -6.83301 96 -20.5s47.667 -32.834 65 -57.501v110h-150v100h150v55h155v-55h63v-100h-63v-561h-145zM306.997 111.001c32.667 0 60.167 12.167 82.5 36.5s33.5 61.833 33.5 112.5c0 50 -10.833 87.167 -32.5 111.5
s-49.167 36.5 -82.5 36.5c-34 0 -62.333 -12.5 -85 -37.5s-34 -61.833 -34 -110.5c0 -50 11.167 -87.333 33.5 -112s50.5 -37 84.5 -37z" />
    <glyph glyph-name="Emacron" unicode="&#x112;" horiz-adv-x="588" 
d="M66 716h468v-130h-308v-151h256v-130h-256v-175h313v-130h-473v716zM140 902h326v-110h-326v110z" />
    <glyph glyph-name="emacron" unicode="&#x113;" horiz-adv-x="579" 
d="M301 418c-59.333 0 -95.667 -33.001 -109 -99.001h199c0.666992 32.667 -6.83301 57.334 -22.5 74.001s-38.167 25 -67.5 25zM524.999 35.999c-13.333 -8.66699 -29.333 -16.332 -48 -22.999c-16 -6 -36 -11.333 -60 -16s-52.667 -7 -86 -7
c-102.667 0 -178.667 23.667 -228 71s-74 113.666 -74 198.999c0 42 6.5 79.667 19.5 113s31.167 61.5 54.5 84.5s51.666 40.667 84.999 53s70 18.5 110 18.5c40.667 0 77.667 -6.5 111 -19.5s61 -32.5 83 -58.5s37.333 -58.5 46 -97.5s9 -84.833 1 -137.5h-349
c5.33301 -35.333 19.333 -61.833 42 -79.5s58 -26.5 106 -26.5c24.667 0 46.834 1.83301 66.501 5.5s36.167 8.16699 49.5 13.5c16 6 29.667 12.667 41 20zM130.999 697.001h317v-105h-317v105z" />
    <glyph glyph-name="Ebreve" unicode="&#x114;" horiz-adv-x="588" 
d="M66 716h468v-130h-308v-151h256v-130h-256v-175h313v-130h-473v716zM310 765c-30 0 -56.168 4.5 -78.501 13.5s-40.666 21 -54.999 36s-25.166 32.333 -32.499 52s-11 40.5 -11 62.5h113c0 -17.333 5.5 -31.333 16.5 -42s26.833 -16 47.5 -16
c21.333 0 37.166 5.33301 47.499 16s15.5 24.667 15.5 42h114c0 -22 -3.66699 -42.833 -11 -62.5s-18.333 -37 -33 -52s-33 -27 -55 -36s-48 -13.5 -78 -13.5z" />
    <glyph glyph-name="ebreve" unicode="&#x115;" horiz-adv-x="579" 
d="M301 418c-59.333 0 -95.667 -33.001 -109 -99.001h199c0.666992 32.667 -6.83301 57.334 -22.5 74.001s-38.167 25 -67.5 25zM524.999 35.999c-13.333 -8.66699 -29.333 -16.332 -48 -22.999c-16 -6 -36 -11.333 -60 -16s-52.667 -7 -86 -7
c-102.667 0 -178.667 23.667 -228 71s-74 113.666 -74 198.999c0 42 6.5 79.667 19.5 113s31.167 61.5 54.5 84.5s51.666 40.667 84.999 53s70 18.5 110 18.5c40.667 0 77.667 -6.5 111 -19.5s61 -32.5 83 -58.5s37.333 -58.5 46 -97.5s9 -84.833 1 -137.5h-349
c5.33301 -35.333 19.333 -61.833 42 -79.5s58 -26.5 106 -26.5c24.667 0 46.834 1.83301 66.501 5.5s36.167 8.16699 49.5 13.5c16 6 29.667 12.667 41 20zM289.999 580.001c-27.333 0 -51.1699 4.33301 -71.5029 13s-37.166 20.167 -50.499 34.5s-23.333 31 -30 50
s-10 38.5 -10 58.5h106c0 -16.667 5.16699 -29.834 15.5 -39.501s23.833 -14.5 40.5 -14.5s30 4.83301 40 14.5s15 22.834 15 39.501h107c0 -20 -3.33301 -39.5 -10 -58.5s-16.667 -35.667 -30 -50s-30.166 -25.833 -50.499 -34.5s-44.166 -13 -71.499 -13z" />
    <glyph glyph-name="Edotaccent" unicode="&#x116;" horiz-adv-x="588" 
d="M66 716h468v-130h-308v-151h256v-130h-256v-175h313v-130h-473v716zM310 772c-13.333 0 -25.499 2.33203 -36.499 6.99902s-20.833 11.167 -29.5 19.5s-15.334 18 -20.001 29s-7 22.5 -7 34.5c0 12.667 2.33301 24.5 7 35.5s11.334 20.5 20.001 28.5s18.5 14.333 29.5 19
s23.167 7 36.5 7c25.333 0 47.166 -8.66699 65.499 -26s27.5 -38.666 27.5 -63.999c0 -12 -2.5 -23.5 -7.5 -34.5s-11.833 -20.667 -20.5 -29s-18.5 -14.833 -29.5 -19.5s-22.833 -7 -35.5 -7z" />
    <glyph glyph-name="edotaccent" unicode="&#x117;" horiz-adv-x="579" 
d="M301 418c-59.333 0 -95.667 -33.001 -109 -99.001h199c0.666992 32.667 -6.83301 57.334 -22.5 74.001s-38.167 25 -67.5 25zM524.999 35.999c-13.333 -8.66699 -29.333 -16.332 -48 -22.999c-16 -6 -36 -11.333 -60 -16s-52.667 -7 -86 -7
c-102.667 0 -178.667 23.667 -228 71s-74 113.666 -74 198.999c0 42 6.5 79.667 19.5 113s31.167 61.5 54.5 84.5s51.666 40.667 84.999 53s70 18.5 110 18.5c40.667 0 77.667 -6.5 111 -19.5s61 -32.5 83 -58.5s37.333 -58.5 46 -97.5s9 -84.833 1 -137.5h-349
c5.33301 -35.333 19.333 -61.833 42 -79.5s58 -26.5 106 -26.5c24.667 0 46.834 1.83301 66.501 5.5s36.167 8.16699 49.5 13.5c16 6 29.667 12.667 41 20zM289.999 569.001c-13.333 0 -25.498 2.33301 -36.498 7s-20.833 11.167 -29.5 19.5s-15.334 18 -20.001 29
s-7 22.5 -7 34.5c0 25.333 9 46.5 27 63.5s40 25.5 66 25.5c25.333 0 47.166 -8.5 65.499 -25.5s27.5 -38.167 27.5 -63.5c0 -12 -2.5 -23.5 -7.5 -34.5s-11.833 -20.667 -20.5 -29s-18.5 -14.833 -29.5 -19.5s-22.833 -7 -35.5 -7z" />
    <glyph glyph-name="Eogonek" unicode="&#x118;" horiz-adv-x="588" 
d="M66 716h468v-130h-308v-151h256v-130h-256v-175h313v-130h-473v716zM439 -185c-44 0 -77.001 8.00098 -99.001 24.001s-33 35.667 -33 59c0 14.667 3 27.5 9 38.5s13.5 20.5 22.5 28.5s19 14.833 30 20.5s21.5 10.5 31.5 14.5h90c-12 -7.33301 -23.5 -17.833 -34.5 -31.5
s-16.5 -27.834 -16.5 -42.501c0 -17.333 10 -26 30 -26c6.66699 0 11.834 0.5 15.501 1.5s7.16699 2.16699 10.5 3.5l15 -77c-6 -2.66699 -15.333 -5.5 -28 -8.5s-27 -4.5 -43 -4.5z" />
    <glyph glyph-name="eogonek" unicode="&#x119;" horiz-adv-x="579" 
d="M379 -74c0 -17.333 10.001 -26.001 30.001 -26.001c6.66699 0 11.834 0.5 15.501 1.5s7.16699 2.16699 10.5 3.5l16 -77c-6.66699 -2.66699 -16.334 -5.5 -29.001 -8.5s-27 -4.5 -43 -4.5c-44 0 -77 8 -99 24s-33 35.667 -33 59s7.16699 42.333 21.5 57
s30.166 26.334 47.499 35.001h-7c-94.667 3.33301 -165 28.666 -211 75.999s-69 112 -69 194c0 42 6.5 79.667 19.5 113s31.167 61.5 54.5 84.5s51.666 40.667 84.999 53s70 18.5 110 18.5c40.667 0 77.667 -6.5 111 -19.5s61 -32.5 83 -58.5s37.333 -58.5 46 -97.5
s9 -84.833 1 -137.5h-349c5.33301 -35.333 19.333 -61.833 42 -79.5s58 -26.5 106 -26.5c24.667 0 46.834 1.83301 66.501 5.5s36.167 8.16699 49.5 13.5c16 6 29.667 12.667 41 20l30 -113c-4 -3.33301 -9.33301 -6.33301 -16 -9c-5.33301 -2.66699 -12 -5.66699 -20 -9
s-17.333 -7 -28 -11c-28 -9.33301 -48.667 -21.166 -62 -35.499s-20 -29.5 -20 -45.5zM301.001 417.999c-30 0 -54.167 -8.49902 -72.5 -25.499s-30.5 -41.5 -36.5 -73.5h199c0.666992 33.333 -6.83301 58.166 -22.5 74.499s-38.167 24.5 -67.5 24.5z" />
    <glyph glyph-name="Ecaron" unicode="&#x11a;" horiz-adv-x="588" 
d="M66 716h468v-130h-308v-151h256v-130h-256v-175h313v-130h-473v716zM228 778l-108 148h118l68 -71l70 71h118l-109 -148h-157z" />
    <glyph glyph-name="ecaron" unicode="&#x11b;" horiz-adv-x="579" 
d="M301 418c-59.333 0 -95.667 -33.001 -109 -99.001h199c0.666992 32.667 -6.83301 57.334 -22.5 74.001s-38.167 25 -67.5 25zM524.999 35.999c-13.333 -8.66699 -29.333 -16.332 -48 -22.999c-16 -6 -36 -11.333 -60 -16s-52.667 -7 -86 -7
c-102.667 0 -178.667 23.667 -228 71s-74 113.666 -74 198.999c0 42 6.5 79.667 19.5 113s31.167 61.5 54.5 84.5s51.666 40.667 84.999 53s70 18.5 110 18.5c40.667 0 77.667 -6.5 111 -19.5s61 -32.5 83 -58.5s37.333 -58.5 46 -97.5s9 -84.833 1 -137.5h-349
c5.33301 -35.333 19.333 -61.833 42 -79.5s58 -26.5 106 -26.5c24.667 0 46.834 1.83301 66.501 5.5s36.167 8.16699 49.5 13.5c16 6 29.667 12.667 41 20zM110.999 736.001h118l60 -67l58 67h119l-99 -148h-157z" />
    <glyph glyph-name="Gcircumflex" unicode="&#x11c;" horiz-adv-x="743" 
d="M711 276c0 -42 -6.66797 -80.5 -20.001 -115.5s-33 -65.167 -59 -90.5s-58.333 -45 -97 -59s-83.334 -21 -134.001 -21c-56.667 0 -107.667 8.5 -153 25.5s-83.666 41.333 -114.999 73s-55.5 70.167 -72.5 115.5s-25.5 96.666 -25.5 153.999
c0 56.667 8.16699 107.834 24.5 153.501s40.5 84.334 72.5 116.001s71.5 56 118.5 73s100.833 25.5 161.5 25.5c58.667 0 107.334 -5.66699 146.001 -17s69.334 -24 92.001 -38l-20 -134c-26.667 16 -56.834 29.833 -90.501 41.5s-72.5 17.5 -116.5 17.5
c-80 0 -137.167 -20.833 -171.5 -62.5s-51.5 -100.167 -51.5 -175.5c0 -76 16.667 -134.667 50 -176s84 -62 152 -62c50.667 0 88.5 12.667 113.5 38s37.5 60.666 37.5 105.999h-181v130h339v-118v0zM391.999 849l-70 -71h-118l109 148h157l108 -148h-118z" />
    <glyph glyph-name="gcircumflex" unicode="&#x11d;" horiz-adv-x="622" 
d="M304 142c32 0 58.334 10.832 79.001 32.499s31 54.834 31 99.501c0 45.333 -10.333 79 -31 101s-47.334 33 -80.001 33c-32 0 -59 -11.167 -81 -33.5s-33 -55.833 -33 -100.5c0 -44 11 -77 33 -99s49.333 -33 82 -33zM268.001 -179.001
c-46 0 -87.3311 3.82812 -123.998 11.4951s-66.334 17.834 -89.001 30.501l31 124c16 -10.667 39.833 -20.834 71.5 -30.501s68.5 -14.5 110.5 -14.5c48.667 0 85 9.33301 109 28s36 50.667 36 96v44c-16 -26 -37 -46.667 -63 -62s-57.333 -23.333 -94 -24
c-30 0 -58.667 5 -86 15s-51.5 25.5 -72.5 46.5s-37.667 47.167 -50 78.5s-18.5 68 -18.5 110c0 42.667 6.33301 79.834 19 111.501s29.5 58.167 50.5 79.5s45.333 37.333 73 48s56.5 16 86.5 16c38 0 70.167 -7.5 96.5 -22.5s47.5 -36.167 63.5 -63.5
c0.666992 12.667 2 26.334 4 41.001s4 26.334 6 35.001h145c-1.33301 -9.33301 -2.5 -22.666 -3.5 -39.999s-1.5 -31.666 -1.5 -42.999v-362c0 -39.333 -5.83301 -74.5 -17.5 -105.5s-29.667 -57.5 -54 -79.5s-55.333 -38.833 -93 -50.5s-82.834 -17.5 -135.501 -17.5z
M293.003 654.994l-60 -67h-118l99 148h157l99 -148h-119z" />
    <glyph glyph-name="Gbreve" unicode="&#x11e;" horiz-adv-x="743" 
d="M711 276c0 -42 -6.66797 -80.5 -20.001 -115.5s-33 -65.167 -59 -90.5s-58.333 -45 -97 -59s-83.334 -21 -134.001 -21c-56.667 0 -107.667 8.5 -153 25.5s-83.666 41.333 -114.999 73s-55.5 70.167 -72.5 115.5s-25.5 96.666 -25.5 153.999
c0 56.667 8.16699 107.834 24.5 153.501s40.5 84.334 72.5 116.001s71.5 56 118.5 73s100.833 25.5 161.5 25.5c58.667 0 107.334 -5.66699 146.001 -17s69.334 -24 92.001 -38l-20 -134c-26.667 16 -56.834 29.833 -90.501 41.5s-72.5 17.5 -116.5 17.5
c-80 0 -137.167 -20.833 -171.5 -62.5s-51.5 -100.167 -51.5 -175.5c0 -76 16.667 -134.667 50 -176s84 -62 152 -62c50.667 0 88.5 12.667 113.5 38s37.5 60.666 37.5 105.999h-181v130h339v-118v0zM391.999 765c-30 0 -56.168 4.5 -78.501 13.5s-40.666 21 -54.999 36
s-25.166 32.333 -32.499 52s-11 40.5 -11 62.5h113c0 -17.333 5.5 -31.333 16.5 -42s26.833 -16 47.5 -16c21.333 0 37.166 5.33301 47.499 16s15.5 24.667 15.5 42h114c0 -22 -3.66699 -42.833 -11 -62.5s-18.333 -37 -33 -52s-33 -27 -55 -36s-48 -13.5 -78 -13.5z" />
    <glyph glyph-name="gbreve" unicode="&#x11f;" horiz-adv-x="622" 
d="M304 142c32 0 58.334 10.832 79.001 32.499s31 54.834 31 99.501c0 45.333 -10.333 79 -31 101s-47.334 33 -80.001 33c-32 0 -59 -11.167 -81 -33.5s-33 -55.833 -33 -100.5c0 -44 11 -77 33 -99s49.333 -33 82 -33zM268.001 -179.001
c-46 0 -87.3311 3.82812 -123.998 11.4951s-66.334 17.834 -89.001 30.501l31 124c16 -10.667 39.833 -20.834 71.5 -30.501s68.5 -14.5 110.5 -14.5c48.667 0 85 9.33301 109 28s36 50.667 36 96v44c-16 -26 -37 -46.667 -63 -62s-57.333 -23.333 -94 -24
c-30 0 -58.667 5 -86 15s-51.5 25.5 -72.5 46.5s-37.667 47.167 -50 78.5s-18.5 68 -18.5 110c0 42.667 6.33301 79.834 19 111.501s29.5 58.167 50.5 79.5s45.333 37.333 73 48s56.5 16 86.5 16c38 0 70.167 -7.5 96.5 -22.5s47.5 -36.167 63.5 -63.5
c0.666992 12.667 2 26.334 4 41.001s4 26.334 6 35.001h145c-1.33301 -9.33301 -2.5 -22.666 -3.5 -39.999s-1.5 -31.666 -1.5 -42.999v-362c0 -39.333 -5.83301 -74.5 -17.5 -105.5s-29.667 -57.5 -54 -79.5s-55.333 -38.833 -93 -50.5s-82.834 -17.5 -135.501 -17.5z
M294.003 579.994c-27.333 0 -51.1699 4.33301 -71.5029 13s-37.166 20.167 -50.499 34.5s-23.333 31 -30 50s-10 38.5 -10 58.5h106c0 -16.667 5.16699 -29.834 15.5 -39.501s23.833 -14.5 40.5 -14.5s30 4.83301 40 14.5s15 22.834 15 39.501h107
c0 -20 -3.33301 -39.5 -10 -58.5s-16.667 -35.667 -30 -50s-30.166 -25.833 -50.499 -34.5s-44.166 -13 -71.499 -13z" />
    <glyph glyph-name="Gdotaccent" unicode="&#x120;" horiz-adv-x="743" 
d="M711 276c0 -42 -6.66797 -80.5 -20.001 -115.5s-33 -65.167 -59 -90.5s-58.333 -45 -97 -59s-83.334 -21 -134.001 -21c-56.667 0 -107.667 8.5 -153 25.5s-83.666 41.333 -114.999 73s-55.5 70.167 -72.5 115.5s-25.5 96.666 -25.5 153.999
c0 56.667 8.16699 107.834 24.5 153.501s40.5 84.334 72.5 116.001s71.5 56 118.5 73s100.833 25.5 161.5 25.5c58.667 0 107.334 -5.66699 146.001 -17s69.334 -24 92.001 -38l-20 -134c-26.667 16 -56.834 29.833 -90.501 41.5s-72.5 17.5 -116.5 17.5
c-80 0 -137.167 -20.833 -171.5 -62.5s-51.5 -100.167 -51.5 -175.5c0 -76 16.667 -134.667 50 -176s84 -62 152 -62c50.667 0 88.5 12.667 113.5 38s37.5 60.666 37.5 105.999h-181v130h339v-118v0zM391.999 772c-13.333 0 -25.499 2.33203 -36.499 6.99902
s-20.833 11.167 -29.5 19.5s-15.334 18 -20.001 29s-7 22.5 -7 34.5c0 12.667 2.33301 24.5 7 35.5s11.334 20.5 20.001 28.5s18.5 14.333 29.5 19s23.167 7 36.5 7c25.333 0 47.166 -8.66699 65.499 -26s27.5 -38.666 27.5 -63.999c0 -12 -2.5 -23.5 -7.5 -34.5
s-11.833 -20.667 -20.5 -29s-18.5 -14.833 -29.5 -19.5s-22.833 -7 -35.5 -7z" />
    <glyph glyph-name="gdotaccent" unicode="&#x121;" horiz-adv-x="622" 
d="M304 142c32 0 58.334 10.832 79.001 32.499s31 54.834 31 99.501c0 45.333 -10.333 79 -31 101s-47.334 33 -80.001 33c-32 0 -59 -11.167 -81 -33.5s-33 -55.833 -33 -100.5c0 -44 11 -77 33 -99s49.333 -33 82 -33zM268.001 -179.001
c-46 0 -87.3311 3.82812 -123.998 11.4951s-66.334 17.834 -89.001 30.501l31 124c16 -10.667 39.833 -20.834 71.5 -30.501s68.5 -14.5 110.5 -14.5c48.667 0 85 9.33301 109 28s36 50.667 36 96v44c-16 -26 -37 -46.667 -63 -62s-57.333 -23.333 -94 -24
c-30 0 -58.667 5 -86 15s-51.5 25.5 -72.5 46.5s-37.667 47.167 -50 78.5s-18.5 68 -18.5 110c0 42.667 6.33301 79.834 19 111.501s29.5 58.167 50.5 79.5s45.333 37.333 73 48s56.5 16 86.5 16c38 0 70.167 -7.5 96.5 -22.5s47.5 -36.167 63.5 -63.5
c0.666992 12.667 2 26.334 4 41.001s4 26.334 6 35.001h145c-1.33301 -9.33301 -2.5 -22.666 -3.5 -39.999s-1.5 -31.666 -1.5 -42.999v-362c0 -39.333 -5.83301 -74.5 -17.5 -105.5s-29.667 -57.5 -54 -79.5s-55.333 -38.833 -93 -50.5s-82.834 -17.5 -135.501 -17.5z
M294.003 568.994c-13.333 0 -25.498 2.33301 -36.498 7s-20.833 11.167 -29.5 19.5s-15.334 18 -20.001 29s-7 22.5 -7 34.5c0 25.333 9 46.5 27 63.5s40 25.5 66 25.5c25.333 0 47.166 -8.5 65.499 -25.5s27.5 -38.167 27.5 -63.5c0 -12 -2.5 -23.5 -7.5 -34.5
s-11.833 -20.667 -20.5 -29s-18.5 -14.833 -29.5 -19.5s-22.833 -7 -35.5 -7z" />
    <glyph glyph-name="uni0122" unicode="&#x122;" horiz-adv-x="743" 
d="M711 276c0 -42 -6.66797 -80.5 -20.001 -115.5s-33 -65.167 -59 -90.5s-58.333 -45 -97 -59s-83.334 -21 -134.001 -21c-56.667 0 -107.667 8.5 -153 25.5s-83.666 41.333 -114.999 73s-55.5 70.167 -72.5 115.5s-25.5 96.666 -25.5 153.999
c0 56.667 8.16699 107.834 24.5 153.501s40.5 84.334 72.5 116.001s71.5 56 118.5 73s100.833 25.5 161.5 25.5c58.667 0 107.334 -5.66699 146.001 -17s69.334 -24 92.001 -38l-20 -134c-26.667 16 -56.834 29.833 -90.501 41.5s-72.5 17.5 -116.5 17.5
c-80 0 -137.167 -20.833 -171.5 -62.5s-51.5 -100.167 -51.5 -175.5c0 -76 16.667 -134.667 50 -176s84 -62 152 -62c50.667 0 88.5 12.667 113.5 38s37.5 60.666 37.5 105.999h-181v130h339v-118v0zM310.999 -237c11.333 9.33301 21.667 18.999 31 28.999
s17.333 20.667 24 32c-14.667 3.33301 -26.667 10.5 -36 21.5s-14 24.5 -14 40.5c0 18 6.33301 33.333 19 46s29.667 19 51 19s39.5 -6.16699 54.5 -18.5s22.5 -30.166 22.5 -53.499c0 -24 -6.5 -45.667 -19.5 -65s-27.5 -36.333 -43.5 -51h-89z" />
    <glyph glyph-name="uni0123" unicode="&#x123;" horiz-adv-x="622" 
d="M304 142c32 0 58.334 10.832 79.001 32.499s31 54.834 31 99.501c0 45.333 -10.333 79 -31 101s-47.334 33 -80.001 33c-32 0 -59 -11.167 -81 -33.5s-33 -55.833 -33 -100.5c0 -44 11 -77 33 -99s49.333 -33 82 -33zM268.001 -179.001
c-46 0 -87.3311 3.82812 -123.998 11.4951s-66.334 17.834 -89.001 30.501l31 124c16 -10.667 39.833 -20.834 71.5 -30.501s68.5 -14.5 110.5 -14.5c48.667 0 85 9.33301 109 28s36 50.667 36 96v44c-16 -26 -37 -46.667 -63 -62s-57.333 -23.333 -94 -24
c-30 0 -58.667 5 -86 15s-51.5 25.5 -72.5 46.5s-37.667 47.167 -50 78.5s-18.5 68 -18.5 110c0 42.667 6.33301 79.834 19 111.501s29.5 58.167 50.5 79.5s45.333 37.333 73 48s56.5 16 86.5 16c38 0 70.167 -7.5 96.5 -22.5s47.5 -36.167 63.5 -63.5
c0.666992 12.667 2 26.334 4 41.001s4 26.334 6 35.001h145c-1.33301 -9.33301 -2.5 -22.666 -3.5 -39.999s-1.5 -31.666 -1.5 -42.999v-362c0 -39.333 -5.83301 -74.5 -17.5 -105.5s-29.667 -57.5 -54 -79.5s-55.333 -38.833 -93 -50.5s-82.834 -17.5 -135.501 -17.5z
M298.003 571.994c-21.333 0 -39.668 6 -55.001 18s-23 29.667 -23 53c0 24.667 6.5 46.667 19.5 66s27.5 36.333 43.5 51h89c-11.333 -9.33301 -21.666 -19 -30.999 -29s-17 -20.667 -23 -32c14.667 -3.33301 26.667 -10.5 36 -21.5s14 -24.5 14 -40.5
c0 -18 -6.33301 -33.333 -19 -46s-29.667 -19 -51 -19z" />
    <glyph glyph-name="Hcircumflex" unicode="&#x124;" horiz-adv-x="742" 
d="M516 292h-290v-292h-160v716h160v-294h290v294h160v-716h-160v292zM372 849l-70 -71h-118l109 148h157l108 -148h-118z" />
    <glyph glyph-name="hcircumflex" unicode="&#x125;" horiz-adv-x="600" 
d="M321 408c-24.667 0 -46.335 -4.49902 -65.002 -13.499s-33.667 -20.5 -45 -34.5v-360h-155v716h155v-182l-1 -89h1c15.333 23.333 35.833 43.166 61.5 59.499s58.834 24.5 99.501 24.5c24.667 0 47.834 -3.5 69.501 -10.5s40.5 -17.333 56.5 -31s28.5 -31 37.5 -52
s13.5 -45.5 13.5 -73.5v-362h-155v346c0 22.667 -6.5 38.667 -19.5 48s-30.833 14 -53.5 14zM316.999 849.001l-70 -71h-118l109 148h157l108 -148h-118z" />
    <glyph glyph-name="Hbar" unicode="&#x126;" horiz-adv-x="775" 
d="M532 292h-290v-292h-160v497h-82v109h82v110h160v-110h290v110h160v-110h83v-109h-83v-497h-160v292zM532 422v75h-290v-75h290z" />
    <glyph glyph-name="hbar" unicode="&#x127;" horiz-adv-x="600" 
d="M321 408c-24.667 0 -46.335 -4.49902 -65.002 -13.499s-33.667 -20.5 -45 -34.5v-360h-155v561h-63v100h63v55h155v-55h151v-100h-151v-27l-1 -89h1c15.333 23.333 35.833 43.166 61.5 59.499s58.834 24.5 99.501 24.5c24.667 0 47.834 -3.5 69.501 -10.5
s40.5 -17.333 56.5 -31s28.5 -31 37.5 -52s13.5 -45.5 13.5 -73.5v-362h-155v346c0 22.667 -6.5 38.667 -19.5 48s-30.833 14 -53.5 14z" />
    <glyph glyph-name="Itilde" unicode="&#x128;" horiz-adv-x="292" 
d="M226 716v-716h-160v716h160zM-46 766c-2.66699 23.333 -1.83301 45.001 2.5 65.001s11.5 37.333 21.5 52s23 26.167 39 34.5s34 12.5 54 12.5c16.667 0 31.334 -2.16699 44.001 -6.5s24.334 -9 35.001 -14l29.5 -14c9 -4.33301 18.5 -6.5 28.5 -6.5
c13.333 0 23.333 3.66699 30 11s10.667 19.666 12 36.999h86c2.66699 -23.333 2 -45 -2 -65s-11.167 -37.333 -21.5 -52s-23.333 -26.167 -39 -34.5s-33.5 -12.5 -53.5 -12.5c-16.667 0 -31.334 2.16699 -44.001 6.5s-24.334 9 -35.001 14l-30 14
c-9.33301 4.33301 -19 6.5 -29 6.5c-12.667 0 -22.5 -3.5 -29.5 -10.5s-10.833 -19.5 -11.5 -37.5h-87v0z" />
    <glyph glyph-name="itilde" unicode="&#x129;" horiz-adv-x="269" 
d="M212 519v-519h-155v519h155zM-45 582c-1.33301 18.667 0.331055 37 4.99805 55s12 34 22 48s22.667 25.167 38 33.5s33.333 12.5 54 12.5c15.333 0 28.666 -2.16699 39.999 -6.5s21.833 -9.16602 31.5 -14.499s18.834 -10.166 27.501 -14.499s18.334 -6.5 29.001 -6.5
c10 0 18.167 3.33301 24.5 10s9.83301 19.667 10.5 39h75c0.666992 -18.667 -1.16602 -37 -5.49902 -55s-11.5 -34 -21.5 -48s-22.833 -25.167 -38.5 -33.5s-33.834 -12.5 -54.501 -12.5c-15.333 0 -28.5 2.16699 -39.5 6.5s-21.333 9.16602 -31 14.499
s-19 10.166 -28 14.499s-18.833 6.5 -29.5 6.5c-9.33301 0 -17.166 -3.16699 -23.499 -9.5s-9.83301 -19.5 -10.5 -39.5h-75v0z" />
    <glyph glyph-name="Imacron" unicode="&#x12a;" horiz-adv-x="292" 
d="M226 716v-716h-160v716h160zM-17 902h326v-110h-326v110z" />
    <glyph glyph-name="imacron" unicode="&#x12b;" horiz-adv-x="269" 
d="M-3 697h275v-105h-275v105zM212 519v-519h-155v519h155z" />
    <glyph glyph-name="Ibreve" unicode="&#x12c;" horiz-adv-x="292" 
d="M226 716v-716h-160v716h160zM146 765c-30 0 -56.168 4.5 -78.501 13.5s-40.666 21 -54.999 36s-25.166 32.333 -32.499 52s-11 40.5 -11 62.5h113c0 -17.333 5.5 -31.333 16.5 -42s26.833 -16 47.5 -16c21.333 0 37.166 5.33301 47.499 16s15.5 24.667 15.5 42h114
c0 -22 -3.66699 -42.833 -11 -62.5s-18.333 -37 -33 -52s-33 -27 -55 -36s-48 -13.5 -78 -13.5z" />
    <glyph glyph-name="ibreve" unicode="&#x12d;" horiz-adv-x="269" 
d="M212 519v-519h-155v519h155zM134 580c-27.333 0 -51.1699 4.33301 -71.5029 13s-37.166 20.167 -50.499 34.5s-23.333 31 -30 50s-10 38.5 -10 58.5h106c0 -16.667 5.16699 -29.834 15.5 -39.501s23.833 -14.5 40.5 -14.5s30 4.83301 40 14.5s15 22.834 15 39.501h107
c0 -20 -3.33301 -39.5 -10 -58.5s-16.667 -35.667 -30 -50s-30.166 -25.833 -50.499 -34.5s-44.166 -13 -71.499 -13z" />
    <glyph glyph-name="Iogonek" unicode="&#x12e;" horiz-adv-x="292" 
d="M175 -74c0 -17.333 9.99902 -25.999 29.999 -25.999c6.66699 0 11.834 0.5 15.501 1.5s7.16699 2.16699 10.5 3.5l15 -77c-6 -2.66699 -15.333 -5.5 -28 -8.5s-27 -4.5 -43 -4.5c-44 0 -77 8 -99 24s-33 35.667 -33 59c0 14.667 3 27.5 9 38.5s13.5 20.5 22.5 28.5
s19 14.833 30 20.5s21.5 10.5 31.5 14.5h-70v716h160v-716c-12 -7.33301 -23.5 -17.833 -34.5 -31.5s-16.5 -27.834 -16.5 -42.501z" />
    <glyph glyph-name="iogonek" unicode="&#x12f;" horiz-adv-x="269" 
d="M134 568c-13.333 0 -25.499 2.33398 -36.499 7.00098s-20.833 11.167 -29.5 19.5s-15.334 18 -20.001 29s-7 22.5 -7 34.5c0 25.333 9 46.5 27 63.5s40 25.5 66 25.5c12.667 0 24.667 -2.33301 36 -7s21.333 -11 30 -19s15.5 -17.333 20.5 -28s7.5 -22.334 7.5 -35.001
c0 -12 -2.5 -23.5 -7.5 -34.5s-11.833 -20.667 -20.5 -29s-18.667 -14.833 -30 -19.5s-23.333 -7 -36 -7zM162.001 -184.999c-44.667 0 -77.833 8.00098 -99.5 24.001s-32.5 35.667 -32.5 59c0 14.667 2.83301 27.5 8.5 38.5s13 20.5 22 28.5s19 14.833 30 20.5
s21.833 10.5 32.5 14.5h-66v519h155v-519c-11.333 -7.33301 -22.5 -17.833 -33.5 -31.5s-16.5 -27.834 -16.5 -42.501c0 -17.333 10 -26 30 -26c6 0 10.833 0.5 14.5 1.5s7.5 2.16699 11.5 3.5l15 -77c-6 -2.66699 -15.333 -5.5 -28 -8.5s-27 -4.5 -43 -4.5z" />
    <glyph glyph-name="Idotaccent" unicode="&#x130;" horiz-adv-x="292" 
d="M226 716v-716h-160v716h160zM146 772c-13.333 0 -25.499 2.33203 -36.499 6.99902s-20.833 11.167 -29.5 19.5s-15.334 18 -20.001 29s-7 22.5 -7 34.5c0 12.667 2.33301 24.5 7 35.5s11.334 20.5 20.001 28.5s18.5 14.333 29.5 19s23.167 7 36.5 7
c25.333 0 47.166 -8.66699 65.499 -26s27.5 -38.666 27.5 -63.999c0 -12 -2.5 -23.5 -7.5 -34.5s-11.833 -20.667 -20.5 -29s-18.5 -14.833 -29.5 -19.5s-22.833 -7 -35.5 -7z" />
    <glyph glyph-name="dotlessi" unicode="&#x131;" horiz-adv-x="269" 
d="M212 519v-519h-155v519h155z" />
    <glyph glyph-name="IJ" unicode="&#x132;" horiz-adv-x="685" 
d="M226 716v-716h-160v716h160zM627 716l-0.00195312 -543c0 -26 -4 -50 -12 -72s-20.333 -41.333 -37 -58s-38 -29.667 -64 -39s-57 -14 -93 -14c-19.333 0 -39.666 1.5 -60.999 4.5s-41.666 8.83301 -60.999 17.5v130c17.333 -8 32.333 -13.667 45 -17s26.667 -5 42 -5
c18.667 0 33.5 2.33301 44.5 7s19.5 11.167 25.5 19.5s10 18.333 12 30s3 24.167 3 37.5v502h156z" />
    <glyph glyph-name="ij" unicode="&#x133;" horiz-adv-x="520" 
d="M134 568c-13.333 0 -25.499 2.33398 -36.499 7.00098s-20.833 11.167 -29.5 19.5s-15.334 18 -20.001 29s-7 22.5 -7 34.5c0 25.333 9 46.5 27 63.5s40 25.5 66 25.5c12.667 0 24.667 -2.33301 36 -7s21.333 -11 30 -19s15.5 -17.333 20.5 -28s7.5 -22.334 7.5 -35.001
c0 -12 -2.5 -23.5 -7.5 -34.5s-11.833 -20.667 -20.5 -29s-18.667 -14.833 -30 -19.5s-23.333 -7 -36 -7zM212.001 519.001v-519h-155v519h155zM385.001 568.001c-12.667 0 -24.667 2.33398 -36 7.00098s-21.333 11.167 -30 19.5s-15.5 18 -20.5 29s-7.5 22.5 -7.5 34.5
c0 25.333 9.33301 46.5 28 63.5s40.667 25.5 66 25.5c12.667 0 24.834 -2.33301 36.501 -7s21.834 -11 30.501 -19s15.5 -17.333 20.5 -28s7.5 -22.334 7.5 -35.001c0 -12 -2.5 -23.5 -7.5 -34.5s-11.833 -20.667 -20.5 -29s-18.834 -14.833 -30.501 -19.5
s-23.834 -7 -36.501 -7zM216.001 -65.998c34 0 58 10.668 72 32.001s21 49 21 83v470h155v-490c0 -34.667 -5.5 -65.334 -16.5 -92.001s-26.333 -49.167 -46 -67.5s-43.5 -32.333 -71.5 -42s-59 -14.5 -93 -14.5z" />
    <glyph glyph-name="Jcircumflex" unicode="&#x134;" horiz-adv-x="409" 
d="M351 716l0.000976562 -519c0 -32 -4 -60.667 -12 -86s-20.667 -47 -38 -65s-39.333 -31.833 -66 -41.5s-59 -14.5 -97 -14.5c-22.667 0 -44.834 2 -66.501 6s-40.167 9.66699 -55.5 17l27 125c26 -12 51.667 -18 77 -18c28 0 47.5 8 58.5 24s16.5 39.333 16.5 70v502h156
zM268.001 849l-70 -71h-118l109 148h157l108 -148h-118z" />
    <glyph glyph-name="jcircumflex" unicode="&#x135;" horiz-adv-x="273" 
d="M-30 -66c34 0 58 10.668 72 32.001s21 49 21 83v470h155v-490c0 -34.667 -5.5 -65.334 -16.5 -92.001s-26.333 -49.167 -46 -67.5s-43.5 -32.333 -71.5 -42s-59 -14.5 -93 -14.5zM139 655.001l-60 -67h-118l99 148h157l99 -148h-119z" />
    <glyph glyph-name="uni0136" unicode="&#x136;" horiz-adv-x="661" 
d="M267 290h-41v-290h-160v716h160v-295h52l201 295h163l-241 -352l252 -364h-184zM270 -237c11.333 9.33301 21.667 18.999 31 28.999s17.333 20.667 24 32c-14.667 3.33301 -26.667 10.5 -36 21.5s-14 24.5 -14 40.5c0 18 6.33301 33.333 19 46s29.667 19 51 19
s39.5 -6.16699 54.5 -18.5s22.5 -30.166 22.5 -53.499c0 -24 -6.5 -45.667 -19.5 -65s-27.5 -36.333 -43.5 -51h-89z" />
    <glyph glyph-name="uni0137" unicode="&#x137;" horiz-adv-x="566" 
d="M254 196h-43v-196h-155v716h155v-400h44l144 203h152l-174 -246l189 -273h-176zM219 -237c11.333 9.33301 21.667 18.999 31 28.999s17.333 20.667 24 32c-14.667 3.33301 -26.667 10.5 -36 21.5s-14 24.5 -14 40.5c0 18 6.33301 33.333 19 46s29.667 19 51 19
s39.5 -6.16699 54.5 -18.5s22.5 -30.166 22.5 -53.499c0 -24 -6.5 -45.667 -19.5 -65s-27.5 -36.333 -43.5 -51h-89z" />
    <glyph glyph-name="Lacute" unicode="&#x139;" horiz-adv-x="535" 
d="M66 716h160v-586h278v-130h-438v716zM151 914h188l-137 -136h-125z" />
    <glyph glyph-name="lacute" unicode="&#x13a;" horiz-adv-x="268" 
d="M211 716v-716h-155v716h155zM134 914h188l-137 -136h-125z" />
    <glyph glyph-name="uni013B" unicode="&#x13b;" horiz-adv-x="535" 
d="M66 716h160v-586h278v-130h-438v716zM218 -237c11.333 9.33301 21.667 18.999 31 28.999s17.333 20.667 24 32c-14.667 3.33301 -26.667 10.5 -36 21.5s-14 24.5 -14 40.5c0 18 6.33301 33.333 19 46s29.667 19 51 19s39.5 -6.16699 54.5 -18.5
s22.5 -30.166 22.5 -53.499c0 -24 -6.5 -45.667 -19.5 -65s-27.5 -36.333 -43.5 -51h-89z" />
    <glyph glyph-name="uni013C" unicode="&#x13c;" horiz-adv-x="268" 
d="M211 716v-716h-155v716h155zM52 -237c11.333 9.33301 21.667 18.999 31 28.999s17.333 20.667 24 32c-14.667 3.33301 -26.667 10.5 -36 21.5s-14 24.5 -14 40.5c0 18 6.33301 33.333 19 46s29.667 19 51 19s39.5 -6.16699 54.5 -18.5s22.5 -30.166 22.5 -53.499
c0 -24 -6.5 -45.667 -19.5 -65s-27.5 -36.333 -43.5 -51h-89z" />
    <glyph glyph-name="Lcaron" unicode="&#x13d;" horiz-adv-x="535" 
d="M66 716h160v-586h278v-130h-438v716zM298 555l19 161h137l-58 -161h-98z" />
    <glyph glyph-name="lcaron" unicode="&#x13e;" horiz-adv-x="268" 
d="M211 716v-716h-155v716h155zM247 555l19 161h137l-58 -161h-98z" />
    <glyph glyph-name="Ldot" unicode="&#x13f;" horiz-adv-x="552" 
d="M66 716h160v-586h278v-130h-438v716zM443 294c-14 0 -27.167 2.66699 -39.5 8s-23 12.5 -32 21.5s-16 19.333 -21 31s-7.5 24.167 -7.5 37.5s2.5 25.833 7.5 37.5s12 22 21 31s19.667 16 32 21s25.5 7.5 39.5 7.5s27.167 -2.5 39.5 -7.5s23 -12 32 -21
s16.167 -19.333 21.5 -31s8 -24.167 8 -37.5s-2.66699 -25.833 -8 -37.5s-12.5 -22 -21.5 -31s-19.667 -16.167 -32 -21.5s-25.5 -8 -39.5 -8z" />
    <glyph glyph-name="ldot" unicode="&#x140;" horiz-adv-x="466" 
d="M211 716v-716h-155v716h155zM366.002 272.35c-13.2998 0 -25.8086 2.5332 -37.5254 7.60059c-11.7168 5.06641 -21.8506 11.875 -30.4004 20.4248s-15.2002 18.3662 -19.9502 29.4492c-4.75098 11.084 -7.12598 22.959 -7.12598 35.626s2.375 24.542 7.12598 35.625
c4.75 11.084 11.4004 20.9014 19.9502 29.4512s18.6836 15.2002 30.4004 19.9502s24.2256 7.125 37.5254 7.125s25.8086 -2.375 37.5254 -7.125s21.8506 -11.4004 30.4004 -19.9502s15.3584 -18.3672 20.4248 -29.4512c5.06738 -11.083 7.60059 -22.958 7.60059 -35.625
s-2.5332 -24.542 -7.60059 -35.626c-5.06641 -11.083 -11.875 -20.8994 -20.4248 -29.4492s-18.6836 -15.3584 -30.4004 -20.4248c-11.7168 -5.06738 -24.2256 -7.60059 -37.5254 -7.60059z" />
    <glyph glyph-name="Lslash" unicode="&#x141;" horiz-adv-x="555" 
d="M-3 298l69 38v380h160v-292l209 116v-130l-209 -116v-164h278v-130h-438v206l-69 -38v130z" />
    <glyph glyph-name="lslash" unicode="&#x142;" horiz-adv-x="345" 
d="M19 301l76 59v356h155v-235l76 60v-129l-76 -60v-352h-155v231l-76 -59v129z" />
    <glyph glyph-name="Nacute" unicode="&#x143;" horiz-adv-x="737" 
d="M206 515v-515h-140v716h202l264 -509v509h139v-716h-198zM397 914h188l-137 -136h-125z" />
    <glyph glyph-name="nacute" unicode="&#x144;" horiz-adv-x="600" 
d="M321 408c-24.667 0 -46.334 -4.5 -65.001 -13.5s-33.667 -20.5 -45 -34.5v-360h-155v519h146l6 -73h2c14.667 23.333 35.167 43 61.5 59s59.833 24 100.5 24c24.667 0 47.834 -3.5 69.501 -10.5s40.5 -17.333 56.5 -31s28.5 -31 37.5 -52s13.5 -45.5 13.5 -73.5v-362
h-155v346c0 22.667 -6.5 38.667 -19.5 48s-30.833 14 -53.5 14zM314 746h157l-126 -158h-110z" />
    <glyph glyph-name="uni0145" unicode="&#x145;" horiz-adv-x="737" 
d="M206 515v-515h-140v716h202l264 -509v509h139v-716h-198zM272 -237c11.333 9.33301 21.667 18.999 31 28.999s17.333 20.667 24 32c-14.667 3.33301 -26.667 10.5 -36 21.5s-14 24.5 -14 40.5c0 18 6.33301 33.333 19 46s29.667 19 51 19s39.5 -6.16699 54.5 -18.5
s22.5 -30.166 22.5 -53.499c0 -24 -6.5 -45.667 -19.5 -65s-27.5 -36.333 -43.5 -51h-89z" />
    <glyph glyph-name="uni0146" unicode="&#x146;" horiz-adv-x="600" 
d="M321 408c-24.667 0 -46.334 -4.5 -65.001 -13.5s-33.667 -20.5 -45 -34.5v-360h-155v519h146l6 -73h2c14.667 23.333 35.167 43 61.5 59s59.833 24 100.5 24c24.667 0 47.834 -3.5 69.501 -10.5s40.5 -17.333 56.5 -31s28.5 -31 37.5 -52s13.5 -45.5 13.5 -73.5v-362
h-155v346c0 22.667 -6.5 38.667 -19.5 48s-30.833 14 -53.5 14zM222 -237c11.333 9.33301 21.667 18.999 31 28.999s17.333 20.667 24 32c-14.667 3.33301 -26.667 10.5 -36 21.5s-14 24.5 -14 40.5c0 18 6.33301 33.333 19 46s29.667 19 51 19s39.5 -6.16699 54.5 -18.5
s22.5 -30.166 22.5 -53.499c0 -24 -6.5 -45.667 -19.5 -65s-27.5 -36.333 -43.5 -51h-89z" />
    <glyph glyph-name="Ncaron" unicode="&#x147;" horiz-adv-x="737" 
d="M206 515v-515h-140v716h202l264 -509v509h139v-716h-198zM315 778l-108 148h118l68 -71l70 71h118l-109 -148h-157z" />
    <glyph glyph-name="ncaron" unicode="&#x148;" horiz-adv-x="600" 
d="M321 408c-24.667 0 -46.334 -4.5 -65.001 -13.5s-33.667 -20.5 -45 -34.5v-360h-155v519h146l6 -73h2c14.667 23.333 35.167 43 61.5 59s59.833 24 100.5 24c24.667 0 47.834 -3.5 69.501 -10.5s40.5 -17.333 56.5 -31s28.5 -31 37.5 -52s13.5 -45.5 13.5 -73.5v-362
h-155v346c0 22.667 -6.5 38.667 -19.5 48s-30.833 14 -53.5 14zM125 736h118l60 -67l58 67h119l-99 -148h-157z" />
    <glyph glyph-name="Eng" unicode="&#x14a;" horiz-adv-x="737" 
d="M470 -199c-20 0 -40.499 2.16699 -61.499 6.5s-39.167 10.166 -54.5 17.499l26 124c26 -12 51.667 -18 77 -18c24 0 41.5 5.83301 52.5 17.5s18.167 28.834 21.5 51.501h-58l-267 515v-515h-140v716h202l264 -509v509h139v-684c0 -76 -16.333 -133.5 -49 -172.5
s-83.334 -58.5 -152.001 -58.5z" />
    <glyph glyph-name="eng" unicode="&#x14b;" horiz-adv-x="600" 
d="M549 29c0 -34.667 -5.33301 -65.333 -16 -92s-26 -49.167 -46 -67.5s-43.833 -32.333 -71.5 -42s-58.5 -14.5 -92.5 -14.5l-21 121c33.333 0 57 10.833 71 32.5s21 49.167 21 82.5v297c0 22.667 -6.5 38.667 -19.5 48s-30.833 14 -53.5 14
c-24.667 0 -46.334 -4.5 -65.001 -13.5s-33.667 -20.5 -45 -34.5v-360h-155v519h146l6 -73h2c14.667 23.333 35.167 43 61.5 59s59.833 24 100.5 24c24.667 0 47.834 -3.5 69.501 -10.5s40.5 -17.333 56.5 -31s28.5 -31 37.5 -52s13.5 -45.5 13.5 -73.5v-333v0z" />
    <glyph glyph-name="Omacron" unicode="&#x14c;" horiz-adv-x="777" 
d="M388 -10c-49.333 0 -95.5 7.83301 -138.5 23.5s-80.5 38.834 -112.5 69.501s-57.167 68.667 -75.5 114s-27.5 98 -27.5 158s9.16699 113 27.5 159s43.5 84.667 75.5 116s69.5 55.166 112.5 71.499s89.167 24.5 138.5 24.5s95.5 -7.83301 138.5 -23.5
s80.5 -38.834 112.5 -69.501s57.333 -68.667 76 -114s28 -98 28 -158s-9.33301 -113 -28 -159s-44 -84.667 -76 -116s-69.5 -55.166 -112.5 -71.499s-89.167 -24.5 -138.5 -24.5zM388 120c27.333 0 52.5 4.16699 75.5 12.5s43 22 60 41s30.333 43.667 40 74
s14.5 67.166 14.5 110.499s-4.83301 80.166 -14.5 110.499s-23 55 -40 74s-37 32.667 -60 41s-48.167 12.5 -75.5 12.5s-52.5 -4.16699 -75.5 -12.5s-42.833 -22 -59.5 -41s-29.834 -43.667 -39.501 -74s-14.5 -67.166 -14.5 -110.499s4.83301 -80.166 14.5 -110.499
s22.834 -55 39.501 -74s36.5 -32.667 59.5 -41s48.167 -12.5 75.5 -12.5zM226 902h326v-110h-326v110z" />
    <glyph glyph-name="omacron" unicode="&#x14d;" horiz-adv-x="594" 
d="M296 -10c-38 0 -73.167 5.83301 -105.5 17.5s-60.5 29 -84.5 52s-42.833 51.167 -56.5 84.5s-20.5 72 -20.5 116c0 43.333 6.83301 81.833 20.5 115.5s32.5 61.834 56.5 84.501s52.167 39.834 84.5 51.501s67.5 17.5 105.5 17.5s73.333 -5.83301 106 -17.5
s61.167 -28.834 85.5 -51.501s43.333 -50.834 57 -84.501s20.5 -72.167 20.5 -115.5c0 -44 -6.83301 -82.667 -20.5 -116s-32.667 -61.5 -57 -84.5s-52.833 -40.333 -85.5 -52s-68 -17.5 -106 -17.5zM296 109c32 0 58.167 12.167 78.5 36.5s30.5 62.5 30.5 114.5
c0 50 -10.167 87.333 -30.5 112s-46.5 37 -78.5 37c-30.667 0 -56.167 -12.333 -76.5 -37s-30.5 -62 -30.5 -112c0 -52 10.167 -90.167 30.5 -114.5s45.833 -36.5 76.5 -36.5zM138 697h317v-105h-317v105z" />
    <glyph glyph-name="Obreve" unicode="&#x14e;" horiz-adv-x="777" 
d="M388 -10c-49.333 0 -95.5 7.83301 -138.5 23.5s-80.5 38.834 -112.5 69.501s-57.167 68.667 -75.5 114s-27.5 98 -27.5 158s9.16699 113 27.5 159s43.5 84.667 75.5 116s69.5 55.166 112.5 71.499s89.167 24.5 138.5 24.5s95.5 -7.83301 138.5 -23.5
s80.5 -38.834 112.5 -69.501s57.333 -68.667 76 -114s28 -98 28 -158s-9.33301 -113 -28 -159s-44 -84.667 -76 -116s-69.5 -55.166 -112.5 -71.499s-89.167 -24.5 -138.5 -24.5zM388 120c27.333 0 52.5 4.16699 75.5 12.5s43 22 60 41s30.333 43.667 40 74
s14.5 67.166 14.5 110.499s-4.83301 80.166 -14.5 110.499s-23 55 -40 74s-37 32.667 -60 41s-48.167 12.5 -75.5 12.5s-52.5 -4.16699 -75.5 -12.5s-42.833 -22 -59.5 -41s-29.834 -43.667 -39.501 -74s-14.5 -67.166 -14.5 -110.499s4.83301 -80.166 14.5 -110.499
s22.834 -55 39.501 -74s36.5 -32.667 59.5 -41s48.167 -12.5 75.5 -12.5zM389 765c-30 0 -56.168 4.5 -78.501 13.5s-40.666 21 -54.999 36s-25.166 32.333 -32.499 52s-11 40.5 -11 62.5h113c0 -17.333 5.5 -31.333 16.5 -42s26.833 -16 47.5 -16
c21.333 0 37.166 5.33301 47.499 16s15.5 24.667 15.5 42h114c0 -22 -3.66699 -42.833 -11 -62.5s-18.333 -37 -33 -52s-33 -27 -55 -36s-48 -13.5 -78 -13.5z" />
    <glyph glyph-name="obreve" unicode="&#x14f;" horiz-adv-x="594" 
d="M296 -10c-38 0 -73.167 5.83301 -105.5 17.5s-60.5 29 -84.5 52s-42.833 51.167 -56.5 84.5s-20.5 72 -20.5 116c0 43.333 6.83301 81.833 20.5 115.5s32.5 61.834 56.5 84.501s52.167 39.834 84.5 51.501s67.5 17.5 105.5 17.5s73.333 -5.83301 106 -17.5
s61.167 -28.834 85.5 -51.501s43.333 -50.834 57 -84.501s20.5 -72.167 20.5 -115.5c0 -44 -6.83301 -82.667 -20.5 -116s-32.667 -61.5 -57 -84.5s-52.833 -40.333 -85.5 -52s-68 -17.5 -106 -17.5zM296 109c32 0 58.167 12.167 78.5 36.5s30.5 62.5 30.5 114.5
c0 50 -10.167 87.333 -30.5 112s-46.5 37 -78.5 37c-30.667 0 -56.167 -12.333 -76.5 -37s-30.5 -62 -30.5 -112c0 -52 10.167 -90.167 30.5 -114.5s45.833 -36.5 76.5 -36.5zM297 580c-27.333 0 -51.1699 4.33301 -71.5029 13s-37.166 20.167 -50.499 34.5
s-23.333 31 -30 50s-10 38.5 -10 58.5h106c0 -16.667 5.16699 -29.834 15.5 -39.501s23.833 -14.5 40.5 -14.5s30 4.83301 40 14.5s15 22.834 15 39.501h107c0 -20 -3.33301 -39.5 -10 -58.5s-16.667 -35.667 -30 -50s-30.166 -25.833 -50.499 -34.5
s-44.166 -13 -71.499 -13z" />
    <glyph glyph-name="Ohungarumlaut" unicode="&#x150;" horiz-adv-x="777" 
d="M388 -10c-49.333 0 -95.5 7.83301 -138.5 23.5s-80.5 38.834 -112.5 69.501s-57.167 68.667 -75.5 114s-27.5 98 -27.5 158s9.16699 113 27.5 159s43.5 84.667 75.5 116s69.5 55.166 112.5 71.499s89.167 24.5 138.5 24.5s95.5 -7.83301 138.5 -23.5
s80.5 -38.834 112.5 -69.501s57.333 -68.667 76 -114s28 -98 28 -158s-9.33301 -113 -28 -159s-44 -84.667 -76 -116s-69.5 -55.166 -112.5 -71.499s-89.167 -24.5 -138.5 -24.5zM388 120c27.333 0 52.5 4.16699 75.5 12.5s43 22 60 41s30.333 43.667 40 74
s14.5 67.166 14.5 110.499s-4.83301 80.166 -14.5 110.499s-23 55 -40 74s-37 32.667 -60 41s-48.167 12.5 -75.5 12.5s-52.5 -4.16699 -75.5 -12.5s-42.833 -22 -59.5 -41s-29.834 -43.667 -39.501 -74s-14.5 -67.166 -14.5 -110.499s4.83301 -80.166 14.5 -110.499
s22.834 -55 39.501 -74s36.5 -32.667 59.5 -41s48.167 -12.5 75.5 -12.5zM424 778l39 136h154l-89 -136h-104zM231 778l39 136h154l-89 -136h-104z" />
    <glyph glyph-name="ohungarumlaut" unicode="&#x151;" horiz-adv-x="594" 
d="M296 -10c-38 0 -73.167 5.83301 -105.5 17.5s-60.5 29 -84.5 52s-42.833 51.167 -56.5 84.5s-20.5 72 -20.5 116c0 43.333 6.83301 81.833 20.5 115.5s32.5 61.834 56.5 84.501s52.167 39.834 84.5 51.501s67.5 17.5 105.5 17.5s73.333 -5.83301 106 -17.5
s61.167 -28.834 85.5 -51.501s43.333 -50.834 57 -84.501s20.5 -72.167 20.5 -115.5c0 -44 -6.83301 -82.667 -20.5 -116s-32.667 -61.5 -57 -84.5s-52.833 -40.333 -85.5 -52s-68 -17.5 -106 -17.5zM296 109c32 0 58.167 12.167 78.5 36.5s30.5 62.5 30.5 114.5
c0 50 -10.167 87.333 -30.5 112s-46.5 37 -78.5 37c-30.667 0 -56.167 -12.333 -76.5 -37s-30.5 -62 -30.5 -112c0 -52 10.167 -90.167 30.5 -114.5s45.833 -36.5 76.5 -36.5zM336 588l60 158h137l-88 -158h-109zM148 588l60 158h137l-88 -158h-109z" />
    <glyph glyph-name="OE" unicode="&#x152;" horiz-adv-x="993" 
d="M472 130v456h-62c-30 0 -58 -3.83301 -84 -11.5s-48.333 -20.334 -67 -38.001s-33.334 -40.667 -44.001 -69s-16 -63.166 -16 -104.499c0 -42.667 5.33301 -78.834 16 -108.501s25.834 -53.667 45.501 -72s43 -31.666 70 -39.999s56.833 -12.5 89.5 -12.5h52zM430 0
c-57.333 0 -110.168 7.33496 -158.501 22.002s-90 37.167 -125 67.5s-62.5 68.666 -82.5 114.999s-30 101.166 -30 164.499s9.83301 117 29.5 161s46.834 79.833 81.501 107.5s75.5 47.667 122.5 60s97.833 18.5 152.5 18.5h520v-130h-308v-151h257v-130h-257v-175h313v-130
h-515z" />
    <glyph glyph-name="oe" unicode="&#x153;" horiz-adv-x="955" 
d="M679 414c-28 0 -51.168 -8 -69.501 -24s-31.166 -39.667 -38.499 -71h195c0.666992 63.333 -28.333 95 -87 95zM295.999 111c32 0 58 12.333 78 37s30 62 30 112s-10 87.167 -30 111.5s-46 36.5 -78 36.5c-30.667 0 -56.167 -12.167 -76.5 -36.5
s-30.5 -61.5 -30.5 -111.5s10.167 -87.333 30.5 -112s45.833 -37 76.5 -37zM912.999 37c-12.667 -8.66699 -28.0049 -16.668 -46.0049 -24.001c-15.333 -6 -35.166 -11.333 -59.499 -16s-52.833 -7 -85.5 -7c-59.333 0 -108.5 8.16699 -147.5 24.5s-69.167 40.5 -90.5 72.5
c-21.333 -32 -48.666 -56.167 -81.999 -72.5s-71.666 -24.5 -114.999 -24.5c-35.333 0 -68.666 5.83301 -99.999 17.5s-58.666 29 -81.999 52s-41.833 51.167 -55.5 84.5s-20.5 72 -20.5 116c0 43.333 6.83301 81.833 20.5 115.5s32.167 61.834 55.5 84.501
s50.666 39.834 81.999 51.501s64.666 17.5 99.999 17.5c43.333 0 81.833 -8.33301 115.5 -25s61.167 -41 82.5 -73c20.667 32 47.834 56.333 81.501 73s73.167 25 118.5 25c38.667 0 73.834 -6.5 105.501 -19.5s58.167 -32.333 79.5 -58s36.166 -57.834 44.499 -96.501
s8.5 -84 0.5 -136h-347c5.33301 -36 19.666 -63 42.999 -81s61 -27 113 -27c24.667 0 46.834 2 66.501 6s36.334 8.5 50.001 13.5s24.167 9.5 31.5 13.5s11 6.33301 11 7z" />
    <glyph glyph-name="Racute" unicode="&#x154;" horiz-adv-x="658" 
d="M226 586v-191h89c44 0 77 7 99 21s33 39 33 75c0 35.333 -11 60 -33 74s-55.667 21 -101 21h-87zM297 272l-71 -0.000976562v-272h-160v716h247c98.667 0 172.167 -17.667 220.5 -53s72.5 -92.666 72.5 -171.999c0 -56 -12.167 -99.833 -36.5 -131.5
s-57.833 -54.5 -100.5 -68.5l170 -291h-184zM334 913.999h188l-137 -136h-125z" />
    <glyph glyph-name="racute" unicode="&#x155;" horiz-adv-x="411" 
d="M388 373c-16 2.66699 -31.667 4 -47 4c-20 0 -42.167 -3.66699 -66.5 -11s-45.5 -20.333 -63.5 -39v-327h-155v519h146l6 -103h2c19.333 36 44.333 63.5 75 82.5s65 29.167 103 30.5v-156zM240 746h157l-126 -158h-110z" />
    <glyph glyph-name="uni0156" unicode="&#x156;" horiz-adv-x="658" 
d="M226 586v-191h89c44 0 77 7 99 21s33 39 33 75c0 35.333 -11 60 -33 74s-55.667 21 -101 21h-87zM297 272l-71 -0.000976562v-272h-160v716h247c98.667 0 172.167 -17.667 220.5 -53s72.5 -92.666 72.5 -171.999c0 -56 -12.167 -99.833 -36.5 -131.5
s-57.833 -54.5 -100.5 -68.5l170 -291h-184zM254 -237.001c11.333 9.33301 21.667 18.999 31 28.999s17.333 20.667 24 32c-14.667 3.33301 -26.667 10.5 -36 21.5s-14 24.5 -14 40.5c0 18 6.33301 33.333 19 46s29.667 19 51 19s39.5 -6.16699 54.5 -18.5
s22.5 -30.166 22.5 -53.499c0 -24 -6.5 -45.667 -19.5 -65s-27.5 -36.333 -43.5 -51h-89z" />
    <glyph glyph-name="uni0157" unicode="&#x157;" horiz-adv-x="411" 
d="M388 373c-16 2.66699 -31.667 4 -47 4c-20 0 -42.167 -3.66699 -66.5 -11s-45.5 -20.333 -63.5 -39v-327h-155v519h146l6 -103h2c19.333 36 44.333 63.5 75 82.5s65 29.167 103 30.5v-156zM54 -237c11.333 9.33301 21.667 18.999 31 28.999s17.333 20.667 24 32
c-14.667 3.33301 -26.667 10.5 -36 21.5s-14 24.5 -14 40.5c0 18 6.33301 33.333 19 46s29.667 19 51 19s39.5 -6.16699 54.5 -18.5s22.5 -30.166 22.5 -53.499c0 -24 -6.5 -45.667 -19.5 -65s-27.5 -36.333 -43.5 -51h-89z" />
    <glyph glyph-name="Rcaron" unicode="&#x158;" horiz-adv-x="658" 
d="M226 586v-191h89c44 0 77 7 99 21s33 39 33 75c0 35.333 -11 60 -33 74s-55.667 21 -101 21h-87zM297 272l-71 -0.000976562v-272h-160v716h247c98.667 0 172.167 -17.667 220.5 -53s72.5 -92.666 72.5 -171.999c0 -56 -12.167 -99.833 -36.5 -131.5
s-57.833 -54.5 -100.5 -68.5l170 -291h-184zM251 777.999l-108 148h118l68 -71l70 71h118l-109 -148h-157z" />
    <glyph glyph-name="rcaron" unicode="&#x159;" horiz-adv-x="411" 
d="M388 373c-16 2.66699 -31.667 4 -47 4c-20 0 -42.167 -3.66699 -66.5 -11s-45.5 -20.333 -63.5 -39v-327h-155v519h146l6 -103h2c19.333 36 44.333 63.5 75 82.5s65 29.167 103 30.5v-156zM50 736h118l60 -67l58 67h119l-99 -148h-157z" />
    <glyph glyph-name="Sacute" unicode="&#x15a;" horiz-adv-x="597" 
d="M270 -10c-28.667 0 -54.5 1.82812 -77.5 5.49512s-43.667 8.5 -62 14.5s-34.833 12.667 -49.5 20s-27.667 14.666 -39 21.999l21 130c10 -7.33301 22.333 -14.666 37 -21.999s31 -14 49 -20s37 -10.833 57 -14.5s40 -5.5 60 -5.5c20.667 0 39.667 1.16699 57 3.5
s32.333 6.33301 45 12s22.5 13.334 29.5 23.001s10.5 21.834 10.5 36.501c0 16.667 -3.83301 30.334 -11.5 41.001s-18.167 19.667 -31.5 27s-29 13.5 -47 18.5s-37.667 9.83301 -59 14.5c-26 6 -52.167 13.333 -78.5 22s-50.166 20.834 -71.499 36.501s-38.833 36 -52.5 61
s-20.5 56.833 -20.5 95.5c0 35.333 7.16699 66.5 21.5 93.5s34.166 49.5 59.499 67.5s55.833 31.5 91.5 40.5s75.167 13.5 118.5 13.5c50.667 0 91.667 -5 123 -15s54.666 -19.667 69.999 -29l-21 -129c-23.333 13.333 -49 23.833 -77 31.5s-59.333 11.5 -94 11.5
c-45.333 0 -79.833 -6 -103.5 -18s-35.5 -30.333 -35.5 -55c0 -14 3.83301 -25.667 11.5 -35s17.834 -17.166 30.501 -23.499s27.5 -11.666 44.5 -15.999s34.5 -8.5 52.5 -12.5c28 -6.66699 56.167 -14.334 84.5 -23.001s53.833 -21 76.5 -37s41 -36.833 55 -62.5
s21 -58.5 21 -98.5c0 -44.667 -8.33301 -81.5 -25 -110.5s-38.834 -52 -66.501 -69s-59.167 -28.833 -94.5 -35.5s-71.666 -10 -108.999 -10zM300 913.995h188l-137 -136h-125z" />
    <glyph glyph-name="sacute" unicode="&#x15b;" horiz-adv-x="474" 
d="M236 -7c-52 0 -94.6709 5 -128.004 15s-57.333 20.667 -72 32l27 112c16 -12 38.667 -22.667 68 -32s63 -14 101 -14c49.333 0 74 15.667 74 47c0 10.667 -3 19 -9 25s-14.167 10.5 -24.5 13.5s-22.166 5.16699 -35.499 6.5s-27.333 3 -42 5
c-19.333 2.66699 -38.333 7.16699 -57 13.5s-35.5 15.333 -50.5 27s-27.167 26.834 -36.5 45.501s-14 42 -14 70c0 52.667 18 93.667 54 123s88 44 156 44c42 0 78.167 -3.66699 108.5 -11s51.833 -14.666 64.5 -21.999l-31 -105c-12.667 7.33301 -30.667 13.5 -54 18.5
s-50 7.5 -80 7.5c-32 0 -53.833 -3.33301 -65.5 -10s-17.5 -16.667 -17.5 -30c0 -10 3.16699 -17.5 9.5 -22.5s14.833 -9 25.5 -12s22.834 -5.16699 36.501 -6.5s28.167 -3 43.5 -5c18 -2.66699 36.333 -6.83398 55 -12.501s35.834 -14.334 51.501 -26.001
s28.334 -27.167 38.001 -46.5s14.5 -44 14.5 -74c0 -32.667 -6 -60.167 -18 -82.5s-27.833 -40.5 -47.5 -54.5s-42.167 -24 -67.5 -30s-51 -9 -77 -9zM251.996 746h157l-126 -158h-110z" />
    <glyph glyph-name="Scircumflex" unicode="&#x15c;" horiz-adv-x="597" 
d="M270 -10c-28.667 0 -54.5 1.82812 -77.5 5.49512s-43.667 8.5 -62 14.5s-34.833 12.667 -49.5 20s-27.667 14.666 -39 21.999l21 130c10 -7.33301 22.333 -14.666 37 -21.999s31 -14 49 -20s37 -10.833 57 -14.5s40 -5.5 60 -5.5c20.667 0 39.667 1.16699 57 3.5
s32.333 6.33301 45 12s22.5 13.334 29.5 23.001s10.5 21.834 10.5 36.501c0 16.667 -3.83301 30.334 -11.5 41.001s-18.167 19.667 -31.5 27s-29 13.5 -47 18.5s-37.667 9.83301 -59 14.5c-26 6 -52.167 13.333 -78.5 22s-50.166 20.834 -71.499 36.501s-38.833 36 -52.5 61
s-20.5 56.833 -20.5 95.5c0 35.333 7.16699 66.5 21.5 93.5s34.166 49.5 59.499 67.5s55.833 31.5 91.5 40.5s75.167 13.5 118.5 13.5c50.667 0 91.667 -5 123 -15s54.666 -19.667 69.999 -29l-21 -129c-23.333 13.333 -49 23.833 -77 31.5s-59.333 11.5 -94 11.5
c-45.333 0 -79.833 -6 -103.5 -18s-35.5 -30.333 -35.5 -55c0 -14 3.83301 -25.667 11.5 -35s17.834 -17.166 30.501 -23.499s27.5 -11.666 44.5 -15.999s34.5 -8.5 52.5 -12.5c28 -6.66699 56.167 -14.334 84.5 -23.001s53.833 -21 76.5 -37s41 -36.833 55 -62.5
s21 -58.5 21 -98.5c0 -44.667 -8.33301 -81.5 -25 -110.5s-38.834 -52 -66.501 -69s-59.167 -28.833 -94.5 -35.5s-71.666 -10 -108.999 -10zM299 848.995l-70 -71h-118l109 148h157l108 -148h-118z" />
    <glyph glyph-name="scircumflex" unicode="&#x15d;" horiz-adv-x="474" 
d="M236 -7c-52 0 -94.6709 5 -128.004 15s-57.333 20.667 -72 32l27 112c16 -12 38.667 -22.667 68 -32s63 -14 101 -14c49.333 0 74 15.667 74 47c0 10.667 -3 19 -9 25s-14.167 10.5 -24.5 13.5s-22.166 5.16699 -35.499 6.5s-27.333 3 -42 5
c-19.333 2.66699 -38.333 7.16699 -57 13.5s-35.5 15.333 -50.5 27s-27.167 26.834 -36.5 45.501s-14 42 -14 70c0 52.667 18 93.667 54 123s88 44 156 44c42 0 78.167 -3.66699 108.5 -11s51.833 -14.666 64.5 -21.999l-31 -105c-12.667 7.33301 -30.667 13.5 -54 18.5
s-50 7.5 -80 7.5c-32 0 -53.833 -3.33301 -65.5 -10s-17.5 -16.667 -17.5 -30c0 -10 3.16699 -17.5 9.5 -22.5s14.833 -9 25.5 -12s22.834 -5.16699 36.501 -6.5s28.167 -3 43.5 -5c18 -2.66699 36.333 -6.83398 55 -12.501s35.834 -14.334 51.501 -26.001
s28.334 -27.167 38.001 -46.5s14.5 -44 14.5 -74c0 -32.667 -6 -60.167 -18 -82.5s-27.833 -40.5 -47.5 -54.5s-42.167 -24 -67.5 -30s-51 -9 -77 -9zM240.996 655l-60 -67h-118l99 148h157l99 -148h-119z" />
    <glyph glyph-name="uni015E" unicode="&#x15e;" horiz-adv-x="597" 
d="M192 -4c-22.667 3.33301 -43.166 7.99512 -61.499 13.9951s-34.833 12.667 -49.5 20s-27.667 14.666 -39 21.999l21 130c10 -7.33301 22.333 -14.666 37 -21.999s31 -14 49 -20s37 -10.833 57 -14.5s40 -5.5 60 -5.5c20.667 0 39.667 1.16699 57 3.5
s32.333 6.33301 45 12s22.5 13.334 29.5 23.001s10.5 21.834 10.5 36.501c0 16.667 -3.83301 30.334 -11.5 41.001s-18.167 19.667 -31.5 27s-29 13.5 -47 18.5s-37.667 9.83301 -59 14.5c-26 6 -52.167 13.333 -78.5 22s-50.166 20.834 -71.499 36.501s-38.833 36 -52.5 61
s-20.5 56.833 -20.5 95.5c0 35.333 7.16699 66.5 21.5 93.5s34.166 49.5 59.499 67.5s55.833 31.5 91.5 40.5s75.167 13.5 118.5 13.5c50.667 0 91.667 -5 123 -15s54.666 -19.667 69.999 -29l-21 -129c-23.333 13.333 -49 23.833 -77 31.5s-59.333 11.5 -94 11.5
c-45.333 0 -79.833 -6 -103.5 -18s-35.5 -30.333 -35.5 -55c0 -14 3.83301 -25.667 11.5 -35s17.834 -17.166 30.501 -23.499s27.5 -11.666 44.5 -15.999s34.5 -8.5 52.5 -12.5c28 -6.66699 56.167 -14.334 84.5 -23.001s53.833 -21 76.5 -37s41 -36.833 55 -62.5
s21 -58.5 21 -98.5c0 -44.667 -8.33301 -81.5 -25 -110.5s-38.834 -52 -66.501 -69s-59.167 -28.833 -94.5 -35.5l-25 -4l-50 -183h-151l78 178c-13.333 1.33301 -26.333 3 -39 5z" />
    <glyph glyph-name="uni015F" unicode="&#x15f;" horiz-adv-x="474" 
d="M108 8c-33.333 10 -57.3369 20.667 -72.0039 32l27 112c16 -12 38.667 -22.667 68 -32s63 -14 101 -14c49.333 0 74 15.667 74 47c0 10.667 -3 19 -9 25s-14.167 10.5 -24.5 13.5s-22.166 5.16699 -35.499 6.5s-27.333 3 -42 5c-19.333 2.66699 -38.333 7.16699 -57 13.5
s-35.5 15.333 -50.5 27s-27.167 26.834 -36.5 45.501s-14 42 -14 70c0 52.667 18 93.667 54 123s88 44 156 44c42 0 78.167 -3.66699 108.5 -11s51.833 -14.666 64.5 -21.999l-31 -105c-12.667 7.33301 -30.667 13.5 -54 18.5s-50 7.5 -80 7.5
c-32 0 -53.833 -3.33301 -65.5 -10s-17.5 -16.667 -17.5 -30c0 -10 3.16699 -17.5 9.5 -22.5s14.833 -9 25.5 -12s22.834 -5.16699 36.501 -6.5s28.167 -3 43.5 -5c18 -2.66699 36.333 -6.83398 55 -12.501s35.834 -14.334 51.501 -26.001s28.334 -27.167 38.001 -46.5
s14.5 -44 14.5 -74c0 -32.667 -6 -60.167 -18 -82.5s-27.833 -40.5 -47.5 -54.5s-42.167 -24 -67.5 -30l-22 -4l-51 -185h-151l80 184c-22.667 2 -43 5.66699 -61 11z" />
    <glyph glyph-name="Scaron" unicode="&#x160;" horiz-adv-x="597" 
d="M270 -10c-28.667 0 -54.5 1.82812 -77.5 5.49512s-43.667 8.5 -62 14.5s-34.833 12.667 -49.5 20s-27.667 14.666 -39 21.999l21 130c10 -7.33301 22.333 -14.666 37 -21.999s31 -14 49 -20s37 -10.833 57 -14.5s40 -5.5 60 -5.5c20.667 0 39.667 1.16699 57 3.5
s32.333 6.33301 45 12s22.5 13.334 29.5 23.001s10.5 21.834 10.5 36.501c0 16.667 -3.83301 30.334 -11.5 41.001s-18.167 19.667 -31.5 27s-29 13.5 -47 18.5s-37.667 9.83301 -59 14.5c-26 6 -52.167 13.333 -78.5 22s-50.166 20.834 -71.499 36.501s-38.833 36 -52.5 61
s-20.5 56.833 -20.5 95.5c0 35.333 7.16699 66.5 21.5 93.5s34.166 49.5 59.499 67.5s55.833 31.5 91.5 40.5s75.167 13.5 118.5 13.5c50.667 0 91.667 -5 123 -15s54.666 -19.667 69.999 -29l-21 -129c-23.333 13.333 -49 23.833 -77 31.5s-59.333 11.5 -94 11.5
c-45.333 0 -79.833 -6 -103.5 -18s-35.5 -30.333 -35.5 -55c0 -14 3.83301 -25.667 11.5 -35s17.834 -17.166 30.501 -23.499s27.5 -11.666 44.5 -15.999s34.5 -8.5 52.5 -12.5c28 -6.66699 56.167 -14.334 84.5 -23.001s53.833 -21 76.5 -37s41 -36.833 55 -62.5
s21 -58.5 21 -98.5c0 -44.667 -8.33301 -81.5 -25 -110.5s-38.834 -52 -66.501 -69s-59.167 -28.833 -94.5 -35.5s-71.666 -10 -108.999 -10zM217 777.995l-108 148h118l68 -71l70 71h118l-109 -148h-157z" />
    <glyph glyph-name="scaron" unicode="&#x161;" horiz-adv-x="474" 
d="M236 -7c-52 0 -94.6709 5 -128.004 15s-57.333 20.667 -72 32l27 112c16 -12 38.667 -22.667 68 -32s63 -14 101 -14c49.333 0 74 15.667 74 47c0 10.667 -3 19 -9 25s-14.167 10.5 -24.5 13.5s-22.166 5.16699 -35.499 6.5s-27.333 3 -42 5
c-19.333 2.66699 -38.333 7.16699 -57 13.5s-35.5 15.333 -50.5 27s-27.167 26.834 -36.5 45.501s-14 42 -14 70c0 52.667 18 93.667 54 123s88 44 156 44c42 0 78.167 -3.66699 108.5 -11s51.833 -14.666 64.5 -21.999l-31 -105c-12.667 7.33301 -30.667 13.5 -54 18.5
s-50 7.5 -80 7.5c-32 0 -53.833 -3.33301 -65.5 -10s-17.5 -16.667 -17.5 -30c0 -10 3.16699 -17.5 9.5 -22.5s14.833 -9 25.5 -12s22.834 -5.16699 36.501 -6.5s28.167 -3 43.5 -5c18 -2.66699 36.333 -6.83398 55 -12.501s35.834 -14.334 51.501 -26.001
s28.334 -27.167 38.001 -46.5s14.5 -44 14.5 -74c0 -32.667 -6 -60.167 -18 -82.5s-27.833 -40.5 -47.5 -54.5s-42.167 -24 -67.5 -30s-51 -9 -77 -9zM62.9961 736h118l60 -67l58 67h119l-99 -148h-157z" />
    <glyph glyph-name="Tcommaaccent" unicode="&#x162;" horiz-adv-x="605" 
d="M382 586v-586h-159v586h-202v130h564v-130h-203zM231 -237c11.333 9.33301 21.667 18.999 31 28.999s17.333 20.667 24 32c-14.667 3.33301 -26.667 10.5 -36 21.5s-14 24.5 -14 40.5c0 18 6.33301 33.333 19 46s29.667 19 51 19s39.5 -6.16699 54.5 -18.5
s22.5 -30.166 22.5 -53.499c0 -24 -6.5 -45.667 -19.5 -65s-27.5 -36.333 -43.5 -51h-89z" />
    <glyph glyph-name="tcommaaccent" unicode="&#x163;" horiz-adv-x="406" 
d="M382 16c-14.667 -7.33301 -33.166 -13.5 -55.499 -18.5s-46.5 -7.5 -72.5 -7.5c-62.667 0 -107.667 14.667 -135 44s-41 70 -41 122v242h-62v121h62v109h155v-109h146v-121h-146v-226c0 -20 4.16699 -35.167 12.5 -45.5s22.166 -15.5 41.499 -15.5c14 0 27 2 39 6
s22 8.33301 30 13l26 -114v0zM137.001 -237c11.333 9.33301 21.667 18.999 31 28.999s17.333 20.667 24 32c-14.667 3.33301 -26.667 10.5 -36 21.5s-14 24.5 -14 40.5c0 18 6.33301 33.333 19 46s29.667 19 51 19s39.5 -6.16699 54.5 -18.5s22.5 -30.166 22.5 -53.499
c0 -24 -6.5 -45.667 -19.5 -65s-27.5 -36.333 -43.5 -51h-89z" />
    <glyph glyph-name="Tcaron" unicode="&#x164;" horiz-adv-x="605" 
d="M382 586v-586h-159v586h-202v130h564v-130h-203zM231 778l-108 148h118l68 -71l70 71h118l-109 -148h-157z" />
    <glyph glyph-name="tcaron" unicode="&#x165;" horiz-adv-x="406" 
d="M382 16c-14.667 -7.33301 -33.166 -13.5 -55.499 -18.5s-46.5 -7.5 -72.5 -7.5c-62.667 0 -107.667 14.667 -135 44s-41 70 -41 122v242h-62v121h62v109h155v-109h146v-121h-146v-226c0 -20 4.16699 -35.167 12.5 -45.5s22.166 -15.5 41.499 -15.5c14 0 27 2 39 6
s22 8.33301 30 13l26 -114v0zM271.001 565l19 161h137l-58 -161h-98z" />
    <glyph glyph-name="Tbar" unicode="&#x166;" horiz-adv-x="605" 
d="M81 441h142v145h-202v130h564v-130h-203v-145h142v-115h-142v-326h-159v326h-142v115z" />
    <glyph glyph-name="tbar" unicode="&#x167;" horiz-adv-x="406" 
d="M382 16c-14.667 -7.33301 -33.166 -13.5 -55.499 -18.5s-46.5 -7.5 -72.5 -7.5c-62.667 0 -107.667 14.667 -135 44s-41 70 -41 122v63h-62v105h62v74h-62v121h62v109h155v-109h146v-121h-146v-74h146v-105h-146v-47c0 -20 4.16699 -35.167 12.5 -45.5
s22.166 -15.5 41.499 -15.5c14 0 27 2 39 6s22 8.33301 30 13z" />
    <glyph glyph-name="Utilde" unicode="&#x168;" horiz-adv-x="686" 
d="M54 716l159.999 -0.000976562v-449c0 -50 13 -86.5 39 -109.5s60.667 -34.5 104 -34.5c44 0 77.667 11.5 101 34.5s35 59.5 35 109.5v449h139v-460c0 -85.333 -24.833 -151 -74.5 -197s-118.5 -69 -206.5 -69c-42.667 0 -82.167 5.5 -118.5 16.5
s-67.666 27.5 -93.999 49.5s-47 49.333 -62 82s-22.5 70.334 -22.5 113.001v465zM166.999 765.999c-2.66699 23.333 -1.83301 45.001 2.5 65.001s11.5 37.333 21.5 52s23 26.167 39 34.5s34 12.5 54 12.5c16.667 0 31.334 -2.16699 44.001 -6.5s24.334 -9 35.001 -14
l29.5 -14c9 -4.33301 18.5 -6.5 28.5 -6.5c13.333 0 23.333 3.66699 30 11s10.667 19.666 12 36.999h86c2.66699 -23.333 2 -45 -2 -65s-11.167 -37.333 -21.5 -52s-23.333 -26.167 -39 -34.5s-33.5 -12.5 -53.5 -12.5c-16.667 0 -31.334 2.16699 -44.001 6.5
s-24.334 9 -35.001 14l-30 14c-9.33301 4.33301 -19 6.5 -29 6.5c-12.667 0 -22.5 -3.5 -29.5 -10.5s-10.833 -19.5 -11.5 -37.5h-87v0z" />
    <glyph glyph-name="utilde" unicode="&#x169;" horiz-adv-x="594" 
d="M383 73c-13.333 -23.333 -32.833 -43 -58.5 -59s-59.5 -24 -101.5 -24c-50 0 -91.167 14.5 -123.5 43.5s-48.5 72.833 -48.5 131.5v354h157v-346c0 -24 7 -40.333 21 -49s30.333 -13 49 -13c24 0 44.667 4.5 62 13.5s31.333 20.5 42 34.5v360h155v-519h-145l-6 73h-3v0z
M122 582c-1.33301 18.667 0.331055 37 4.99805 55s12 34 22 48s22.667 25.167 38 33.5s33.333 12.5 54 12.5c15.333 0 28.666 -2.16699 39.999 -6.5s21.833 -9.16602 31.5 -14.499s18.834 -10.166 27.501 -14.499s18.334 -6.5 29.001 -6.5c10 0 18.167 3.33301 24.5 10
s9.83301 19.667 10.5 39h75c0.666992 -18.667 -1.16602 -37 -5.49902 -55s-11.5 -34 -21.5 -48s-22.833 -25.167 -38.5 -33.5s-33.834 -12.5 -54.501 -12.5c-15.333 0 -28.5 2.16699 -39.5 6.5s-21.333 9.16602 -31 14.499s-19 10.166 -28 14.499s-18.833 6.5 -29.5 6.5
c-9.33301 0 -17.166 -3.16699 -23.499 -9.5s-9.83301 -19.5 -10.5 -39.5h-75v0z" />
    <glyph glyph-name="Umacron" unicode="&#x16a;" horiz-adv-x="686" 
d="M54 716l159.999 -0.000976562v-449c0 -50 13 -86.5 39 -109.5s60.667 -34.5 104 -34.5c44 0 77.667 11.5 101 34.5s35 59.5 35 109.5v449h139v-460c0 -85.333 -24.833 -151 -74.5 -197s-118.5 -69 -206.5 -69c-42.667 0 -82.167 5.5 -118.5 16.5
s-67.666 27.5 -93.999 49.5s-47 49.333 -62 82s-22.5 70.334 -22.5 113.001v465zM194.999 901.999h326v-110h-326v110z" />
    <glyph glyph-name="umacron" unicode="&#x16b;" horiz-adv-x="594" 
d="M383 73c-13.333 -23.333 -32.833 -43 -58.5 -59s-59.5 -24 -101.5 -24c-50 0 -91.167 14.5 -123.5 43.5s-48.5 72.833 -48.5 131.5v354h157v-346c0 -24 7 -40.333 21 -49s30.333 -13 49 -13c24 0 44.667 4.5 62 13.5s31.333 20.5 42 34.5v360h155v-519h-145l-6 73h-3v0z
M135 697h317v-105h-317v105z" />
    <glyph glyph-name="Ubreve" unicode="&#x16c;" horiz-adv-x="686" 
d="M54 716l159.999 -0.000976562v-449c0 -50 13 -86.5 39 -109.5s60.667 -34.5 104 -34.5c44 0 77.667 11.5 101 34.5s35 59.5 35 109.5v449h139v-460c0 -85.333 -24.833 -151 -74.5 -197s-118.5 -69 -206.5 -69c-42.667 0 -82.167 5.5 -118.5 16.5
s-67.666 27.5 -93.999 49.5s-47 49.333 -62 82s-22.5 70.334 -22.5 113.001v465zM357.999 764.999c-30 0 -56.168 4.5 -78.501 13.5s-40.666 21 -54.999 36s-25.166 32.333 -32.499 52s-11 40.5 -11 62.5h113c0 -17.333 5.5 -31.333 16.5 -42s26.833 -16 47.5 -16
c21.333 0 37.166 5.33301 47.499 16s15.5 24.667 15.5 42h114c0 -22 -3.66699 -42.833 -11 -62.5s-18.333 -37 -33 -52s-33 -27 -55 -36s-48 -13.5 -78 -13.5z" />
    <glyph glyph-name="ubreve" unicode="&#x16d;" horiz-adv-x="594" 
d="M383 73c-13.333 -23.333 -32.833 -43 -58.5 -59s-59.5 -24 -101.5 -24c-50 0 -91.167 14.5 -123.5 43.5s-48.5 72.833 -48.5 131.5v354h157v-346c0 -24 7 -40.333 21 -49s30.333 -13 49 -13c24 0 44.667 4.5 62 13.5s31.333 20.5 42 34.5v360h155v-519h-145l-6 73h-3v0z
M294 580c-27.333 0 -51.1699 4.33301 -71.5029 13s-37.166 20.167 -50.499 34.5s-23.333 31 -30 50s-10 38.5 -10 58.5h106c0 -16.667 5.16699 -29.834 15.5 -39.501s23.833 -14.5 40.5 -14.5s30 4.83301 40 14.5s15 22.834 15 39.501h107c0 -20 -3.33301 -39.5 -10 -58.5
s-16.667 -35.667 -30 -50s-30.166 -25.833 -50.499 -34.5s-44.166 -13 -71.499 -13z" />
    <glyph glyph-name="Uring" unicode="&#x16e;" horiz-adv-x="686" 
d="M54 716l159.999 -0.000976562v-449c0 -50 13 -86.5 39 -109.5s60.667 -34.5 104 -34.5c44 0 77.667 11.5 101 34.5s35 59.5 35 109.5v449h139v-460c0 -85.333 -24.833 -151 -74.5 -197s-118.5 -69 -206.5 -69c-42.667 0 -82.167 5.5 -118.5 16.5
s-67.666 27.5 -93.999 49.5s-47 49.333 -62 82s-22.5 70.334 -22.5 113.001v465zM357.999 737.999c-18 0 -34.833 3.16699 -50.5 9.5s-29.5 15 -41.5 26s-21.333 24.333 -28 40s-10 33.167 -10 52.5c0 18.667 3.33301 36 10 52s16 29.5 28 40.5s25.833 19.667 41.5 26
s32.5 9.5 50.5 9.5c18.667 0 36.167 -3.16699 52.5 -9.5s30.666 -15 42.999 -26s22 -24.5 29 -40.5s10.5 -33.333 10.5 -52c0 -19.333 -3.5 -36.833 -10.5 -52.5s-16.667 -29 -29 -40s-26.666 -19.667 -42.999 -26s-33.833 -9.5 -52.5 -9.5zM357.999 815.999
c14.667 0 26.667 4.66699 36 14s14 21.333 14 36c0 14 -4.66699 25.833 -14 35.5s-21.333 14.5 -36 14.5c-13.333 0 -24.333 -4.83301 -33 -14.5s-13 -21.5 -13 -35.5c0 -14.667 4.33301 -26.667 13 -36s19.667 -14 33 -14z" />
    <glyph glyph-name="uring" unicode="&#x16f;" horiz-adv-x="594" 
d="M383 73c-13.333 -23.333 -32.833 -43 -58.5 -59s-59.5 -24 -101.5 -24c-50 0 -91.167 14.5 -123.5 43.5s-48.5 72.833 -48.5 131.5v354h157v-346c0 -24 7 -40.333 21 -49s30.333 -13 49 -13c24 0 44.667 4.5 62 13.5s31.333 20.5 42 34.5v360h155v-519h-145l-6 73h-3v0z
M292 572c-18 0 -34.833 3.16699 -50.5 9.5s-29.5 15.166 -41.5 26.499s-21.333 24.833 -28 40.5s-10 32.834 -10 51.501s3.33301 36 10 52s16 29.667 28 41s25.833 20.166 41.5 26.499s32.5 9.5 50.5 9.5c18.667 0 36.167 -3.16699 52.5 -9.5s30.666 -15.166 42.999 -26.499
s22 -25 29 -41s10.5 -33.333 10.5 -52s-3.5 -35.834 -10.5 -51.501s-16.667 -29.167 -29 -40.5s-26.666 -20.166 -42.999 -26.499s-33.833 -9.5 -52.5 -9.5zM292 650c14.667 0 26.667 4.66699 36 14s14 21.333 14 36s-4.66699 26.667 -14 36s-21.333 14 -36 14
c-13.333 0 -24.333 -4.66699 -33 -14s-13 -21.333 -13 -36s4.33301 -26.667 13 -36s19.667 -14 33 -14z" />
    <glyph glyph-name="Uhungarumlaut" unicode="&#x170;" horiz-adv-x="686" 
d="M54 716l159.999 -0.000976562v-449c0 -50 13 -86.5 39 -109.5s60.667 -34.5 104 -34.5c44 0 77.667 11.5 101 34.5s35 59.5 35 109.5v449h139v-460c0 -85.333 -24.833 -151 -74.5 -197s-118.5 -69 -206.5 -69c-42.667 0 -82.167 5.5 -118.5 16.5
s-67.666 27.5 -93.999 49.5s-47 49.333 -62 82s-22.5 70.334 -22.5 113.001v465zM392.999 777.999l39 136h154l-89 -136h-104zM199.999 777.999l39 136h154l-89 -136h-104z" />
    <glyph glyph-name="uhungarumlaut" unicode="&#x171;" horiz-adv-x="594" 
d="M383 73c-13.333 -23.333 -32.833 -43 -58.5 -59s-59.5 -24 -101.5 -24c-50 0 -91.167 14.5 -123.5 43.5s-48.5 72.833 -48.5 131.5v354h157v-346c0 -24 7 -40.333 21 -49s30.333 -13 49 -13c24 0 44.667 4.5 62 13.5s31.333 20.5 42 34.5v360h155v-519h-145l-6 73h-3v0z
M333 588l60 158h137l-88 -158h-109zM145 588l60 158h137l-88 -158h-109z" />
    <glyph glyph-name="Uogonek" unicode="&#x172;" horiz-adv-x="686" 
d="M393 -74c0 -18.667 10.666 -28 31.999 -28c6 0 11.667 0.666992 17 2s10 2.66602 14 3.99902v-76c-5.33301 -2.66699 -14.166 -5.5 -26.499 -8.5s-28.166 -4.5 -47.499 -4.5c-42.667 0 -73.5 8 -92.5 24s-28.5 35.667 -28.5 59s7.16699 42.333 21.5 57
s30.5 26.334 48.5 35.001h-3c-39.333 2 -75.833 9.16699 -109.5 21.5s-62.667 29.5 -87 51.5s-43.333 48.667 -57 80s-20.5 67.333 -20.5 108v465h160v-449c0 -50 13 -86.5 39 -109.5s60.667 -34.5 104 -34.5c44 0 77.667 11.5 101 34.5s35 59.5 35 109.5v449h139v-460
c0 -69.333 -16.333 -125.666 -49 -168.999s-79.334 -72.333 -140.001 -87c-11.333 -7.33301 -22.5 -17.833 -33.5 -31.5s-16.5 -27.834 -16.5 -42.501z" />
    <glyph glyph-name="uogonek" unicode="&#x173;" horiz-adv-x="594" 
d="M478 -74c0 -18.667 10.668 -28 32.001 -28c6.66699 0 12.667 0.666992 18 2s9.66602 2.66602 12.999 3.99902v-76c-4.66699 -2.66699 -13.167 -5.5 -25.5 -8.5s-28.166 -4.5 -47.499 -4.5c-43.333 0 -74.5 8 -93.5 24s-28.5 35.667 -28.5 59
c0 18.667 4.66699 34.334 14 47.001s20.666 23.334 33.999 32.001l-8 96h-3c-13.333 -23.333 -32.833 -43 -58.5 -59s-59.5 -24 -101.5 -24c-50 0 -91.167 14.5 -123.5 43.5s-48.5 72.833 -48.5 131.5v354h157v-346c0 -24 7 -40.333 21 -49s30.333 -13 49 -13
c24 0 44.667 4.5 62 13.5s31.333 20.5 42 34.5v360h155v-519c-13.333 -9.33301 -26.5 -20.333 -39.5 -33s-19.5 -26.334 -19.5 -41.001z" />
    <glyph glyph-name="Wcircumflex" unicode="&#x174;" horiz-adv-x="960" 
d="M19 716h160l94 -531l133 531h163l132 -524l102 524h138l-139 -716h-194l-127 515l-127 -515h-196zM481 849l-70 -71h-118l109 148h157l108 -148h-118z" />
    <glyph glyph-name="wcircumflex" unicode="&#x175;" horiz-adv-x="831" 
d="M16 519h154l77 -355l101 355h148l99 -356l78 356h141l-120 -519h-190l-90 334l-88 -334h-188zM421 655l-60 -67h-118l99 148h157l99 -148h-119z" />
    <glyph glyph-name="Ycircumflex" unicode="&#x176;" horiz-adv-x="625" 
d="M233 0v300l-229 416h175l143 -276l150 276h149l-228 -417v-299h-160zM322 849l-70 -71h-118l109 148h157l108 -148h-118z" />
    <glyph glyph-name="ycircumflex" unicode="&#x177;" horiz-adv-x="559" 
d="M155 -187c-19.333 0 -39.8359 1.83301 -61.5029 5.5s-38.167 8.16699 -49.5 13.5l18 119c12 -4.66699 24.333 -8.33398 37 -11.001s27.334 -4 44.001 -4c16 0 30.167 3.33301 42.5 10s22.166 15.667 29.499 27l-205 546h163l119 -354l114 354h142l-178 -513
c-11.333 -31.333 -23.166 -59 -35.499 -83s-26.666 -44.167 -42.999 -60.5s-35.666 -28.666 -57.999 -36.999s-48.5 -12.5 -78.5 -12.5zM286.997 655l-60 -67h-118l99 148h157l99 -148h-119z" />
    <glyph glyph-name="Ydieresis" unicode="&#x178;" horiz-adv-x="625" 
d="M233 0v300l-229 416h175l143 -276l150 276h149l-228 -417v-299h-160zM439 772c-12 0 -23.333 2.33301 -34 7s-20 10.834 -28 18.501s-14.333 16.5 -19 26.5s-7 20.667 -7 32c0 24 8.66699 44.167 26 60.5s38 24.5 62 24.5c12 0 23.333 -2.16699 34 -6.5
s20 -10.333 28 -18s14.5 -16.667 19.5 -27s7.5 -21.5 7.5 -33.5c0 -11.333 -2.5 -22 -7.5 -32s-11.5 -18.833 -19.5 -26.5s-17.333 -13.834 -28 -18.501s-22 -7 -34 -7zM203 772c-12 0 -23.333 2.33301 -34 7s-20 10.834 -28 18.501s-14.333 16.5 -19 26.5s-7 20.667 -7 32
c0 24 8.66699 44.167 26 60.5s38 24.5 62 24.5c12 0 23.333 -2.16699 34 -6.5s20 -10.333 28 -18s14.5 -16.667 19.5 -27s7.5 -21.5 7.5 -33.5c0 -11.333 -2.5 -22 -7.5 -32s-11.5 -18.833 -19.5 -26.5s-17.333 -13.834 -28 -18.501s-22 -7 -34 -7z" />
    <glyph glyph-name="Zacute" unicode="&#x179;" horiz-adv-x="603" 
d="M34 0v118l346 468h-335v130h523v-119l-347 -467h348v-130h-535zM312 914h188l-137 -136h-125z" />
    <glyph glyph-name="zacute" unicode="&#x17a;" horiz-adv-x="497" 
d="M32 0v107l244 296h-236v116h427v-97l-247 -306h247v-116h-435zM264 746h157l-126 -158h-110z" />
    <glyph glyph-name="Zdotaccent" unicode="&#x17b;" horiz-adv-x="603" 
d="M34 0v118l346 468h-335v130h523v-119l-347 -467h348v-130h-535zM312 772c-13.333 0 -25.499 2.33203 -36.499 6.99902s-20.833 11.167 -29.5 19.5s-15.334 18 -20.001 29s-7 22.5 -7 34.5c0 12.667 2.33301 24.5 7 35.5s11.334 20.5 20.001 28.5s18.5 14.333 29.5 19
s23.167 7 36.5 7c25.333 0 47.166 -8.66699 65.499 -26s27.5 -38.666 27.5 -63.999c0 -12 -2.5 -23.5 -7.5 -34.5s-11.833 -20.667 -20.5 -29s-18.5 -14.833 -29.5 -19.5s-22.833 -7 -35.5 -7z" />
    <glyph glyph-name="zdotaccent" unicode="&#x17c;" horiz-adv-x="497" 
d="M32 0v107l244 296h-236v116h427v-97l-247 -306h247v-116h-435zM253 569c-13.333 0 -25.498 2.33301 -36.498 7s-20.833 11.167 -29.5 19.5s-15.334 18 -20.001 29s-7 22.5 -7 34.5c0 25.333 9 46.5 27 63.5s40 25.5 66 25.5c25.333 0 47.166 -8.5 65.499 -25.5
s27.5 -38.167 27.5 -63.5c0 -12 -2.5 -23.5 -7.5 -34.5s-11.833 -20.667 -20.5 -29s-18.5 -14.833 -29.5 -19.5s-22.833 -7 -35.5 -7z" />
    <glyph glyph-name="Zcaron" unicode="&#x17d;" horiz-adv-x="603" 
d="M34 0v118l346 468h-335v130h523v-119l-347 -467h348v-130h-535zM230 778l-108 148h118l68 -71l70 71h118l-109 -148h-157z" />
    <glyph glyph-name="zcaron" unicode="&#x17e;" horiz-adv-x="497" 
d="M32 0v107l244 296h-236v116h427v-97l-247 -306h247v-116h-435zM74 736h118l60 -67l58 67h119l-99 -148h-157z" />
    <glyph glyph-name="uni0192" unicode="&#x192;" 
d="M83 -187c-22 0 -40.665 1.66602 -55.998 4.99902c-8 1.33301 -15.333 3 -22 5l27 120c4.66699 -1.33301 9.66699 -2.33301 15 -3c4.66699 -0.666992 10 -1.16699 16 -1.5s12.667 -0.5 20 -0.5c26 0 44.833 6.83301 56.5 20.5s19.167 32.834 22.5 57.501l55 325h-68
l22 116h66l11 66c6 36 15.5 66.667 28.5 92s28.833 46.333 47.5 63s39.667 28.834 63 36.501s48.333 11.5 75 11.5c11.333 0 21.666 -0.5 30.999 -1.5s17.666 -2.16699 24.999 -3.5c7.33301 -2 14.333 -3.66699 21 -5l-20 -120
c-4.66699 0.666992 -9.66699 1.33398 -15 2.00098l-14.5 2c-5 0.666992 -10.167 1 -15.5 1c-26 0 -44.833 -6.83301 -56.5 -20.5s-19.5 -32.834 -23.5 -57.501l-11 -66h113l-23 -116h-110l-54 -325c-6 -36 -15.5 -66.667 -28.5 -92s-29.333 -46.333 -49 -63
s-42 -28.834 -67 -36.501s-52.167 -11.5 -81.5 -11.5z" />
    <glyph glyph-name="uni0218" unicode="&#x218;" horiz-adv-x="597" 
d="M270 -10c-28.667 0 -54.5 1.82812 -77.5 5.49512s-43.667 8.5 -62 14.5s-34.833 12.667 -49.5 20s-27.667 14.666 -39 21.999l21 130c10 -7.33301 22.333 -14.666 37 -21.999s31 -14 49 -20s37 -10.833 57 -14.5s40 -5.5 60 -5.5c20.667 0 39.667 1.16699 57 3.5
s32.333 6.33301 45 12s22.5 13.334 29.5 23.001s10.5 21.834 10.5 36.501c0 16.667 -3.83301 30.334 -11.5 41.001s-18.167 19.667 -31.5 27s-29 13.5 -47 18.5s-37.667 9.83301 -59 14.5c-26 6 -52.167 13.333 -78.5 22s-50.166 20.834 -71.499 36.501s-38.833 36 -52.5 61
s-20.5 56.833 -20.5 95.5c0 35.333 7.16699 66.5 21.5 93.5s34.166 49.5 59.499 67.5s55.833 31.5 91.5 40.5s75.167 13.5 118.5 13.5c50.667 0 91.667 -5 123 -15s54.666 -19.667 69.999 -29l-21 -129c-23.333 13.333 -49 23.833 -77 31.5s-59.333 11.5 -94 11.5
c-45.333 0 -79.833 -6 -103.5 -18s-35.5 -30.333 -35.5 -55c0 -14 3.83301 -25.667 11.5 -35s17.834 -17.166 30.501 -23.499s27.5 -11.666 44.5 -15.999s34.5 -8.5 52.5 -12.5c28 -6.66699 56.167 -14.334 84.5 -23.001s53.833 -21 76.5 -37s41 -36.833 55 -62.5
s21 -58.5 21 -98.5c0 -44.667 -8.33301 -81.5 -25 -110.5s-38.834 -52 -66.501 -69s-59.167 -28.833 -94.5 -35.5s-71.666 -10 -108.999 -10zM205 -237.005c11.333 9.33301 21.667 18.999 31 28.999s17.333 20.667 24 32c-14.667 3.33301 -26.667 10.5 -36 21.5
s-14 24.5 -14 40.5c0 18 6.33301 33.333 19 46s29.667 19 51 19s39.5 -6.16699 54.5 -18.5s22.5 -30.166 22.5 -53.499c0 -24 -6.5 -45.667 -19.5 -65s-27.5 -36.333 -43.5 -51h-89z" />
    <glyph glyph-name="uni0219" unicode="&#x219;" horiz-adv-x="474" 
d="M236 -7c-52 0 -94.6709 5 -128.004 15s-57.333 20.667 -72 32l27 112c16 -12 38.667 -22.667 68 -32s63 -14 101 -14c49.333 0 74 15.667 74 47c0 10.667 -3 19 -9 25s-14.167 10.5 -24.5 13.5s-22.166 5.16699 -35.499 6.5s-27.333 3 -42 5
c-19.333 2.66699 -38.333 7.16699 -57 13.5s-35.5 15.333 -50.5 27s-27.167 26.834 -36.5 45.501s-14 42 -14 70c0 52.667 18 93.667 54 123s88 44 156 44c42 0 78.167 -3.66699 108.5 -11s51.833 -14.666 64.5 -21.999l-31 -105c-12.667 7.33301 -30.667 13.5 -54 18.5
s-50 7.5 -80 7.5c-32 0 -53.833 -3.33301 -65.5 -10s-17.5 -16.667 -17.5 -30c0 -10 3.16699 -17.5 9.5 -22.5s14.833 -9 25.5 -12s22.834 -5.16699 36.501 -6.5s28.167 -3 43.5 -5c18 -2.66699 36.333 -6.83398 55 -12.501s35.834 -14.334 51.501 -26.001
s28.334 -27.167 38.001 -46.5s14.5 -44 14.5 -74c0 -32.667 -6 -60.167 -18 -82.5s-27.833 -40.5 -47.5 -54.5s-42.167 -24 -67.5 -30s-51 -9 -77 -9zM146.996 -237c11.333 9.33301 21.667 18.999 31 28.999s17.333 20.667 24 32c-14.667 3.33301 -26.667 10.5 -36 21.5
s-14 24.5 -14 40.5c0 18 6.33301 33.333 19 46s29.667 19 51 19s39.5 -6.16699 54.5 -18.5s22.5 -30.166 22.5 -53.499c0 -24 -6.5 -45.667 -19.5 -65s-27.5 -36.333 -43.5 -51h-89z" />
    <glyph glyph-name="uni021A" unicode="&#x21a;" horiz-adv-x="605" 
d="M382 586v-586h-159v586h-202v130h564v-130h-203zM231 -237c11.333 9.33301 21.667 18.999 31 28.999s17.333 20.667 24 32c-14.667 3.33301 -26.667 10.5 -36 21.5s-14 24.5 -14 40.5c0 18 6.33301 33.333 19 46s29.667 19 51 19s39.5 -6.16699 54.5 -18.5
s22.5 -30.166 22.5 -53.499c0 -24 -6.5 -45.667 -19.5 -65s-27.5 -36.333 -43.5 -51h-89z" />
    <glyph glyph-name="uni021B" unicode="&#x21b;" horiz-adv-x="406" 
d="M382 16c-14.667 -7.33301 -33.166 -13.5 -55.499 -18.5s-46.5 -7.5 -72.5 -7.5c-62.667 0 -107.667 14.667 -135 44s-41 70 -41 122v242h-62v121h62v109h155v-109h146v-121h-146v-226c0 -20 4.16699 -35.167 12.5 -45.5s22.166 -15.5 41.499 -15.5c14 0 27 2 39 6
s22 8.33301 30 13l26 -114v0zM137.001 -237c11.333 9.33301 21.667 18.999 31 28.999s17.333 20.667 24 32c-14.667 3.33301 -26.667 10.5 -36 21.5s-14 24.5 -14 40.5c0 18 6.33301 33.333 19 46s29.667 19 51 19s39.5 -6.16699 54.5 -18.5s22.5 -30.166 22.5 -53.499
c0 -24 -6.5 -45.667 -19.5 -65s-27.5 -36.333 -43.5 -51h-89z" />
    <glyph glyph-name="uni0237" unicode="&#x237;" horiz-adv-x="273" 
d="M-30 -66c34 0 58 10.668 72 32.001s21 49 21 83v470h155v-490c0 -34.667 -5.5 -65.334 -16.5 -92.001s-26.333 -49.167 -46 -67.5s-43.5 -32.333 -71.5 -42s-59 -14.5 -93 -14.5z" />
    <glyph glyph-name="uni02BC" unicode="&#x2bc;" horiz-adv-x="255" 
d="M27 439c16.667 16 31.6699 33.166 45.0029 51.499s22.666 40.166 27.999 65.499c-23.333 6 -39.833 16.5 -49.5 31.5s-14.5 31.167 -14.5 48.5c0 24.667 8.16699 45.334 24.5 62.001s39.166 25 68.499 25s52.666 -9 69.999 -27s26 -43.667 26 -77
c0 -18.667 -2.83301 -36.5 -8.5 -53.5s-13 -33.167 -22 -48.5s-19.167 -29.666 -30.5 -42.999s-23 -25 -35 -35h-102z" />
    <glyph glyph-name="circumflex" unicode="&#x2c6;" horiz-adv-x="437" 
d="M219 655l-60 -67h-118l99 148h157l99 -148h-119z" />
    <glyph glyph-name="caron" unicode="&#x2c7;" horiz-adv-x="437" 
d="M41 736h118l60 -67l58 67h119l-99 -148h-157z" />
    <glyph glyph-name="breve" unicode="&#x2d8;" horiz-adv-x="437" 
d="M218 580c-27.333 0 -51.1699 4.33301 -71.5029 13s-37.166 20.167 -50.499 34.5s-23.333 31 -30 50s-10 38.5 -10 58.5h106c0 -16.667 5.16699 -29.834 15.5 -39.501s23.833 -14.5 40.5 -14.5s30 4.83301 40 14.5s15 22.834 15 39.501h107
c0 -20 -3.33301 -39.5 -10 -58.5s-16.667 -35.667 -30 -50s-30.166 -25.833 -50.499 -34.5s-44.166 -13 -71.499 -13z" />
    <glyph glyph-name="dotaccent" unicode="&#x2d9;" horiz-adv-x="437" 
d="M218 569c-13.333 0 -25.498 2.33301 -36.498 7s-20.833 11.167 -29.5 19.5s-15.334 18 -20.001 29s-7 22.5 -7 34.5c0 25.333 9 46.5 27 63.5s40 25.5 66 25.5c25.333 0 47.166 -8.5 65.499 -25.5s27.5 -38.167 27.5 -63.5c0 -12 -2.5 -23.5 -7.5 -34.5
s-11.833 -20.667 -20.5 -29s-18.5 -14.833 -29.5 -19.5s-22.833 -7 -35.5 -7z" />
    <glyph glyph-name="ring" unicode="&#x2da;" horiz-adv-x="437" 
d="M216 572c-18 0 -34.833 3.16699 -50.5 9.5s-29.5 15.166 -41.5 26.499s-21.333 24.833 -28 40.5s-10 32.834 -10 51.501s3.33301 36 10 52s16 29.667 28 41s25.833 20.166 41.5 26.499s32.5 9.5 50.5 9.5c18.667 0 36.167 -3.16699 52.5 -9.5
s30.666 -15.166 42.999 -26.499s22 -25 29 -41s10.5 -33.333 10.5 -52s-3.5 -35.834 -10.5 -51.501s-16.667 -29.167 -29 -40.5s-26.666 -20.166 -42.999 -26.499s-33.833 -9.5 -52.5 -9.5zM216 650c14.667 0 26.667 4.66699 36 14s14 21.333 14 36s-4.66699 26.667 -14 36
s-21.333 14 -36 14c-13.333 0 -24.333 -4.66699 -33 -14s-13 -21.333 -13 -36s4.33301 -26.667 13 -36s19.667 -14 33 -14z" />
    <glyph glyph-name="ogonek" unicode="&#x2db;" horiz-adv-x="437" 
d="M243 -185c-44 0 -77.001 8.00098 -99.001 24.001s-33 35.667 -33 59c0 14.667 3 27.5 9 38.5s13.5 20.5 22.5 28.5s19 14.833 30 20.5s21.5 10.5 31.5 14.5h90c-12 -7.33301 -23.5 -17.833 -34.5 -31.5s-16.5 -27.834 -16.5 -42.501c0 -17.333 10 -26 30 -26
c6.66699 0 11.834 0.5 15.501 1.5s7.16699 2.16699 10.5 3.5l15 -77c-6 -2.66699 -15.333 -5.5 -28 -8.5s-27 -4.5 -43 -4.5z" />
    <glyph glyph-name="tilde" unicode="&#x2dc;" horiz-adv-x="437" 
d="M40 582c-1.33301 18.667 0.331055 37 4.99805 55s12 34 22 48s22.667 25.167 38 33.5s33.333 12.5 54 12.5c15.333 0 28.666 -2.16699 39.999 -6.5s21.833 -9.16602 31.5 -14.499s18.834 -10.166 27.501 -14.499s18.334 -6.5 29.001 -6.5c10 0 18.167 3.33301 24.5 10
s9.83301 19.667 10.5 39h75c0.666992 -18.667 -1.16602 -37 -5.49902 -55s-11.5 -34 -21.5 -48s-22.833 -25.167 -38.5 -33.5s-33.834 -12.5 -54.501 -12.5c-15.333 0 -28.5 2.16699 -39.5 6.5s-21.333 9.16602 -31 14.499s-19 10.166 -28 14.499s-18.833 6.5 -29.5 6.5
c-9.33301 0 -17.166 -3.16699 -23.499 -9.5s-9.83301 -19.5 -10.5 -39.5h-75v0z" />
    <glyph glyph-name="hungarumlaut" unicode="&#x2dd;" horiz-adv-x="437" 
d="M230 588l60 158h137l-88 -158h-109zM42 588l60 158h137l-88 -158h-109z" />
    <glyph glyph-name="acutecomb" unicode="&#x301;" horiz-adv-x="1" 
d="M-233 746h157l-126 -158h-110z" />
    <glyph glyph-name="uni0401" unicode="&#x401;" horiz-adv-x="588" 
d="M66 716h468v-130h-308v-151h256v-130h-256v-175h313v-130h-473v716zM425 772c-12 0 -23.333 2.33301 -34 7s-20 10.834 -28 18.501s-14.333 16.5 -19 26.5s-7 20.667 -7 32c0 24 8.66699 44.167 26 60.5s38 24.5 62 24.5c12 0 23.333 -2.16699 34 -6.5s20 -10.333 28 -18
s14.5 -16.667 19.5 -27s7.5 -21.5 7.5 -33.5c0 -11.333 -2.5 -22 -7.5 -32s-11.5 -18.833 -19.5 -26.5s-17.333 -13.834 -28 -18.501s-22 -7 -34 -7zM189 772c-12 0 -23.333 2.33301 -34 7s-20 10.834 -28 18.501s-14.333 16.5 -19 26.5s-7 20.667 -7 32
c0 24 8.66699 44.167 26 60.5s38 24.5 62 24.5c12 0 23.333 -2.16699 34 -6.5s20 -10.333 28 -18s14.5 -16.667 19.5 -27s7.5 -21.5 7.5 -33.5c0 -11.333 -2.5 -22 -7.5 -32s-11.5 -18.833 -19.5 -26.5s-17.333 -13.834 -28 -18.501s-22 -7 -34 -7z" />
    <glyph glyph-name="uni0402" unicode="&#x402;" horiz-adv-x="807" 
d="M382 586l-0.00195312 -173.002c11.333 6 25 12.333 41 19c24 9.33301 52 14 84 14c40.667 0 77.5 -6.16699 110.5 -18.5s61.167 -29.833 84.5 -52.5s41.5 -50.5 54.5 -83.5s19.5 -69.833 19.5 -110.5c0 -51.333 -6.33301 -96.166 -19 -134.499s-31 -70.166 -55 -95.499
s-53.167 -44.5 -87.5 -57.5s-72.833 -19.5 -115.5 -19.5v130c40.667 0 70.334 14.667 89.001 44s28 73.333 28 132c0 42.667 -10.5 76.334 -31.5 101.001s-55.5 37 -103.5 37c-21.333 0 -41.666 -3.33301 -60.999 -10c-13.333 -4.66699 -26 -10.334 -38 -17.001v-291h-159
v586h-202v130h564v-130h-203z" />
    <glyph glyph-name="uni0403" unicode="&#x403;" horiz-adv-x="531" 
d="M284 914h188l-137 -136h-125zM226 586v-586h-160v716h436v-130h-276z" />
    <glyph glyph-name="uni0404" unicode="&#x404;" horiz-adv-x="649" 
d="M612 39c-17.333 -12 -42.335 -23.168 -75.002 -33.501s-73 -15.5 -121 -15.5c-58.667 0 -111.5 8.5 -158.5 25.5s-87 41.333 -120 73s-58.5 70.167 -76.5 115.5s-27 96.666 -27 153.999c0 56.667 9.16699 107.834 27.5 153.501s44 84.334 77 116.001s72.333 56 118 73
s95.834 25.5 150.501 25.5c50 0 91.667 -4.33301 125 -13s58.333 -17.667 75 -27l-22 -127c-20 10 -43.833 18.667 -71.5 26s-59.5 11 -95.5 11c-60.667 0 -109.5 -14.833 -146.5 -44.5s-60.167 -73.5 -69.5 -131.5h295v-130h-294c19.333 -113.333 92.333 -170 219 -170
c30 0 57.333 3.5 82 10.5s47.334 16.833 68.001 29.5l40 -121v0z" />
    <glyph glyph-name="uni0405" unicode="&#x405;" horiz-adv-x="597" 
d="M270 -10c-28.667 0 -54.5 1.82812 -77.5 5.49512s-43.667 8.5 -62 14.5s-34.833 12.667 -49.5 20s-27.667 14.666 -39 21.999l21 130c10 -7.33301 22.333 -14.666 37 -21.999s31 -14 49 -20s37 -10.833 57 -14.5s40 -5.5 60 -5.5c20.667 0 39.667 1.16699 57 3.5
s32.333 6.33301 45 12s22.5 13.334 29.5 23.001s10.5 21.834 10.5 36.501c0 16.667 -3.83301 30.334 -11.5 41.001s-18.167 19.667 -31.5 27s-29 13.5 -47 18.5s-37.667 9.83301 -59 14.5c-26 6 -52.167 13.333 -78.5 22s-50.166 20.834 -71.499 36.501s-38.833 36 -52.5 61
s-20.5 56.833 -20.5 95.5c0 35.333 7.16699 66.5 21.5 93.5s34.166 49.5 59.499 67.5s55.833 31.5 91.5 40.5s75.167 13.5 118.5 13.5c50.667 0 91.667 -5 123 -15s54.666 -19.667 69.999 -29l-21 -129c-23.333 13.333 -49 23.833 -77 31.5s-59.333 11.5 -94 11.5
c-45.333 0 -79.833 -6 -103.5 -18s-35.5 -30.333 -35.5 -55c0 -14 3.83301 -25.667 11.5 -35s17.834 -17.166 30.501 -23.499s27.5 -11.666 44.5 -15.999s34.5 -8.5 52.5 -12.5c28 -6.66699 56.167 -14.334 84.5 -23.001s53.833 -21 76.5 -37s41 -36.833 55 -62.5
s21 -58.5 21 -98.5c0 -44.667 -8.33301 -81.5 -25 -110.5s-38.834 -52 -66.501 -69s-59.167 -28.833 -94.5 -35.5s-71.666 -10 -108.999 -10z" />
    <glyph glyph-name="uni0406" unicode="&#x406;" horiz-adv-x="292" 
d="M226 716v-716h-160v716h160z" />
    <glyph glyph-name="uni0407" unicode="&#x407;" horiz-adv-x="292" 
d="M252 772c-25.333 0 -46.5 8.33301 -63.5 25s-25.5 36.334 -25.5 59.001c0 24 8.5 44.167 25.5 60.5s38.167 24.5 63.5 24.5c11.333 0 22.333 -2.16699 33 -6.5s20 -10.333 28 -18s14.333 -16.667 19 -27s7 -21.5 7 -33.5c0 -11.333 -2.33301 -22 -7 -32
s-11 -18.833 -19 -26.5s-17.333 -13.834 -28 -18.501s-21.667 -7 -33 -7zM39 772c-12 0 -23.166 2.33301 -33.499 7s-19.333 10.834 -27 18.501s-13.834 16.5 -18.501 26.5s-7 20.667 -7 32c0 24 8.5 44.167 25.5 60.5s37.167 24.5 60.5 24.5
c24.667 0 45.834 -8.16699 63.501 -24.5s26.5 -36.5 26.5 -60.5c0 -22.667 -8.83301 -42.334 -26.5 -59.001s-38.834 -25 -63.501 -25zM226.001 716v-716h-160v716h160z" />
    <glyph glyph-name="uni0408" unicode="&#x408;" horiz-adv-x="409" 
d="M351 716l0.000976562 -519c0 -32 -4 -60.667 -12 -86s-20.667 -47 -38 -65s-39.333 -31.833 -66 -41.5s-59 -14.5 -97 -14.5c-22.667 0 -44.834 2 -66.501 6s-40.167 9.66699 -55.5 17l27 125c26 -12 51.667 -18 77 -18c28 0 47.5 8 58.5 24s16.5 39.333 16.5 70v502h156
z" />
    <glyph glyph-name="uni0409" unicode="&#x409;" horiz-adv-x="1029" 
d="M262 193c-6.66699 -37.333 -17.5 -69.168 -32.5 -95.501s-33 -47.5 -54 -63.5s-44.833 -26.833 -71.5 -32.5s-55 -6.16699 -85 -1.5l-17 138c36 -4 63.5 2.5 82.5 19.5s31.833 41.833 38.5 74.5c8.66699 43.333 14.667 105.833 18 187.5s5.66602 180.5 6.99902 296.5h475
v-241h80c96.667 0 171 -19 223 -57s78 -95.333 78 -172c0 -42.667 -7 -79.5 -21 -110.5s-34 -56.5 -60 -76.5s-57.667 -34.833 -95 -44.5s-79 -14.5 -125 -14.5h-240v586h-171c-2 -83.333 -5.16699 -157.166 -9.5 -221.499s-11.166 -121.5 -20.499 -171.5zM623 344.998v-215
h80c46 0 81 8 105 24s36 44.333 36 85c0 70.667 -47 106 -141 106h-80z" />
    <glyph glyph-name="uni040A" unicode="&#x40a;" horiz-adv-x="1071" 
d="M666 323v-193h80c46 0 81 7.16699 105 21.5s36 39.5 36 75.5c0 64 -47 96 -141 96h-80zM506 323l-279.999 0.00195312v-323h-160v716h160v-263h280v263h160v-263h80c97.333 0 171.666 -18.333 222.999 -55s77 -91.334 77 -164.001c0 -40.667 -7 -75.834 -21 -105.501
s-34 -54 -60 -73s-57.5 -33 -94.5 -42s-78.5 -13.5 -124.5 -13.5h-240v323z" />
    <glyph glyph-name="uni040B" unicode="&#x40b;" horiz-adv-x="808" 
d="M382 586v-173c11.333 6.66699 24.666 13 39.999 19c24.667 9.33301 55 14 91 14s69 -4.83301 99 -14.5s55.833 -24.5 77.5 -44.5s38.334 -45.167 50.001 -75.5s17.5 -66.166 17.5 -107.499v-204h-160v190c0 24 -2.83301 44.167 -8.5 60.5s-13.5 29.5 -23.5 39.5
s-21.833 17.167 -35.5 21.5s-28.167 6.5 -43.5 6.5c-24 0 -46 -3.33301 -66 -10c-13.333 -4.66699 -26 -10.334 -38 -17.001v-291h-159v586h-202v130h564v-130h-203z" />
    <glyph glyph-name="uni040C" unicode="&#x40c;" horiz-adv-x="661" 
d="M267 290h-41v-290h-160v716h160v-295h52l201 295h163l-241 -352l252 -364h-184zM313 914h188l-137 -136h-125z" />
    <glyph glyph-name="uni040E" unicode="&#x40e;" horiz-adv-x="646" 
d="M331 749c-33.333 0 -62.334 4.33301 -87.001 13s-45 20.667 -61 36s-28 33.166 -36 53.499s-12 42.5 -12 66.5h138c0 -24.667 5.16699 -42.5 15.5 -53.5s24.5 -16.5 42.5 -16.5c17.333 0 31 5.5 41 16.5s15 28.833 15 53.5h139c0 -24 -4 -46.167 -12 -66.5
s-20.167 -38.166 -36.5 -53.499s-36.666 -27.333 -60.999 -36s-52.833 -13 -85.5 -13zM179.999 -7c-17.333 0 -31.0029 0.999023 -41.0029 2.99902c-6 1.33301 -11.667 2.66602 -17 3.99902l-21 134c4.66699 -1.33301 10 -2.66602 16 -3.99902
c5.33301 -1.33301 11.333 -2.33301 18 -3s14.334 -1 23.001 -1c24 0 44.333 3.33301 61 10s31.334 18.334 44.001 35.001l-261 545h168l168 -375l145 375h158l-218 -519c-15.333 -36 -31.166 -66.833 -47.499 -92.5s-34.333 -46.667 -54 -63s-41.167 -28.5 -64.5 -36.5
s-49 -12 -77 -12z" />
    <glyph glyph-name="uni040F" unicode="&#x40f;" horiz-adv-x="724" 
d="M434 0l-5 -171h-134l-5 171h-224v716h160v-586h272v586h160v-716h-224z" />
    <glyph glyph-name="uni0410" unicode="&#x410;" horiz-adv-x="686" 
d="M332 558l-90 -270h179zM462 164h-261l-55 -164h-136l241 716h184l240 -716h-159z" />
    <glyph glyph-name="uni0411" unicode="&#x411;" horiz-adv-x="639" 
d="M226 315l-0.000976562 -185h101c38.667 0 68.334 6.83301 89.001 20.5s31 38.167 31 73.5c0 60.667 -40 91 -120 91h-101zM65.999 716h487.998v-130h-328v-141h101c89.333 0 158.333 -17.833 207 -53.5s73 -89.167 73 -160.5c0 -40 -6.66699 -74.667 -20 -104
s-32.166 -53.333 -56.499 -72s-53.666 -32.5 -87.999 -41.5s-72.833 -13.5 -115.5 -13.5h-261v716z" />
    <glyph glyph-name="uni0412" unicode="&#x412;" horiz-adv-x="653" 
d="M222 586v-152h93c32 0 58.333 6.33301 79 19s31 32.667 31 60c0 29.333 -9 48.833 -27 58.5s-43.333 14.5 -76 14.5h-100zM222 304v-174.001h108c38 0 68.667 6.5 92 19.5s35 36.5 35 70.5c0 30.667 -11.167 52.334 -33.5 65.001s-56.5 19 -102.5 19h-99zM66 715.999
l226.999 -0.00195312c94.667 0 166.667 -13.167 216 -39.5s74 -71.166 74 -134.499c0 -25.333 -3.83301 -47.5 -11.5 -66.5s-18.667 -35.333 -33 -49s-31.5 -24.834 -51.5 -33.501s-42.333 -15.334 -67 -20.001c65.333 -6.66699 115 -22.667 149 -48s51 -64.666 51 -117.999
c0 -37.333 -8.16699 -69.166 -24.5 -95.499s-38.666 -47.666 -66.999 -63.999s-62 -28.333 -101 -36s-81.167 -11.5 -126.5 -11.5h-235v716z" />
    <glyph glyph-name="uni0413" unicode="&#x413;" horiz-adv-x="531" 
d="M226 586v-586h-160v716h436v-130h-276z" />
    <glyph glyph-name="uni0414" unicode="&#x414;" horiz-adv-x="791" 
d="M509 585h-212c-2.66699 -58.667 -5.66699 -111.834 -9 -159.501s-7.5 -90.5 -12.5 -128.5s-11.167 -71.667 -18.5 -101s-16.333 -54.666 -27 -75.999h279v465zM623 0h-468.998l-9 -171h-134v291h57c15.333 14.667 28.166 36.667 38.499 66s19 68 26 116
s12.667 106 17 174s8.16602 148 11.499 240h508v-596h97v-291h-134z" />
    <glyph glyph-name="uni0415" unicode="&#x415;" horiz-adv-x="588" 
d="M66 716h468v-130h-308v-151h256v-130h-256v-175h313v-130h-473v716z" />
    <glyph glyph-name="uni0416" unicode="&#x416;" horiz-adv-x="981" 
d="M8 -2l242 362l-240 356h161l199 -296h38v296h160v-296h40l203 296h155l-238 -349l245 -367h-178l-196 299h-31v-299h-160v299h-31l-196 -299z" />
    <glyph glyph-name="uni0417" unicode="&#x417;" horiz-adv-x="597" 
d="M269 -11c-29.333 0 -56.168 1.83496 -80.501 5.50195s-46.333 8.16699 -66 13.5s-37.167 11.166 -52.5 17.499s-28.333 12.166 -39 17.499l39 122c23.333 -11.333 52.333 -21.833 87 -31.5s72 -14.5 112 -14.5c38.667 0 70.334 7.16699 95.001 21.5s37 39.5 37 75.5
c0 32.667 -10.333 55.5 -31 68.5s-53 19.5 -97 19.5h-106v130h110c30 0 54.5 6.5 73.5 19.5s28.5 33.833 28.5 62.5c0 31.333 -10.667 52.666 -32 63.999s-49.666 17 -84.999 17c-34 0 -66.667 -4.66699 -98 -14s-57.333 -19.666 -78 -30.999l-42 118
c28 16 60.333 29.5 97 40.5s78 16.5 124 16.5c88 0 155.5 -15.667 202.5 -47s70.5 -78.333 70.5 -141c0 -24.667 -3.66699 -46.167 -11 -64.5s-17.333 -34.166 -30 -47.499s-27.5 -24.333 -44.5 -33s-34.833 -15.334 -53.5 -20.001
c51.333 -9.33301 91.666 -27.5 120.999 -54.5s44 -65.833 44 -116.5c0 -38 -7.83301 -70.5 -23.5 -97.5s-37 -49.167 -64 -66.5s-58.333 -30 -94 -38s-73.5 -12 -113.5 -12z" />
    <glyph glyph-name="uni0418" unicode="&#x418;" horiz-adv-x="772" 
d="M66 0v716h160v-483l319 483h161v-716h-161v482l-319 -482h-160z" />
    <glyph glyph-name="uni0419" unicode="&#x419;" horiz-adv-x="772" 
d="M383 749c-33.333 0 -62.168 4.33301 -86.501 13s-44.5 20.667 -60.5 36s-28 33.166 -36 53.499s-12 42.5 -12 66.5h138c0 -24.667 5 -42.5 15 -53.5s24 -16.5 42 -16.5c17.333 0 31 5.5 41 16.5s15 28.833 15 53.5h139c0 -24 -4 -46.167 -12 -66.5
s-20.167 -38.166 -36.5 -53.499s-36.666 -27.333 -60.999 -36s-52.833 -13 -85.5 -13zM65.998 0v716h160v-483l319 483h161v-716h-161v482l-319 -482h-160z" />
    <glyph glyph-name="uni041A" unicode="&#x41a;" horiz-adv-x="661" 
d="M267 290h-41v-290h-160v716h160v-295h52l201 295h163l-241 -352l252 -364h-184z" />
    </font>
</defs>
</svg>
