<svg width="50" height="50" viewBox="0 0 50 50" fill="none" xmlns="http://www.w3.org/2000/svg">
<path d="M32.291 2.08331H15.6243C12.7493 2.08331 10.416 4.41665 10.416 7.29165V42.7083C10.416 45.5833 12.7493 47.9166 15.6243 47.9166H32.291C35.166 47.9166 37.4993 45.5833 37.4993 42.7083V7.29165C37.4993 4.41665 35.166 2.08331 32.291 2.08331ZM23.9577 45.8333C22.2285 45.8333 20.8327 44.4375 20.8327 42.7083C20.8327 40.9791 22.2285 39.5833 23.9577 39.5833C25.6868 39.5833 27.0827 40.9791 27.0827 42.7083C27.0827 44.4375 25.6868 45.8333 23.9577 45.8333ZM33.3327 37.5H14.5827V8.33331H33.3327V37.5Z" fill="#34367C"/>
</svg>
